<ttFont>
    <TTGlyph name="A" xMin="13" yMin="0" xMax="602" yMax="690">
      <contour>
        <pt x="458" y="228" on="1"/>
        <pt x="157" y="228" on="1"/>
        <pt x="81" y="0" on="1"/>
        <pt x="13" y="0" on="1"/>
        <pt x="244" y="671" on="1"/>
        <pt x="250" y="690" on="0"/>
        <pt x="270" y="690" on="1"/>
        <pt x="345" y="690" on="1"/>
        <pt x="365" y="690" on="0"/>
        <pt x="371" y="671" on="1"/>
        <pt x="602" y="0" on="1"/>
        <pt x="534" y="0" on="1"/>
      </contour>
      <contour>
        <pt x="439" y="285" on="1"/>
        <pt x="340" y="582" on="1"/>
        <pt x="339" y="587" on="0"/>
        <pt x="325" y="628" on="0"/>
        <pt x="322" y="638" on="1"/>
        <pt x="294" y="638" on="1"/>
        <pt x="275" y="582" on="1"/>
        <pt x="176" y="285" on="1"/>
      </contour>
    </TTGlyph>
    <TTGlyph name="AE" xMin="3" yMin="-1" xMax="857" yMax="690">
      <contour>
        <pt x="855" y="55" on="1"/>
        <pt x="857" y="5" on="1"/>
        <pt x="763" y="-1" on="0"/>
        <pt x="570" y="-1" on="1"/>
        <pt x="521" y="-1" on="0"/>
        <pt x="460" y="63" on="0"/>
        <pt x="460" y="113" on="1"/>
        <pt x="460" y="242" on="1"/>
        <pt x="220" y="242" on="1"/>
        <pt x="73" y="0" on="1"/>
        <pt x="3" y="0" on="1"/>
        <pt x="366" y="590" on="1"/>
        <pt x="401" y="649" on="0"/>
        <pt x="491" y="690" on="0"/>
        <pt x="570" y="690" on="1"/>
        <pt x="753" y="690" on="0"/>
        <pt x="857" y="685" on="1"/>
        <pt x="855" y="634" on="1"/>
        <pt x="594" y="634" on="1"/>
        <pt x="562" y="634" on="0"/>
        <pt x="522" y="594" on="0"/>
        <pt x="522" y="560" on="1"/>
        <pt x="522" y="393" on="1"/>
        <pt x="814" y="393" on="1"/>
        <pt x="814" y="339" on="1"/>
        <pt x="522" y="339" on="1"/>
        <pt x="522" y="128" on="1"/>
        <pt x="522" y="55" on="0"/>
        <pt x="594" y="55" on="1"/>
      </contour>
      <contour>
        <pt x="460" y="297" on="1"/>
        <pt x="460" y="568" on="1"/>
        <pt x="460" y="590" on="0"/>
        <pt x="481" y="633" on="0"/>
        <pt x="495" y="642" on="1"/>
        <pt x="487" y="642" on="1"/>
        <pt x="453" y="624" on="0"/>
        <pt x="423" y="576" on="1"/>
        <pt x="254" y="297" on="1"/>
      </contour>
    </TTGlyph>
    <TTGlyph name="Aacute" xMin="13" yMin="0" xMax="602" yMax="907">
      <contour>
        <pt x="273" y="731" on="1"/>
        <pt x="249" y="761" on="1"/>
        <pt x="413" y="907" on="1"/>
        <pt x="451" y="859" on="1"/>
      </contour>
      <contour>
        <pt x="458" y="228" on="1"/>
        <pt x="157" y="228" on="1"/>
        <pt x="81" y="0" on="1"/>
        <pt x="13" y="0" on="1"/>
        <pt x="244" y="671" on="1"/>
        <pt x="250" y="690" on="0"/>
        <pt x="270" y="690" on="1"/>
        <pt x="345" y="690" on="1"/>
        <pt x="365" y="690" on="0"/>
        <pt x="371" y="671" on="1"/>
        <pt x="602" y="0" on="1"/>
        <pt x="534" y="0" on="1"/>
      </contour>
      <contour>
        <pt x="439" y="285" on="1"/>
        <pt x="340" y="582" on="1"/>
        <pt x="339" y="587" on="0"/>
        <pt x="325" y="628" on="0"/>
        <pt x="322" y="638" on="1"/>
        <pt x="294" y="638" on="1"/>
        <pt x="275" y="582" on="1"/>
        <pt x="176" y="285" on="1"/>
      </contour>
    </TTGlyph>
    <TTGlyph name="Abreve" xMin="13" yMin="0" xMax="602" yMax="880">
      <contour>
        <pt x="418" y="880" on="1"/>
        <pt x="452" y="874" on="1"/>
        <pt x="455" y="818" on="0"/>
        <pt x="377" y="749" on="0"/>
        <pt x="239" y="749" on="0"/>
        <pt x="160" y="818" on="0"/>
        <pt x="162" y="874" on="1"/>
        <pt x="197" y="880" on="1"/>
        <pt x="197" y="841" on="0"/>
        <pt x="255" y="798" on="0"/>
        <pt x="308" y="798" on="1"/>
        <pt x="359" y="798" on="0"/>
        <pt x="418" y="841" on="0"/>
      </contour>
      <contour>
        <pt x="458" y="228" on="1"/>
        <pt x="157" y="228" on="1"/>
        <pt x="81" y="0" on="1"/>
        <pt x="13" y="0" on="1"/>
        <pt x="244" y="671" on="1"/>
        <pt x="250" y="690" on="0"/>
        <pt x="270" y="690" on="1"/>
        <pt x="345" y="690" on="1"/>
        <pt x="365" y="690" on="0"/>
        <pt x="371" y="671" on="1"/>
        <pt x="602" y="0" on="1"/>
        <pt x="534" y="0" on="1"/>
      </contour>
      <contour>
        <pt x="439" y="285" on="1"/>
        <pt x="340" y="582" on="1"/>
        <pt x="339" y="587" on="0"/>
        <pt x="325" y="628" on="0"/>
        <pt x="322" y="638" on="1"/>
        <pt x="294" y="638" on="1"/>
        <pt x="275" y="582" on="1"/>
        <pt x="176" y="285" on="1"/>
      </contour>
    </TTGlyph>
    <TTGlyph name="Acircumflex" xMin="13" yMin="0" xMax="602" yMax="891">
      <contour>
        <pt x="174" y="739" on="1"/>
        <pt x="151" y="767" on="1"/>
        <pt x="284" y="891" on="1"/>
        <pt x="331" y="891" on="1"/>
        <pt x="464" y="767" on="1"/>
        <pt x="441" y="739" on="1"/>
        <pt x="311" y="838" on="1"/>
        <pt x="303" y="838" on="1"/>
      </contour>
      <contour>
        <pt x="458" y="228" on="1"/>
        <pt x="157" y="228" on="1"/>
        <pt x="81" y="0" on="1"/>
        <pt x="13" y="0" on="1"/>
        <pt x="244" y="671" on="1"/>
        <pt x="250" y="690" on="0"/>
        <pt x="270" y="690" on="1"/>
        <pt x="345" y="690" on="1"/>
        <pt x="365" y="690" on="0"/>
        <pt x="371" y="671" on="1"/>
        <pt x="602" y="0" on="1"/>
        <pt x="534" y="0" on="1"/>
      </contour>
      <contour>
        <pt x="439" y="285" on="1"/>
        <pt x="340" y="582" on="1"/>
        <pt x="339" y="587" on="0"/>
        <pt x="325" y="628" on="0"/>
        <pt x="322" y="638" on="1"/>
        <pt x="294" y="638" on="1"/>
        <pt x="275" y="582" on="1"/>
        <pt x="176" y="285" on="1"/>
      </contour>
    </TTGlyph>
    <TTGlyph name="Adieresis" xMin="13" yMin="0" xMax="602" yMax="865">
      <contour>
        <pt x="230" y="771" on="1"/>
        <pt x="208" y="771" on="1"/>
        <pt x="190" y="771" on="0"/>
        <pt x="190" y="790" on="1"/>
        <pt x="190" y="845" on="1"/>
        <pt x="190" y="865" on="0"/>
        <pt x="208" y="865" on="1"/>
        <pt x="230" y="865" on="1"/>
        <pt x="249" y="865" on="0"/>
        <pt x="249" y="845" on="1"/>
        <pt x="249" y="790" on="1"/>
        <pt x="249" y="771" on="0"/>
      </contour>
      <contour>
        <pt x="407" y="771" on="1"/>
        <pt x="385" y="771" on="1"/>
        <pt x="367" y="771" on="0"/>
        <pt x="367" y="790" on="1"/>
        <pt x="367" y="845" on="1"/>
        <pt x="367" y="865" on="0"/>
        <pt x="385" y="865" on="1"/>
        <pt x="407" y="865" on="1"/>
        <pt x="426" y="865" on="0"/>
        <pt x="426" y="845" on="1"/>
        <pt x="426" y="790" on="1"/>
        <pt x="426" y="771" on="0"/>
      </contour>
      <contour>
        <pt x="458" y="228" on="1"/>
        <pt x="157" y="228" on="1"/>
        <pt x="81" y="0" on="1"/>
        <pt x="13" y="0" on="1"/>
        <pt x="244" y="671" on="1"/>
        <pt x="250" y="690" on="0"/>
        <pt x="270" y="690" on="1"/>
        <pt x="345" y="690" on="1"/>
        <pt x="365" y="690" on="0"/>
        <pt x="371" y="671" on="1"/>
        <pt x="602" y="0" on="1"/>
        <pt x="534" y="0" on="1"/>
      </contour>
      <contour>
        <pt x="439" y="285" on="1"/>
        <pt x="340" y="582" on="1"/>
        <pt x="339" y="587" on="0"/>
        <pt x="325" y="628" on="0"/>
        <pt x="322" y="638" on="1"/>
        <pt x="294" y="638" on="1"/>
        <pt x="275" y="582" on="1"/>
        <pt x="176" y="285" on="1"/>
      </contour>
    </TTGlyph>
    <TTGlyph name="Agrave" xMin="13" yMin="0" xMax="602" yMax="907">
      <contour>
        <pt x="330" y="731" on="1"/>
        <pt x="152" y="859" on="1"/>
        <pt x="190" y="907" on="1"/>
        <pt x="354" y="761" on="1"/>
      </contour>
      <contour>
        <pt x="458" y="228" on="1"/>
        <pt x="157" y="228" on="1"/>
        <pt x="81" y="0" on="1"/>
        <pt x="13" y="0" on="1"/>
        <pt x="244" y="671" on="1"/>
        <pt x="250" y="690" on="0"/>
        <pt x="270" y="690" on="1"/>
        <pt x="345" y="690" on="1"/>
        <pt x="365" y="690" on="0"/>
        <pt x="371" y="671" on="1"/>
        <pt x="602" y="0" on="1"/>
        <pt x="534" y="0" on="1"/>
      </contour>
      <contour>
        <pt x="439" y="285" on="1"/>
        <pt x="340" y="582" on="1"/>
        <pt x="339" y="587" on="0"/>
        <pt x="325" y="628" on="0"/>
        <pt x="322" y="638" on="1"/>
        <pt x="294" y="638" on="1"/>
        <pt x="275" y="582" on="1"/>
        <pt x="176" y="285" on="1"/>
      </contour>
    </TTGlyph>
    <TTGlyph name="Amacron" xMin="13" yMin="0" xMax="602" yMax="841">
      <contour>
        <pt x="444" y="792" on="1"/>
        <pt x="172" y="792" on="1"/>
        <pt x="172" y="841" on="1"/>
        <pt x="444" y="841" on="1"/>
      </contour>
      <contour>
        <pt x="458" y="228" on="1"/>
        <pt x="157" y="228" on="1"/>
        <pt x="81" y="0" on="1"/>
        <pt x="13" y="0" on="1"/>
        <pt x="244" y="671" on="1"/>
        <pt x="250" y="690" on="0"/>
        <pt x="270" y="690" on="1"/>
        <pt x="345" y="690" on="1"/>
        <pt x="365" y="690" on="0"/>
        <pt x="371" y="671" on="1"/>
        <pt x="602" y="0" on="1"/>
        <pt x="534" y="0" on="1"/>
      </contour>
      <contour>
        <pt x="439" y="285" on="1"/>
        <pt x="340" y="582" on="1"/>
        <pt x="339" y="587" on="0"/>
        <pt x="325" y="628" on="0"/>
        <pt x="322" y="638" on="1"/>
        <pt x="294" y="638" on="1"/>
        <pt x="275" y="582" on="1"/>
        <pt x="176" y="285" on="1"/>
      </contour>
    </TTGlyph>
    <TTGlyph name="Aogonek" xMin="13" yMin="-202" xMax="614" yMax="690">
      <contour>
        <pt x="607" y="-166" on="1"/>
        <pt x="614" y="-194" on="1"/>
        <pt x="528" y="-227" on="0"/>
        <pt x="457" y="-176" on="0"/>
        <pt x="477" y="-120" on="1"/>
        <pt x="497" y="-60" on="0"/>
        <pt x="568" y="0" on="1"/>
        <pt x="534" y="0" on="1"/>
        <pt x="458" y="228" on="1"/>
        <pt x="157" y="228" on="1"/>
        <pt x="81" y="0" on="1"/>
        <pt x="13" y="0" on="1"/>
        <pt x="244" y="671" on="1"/>
        <pt x="250" y="690" on="0"/>
        <pt x="270" y="690" on="1"/>
        <pt x="345" y="690" on="1"/>
        <pt x="365" y="690" on="0"/>
        <pt x="371" y="671" on="1"/>
        <pt x="602" y="0" on="1"/>
        <pt x="544" y="-64" on="0"/>
        <pt x="523" y="-118" on="1"/>
        <pt x="507" y="-158" on="0"/>
        <pt x="556" y="-184" on="0"/>
      </contour>
      <contour>
        <pt x="439" y="285" on="1"/>
        <pt x="340" y="582" on="1"/>
        <pt x="339" y="587" on="0"/>
        <pt x="325" y="628" on="0"/>
        <pt x="322" y="638" on="1"/>
        <pt x="294" y="638" on="1"/>
        <pt x="275" y="582" on="1"/>
        <pt x="176" y="285" on="1"/>
      </contour>
    </TTGlyph>
    <TTGlyph name="Aring" xMin="13" yMin="0" xMax="602" yMax="919">
      <contour>
        <pt x="351" y="716" on="0"/>
        <pt x="265" y="716" on="0"/>
        <pt x="205" y="774" on="0"/>
        <pt x="205" y="860" on="0"/>
        <pt x="265" y="919" on="0"/>
        <pt x="308" y="919" on="1"/>
        <pt x="350" y="919" on="0"/>
        <pt x="411" y="859" on="0"/>
        <pt x="411" y="817" on="1"/>
        <pt x="411" y="774" on="0"/>
      </contour>
      <contour>
        <pt x="336" y="884" on="0"/>
        <pt x="280" y="884" on="0"/>
        <pt x="243" y="847" on="0"/>
        <pt x="243" y="817" on="1"/>
        <pt x="243" y="788" on="0"/>
        <pt x="280" y="751" on="0"/>
        <pt x="336" y="751" on="0"/>
        <pt x="373" y="788" on="0"/>
        <pt x="373" y="817" on="1"/>
        <pt x="373" y="847" on="0"/>
      </contour>
      <contour>
        <pt x="458" y="228" on="1"/>
        <pt x="157" y="228" on="1"/>
        <pt x="81" y="0" on="1"/>
        <pt x="13" y="0" on="1"/>
        <pt x="244" y="671" on="1"/>
        <pt x="250" y="690" on="0"/>
        <pt x="270" y="690" on="1"/>
        <pt x="345" y="690" on="1"/>
        <pt x="365" y="690" on="0"/>
        <pt x="371" y="671" on="1"/>
        <pt x="602" y="0" on="1"/>
        <pt x="534" y="0" on="1"/>
      </contour>
      <contour>
        <pt x="439" y="285" on="1"/>
        <pt x="340" y="582" on="1"/>
        <pt x="339" y="587" on="0"/>
        <pt x="325" y="628" on="0"/>
        <pt x="322" y="638" on="1"/>
        <pt x="294" y="638" on="1"/>
        <pt x="275" y="582" on="1"/>
        <pt x="176" y="285" on="1"/>
      </contour>
    </TTGlyph>
    <TTGlyph name="Atilde" xMin="13" yMin="0" xMax="602" yMax="875">
      <contour>
        <pt x="186" y="769" on="1"/>
        <pt x="155" y="769" on="1"/>
        <pt x="150" y="823" on="0"/>
        <pt x="194" y="878" on="0"/>
        <pt x="232" y="875" on="1"/>
        <pt x="263" y="872" on="0"/>
        <pt x="350" y="818" on="0"/>
        <pt x="406" y="812" on="0"/>
        <pt x="430" y="839" on="0"/>
        <pt x="430" y="870" on="1"/>
        <pt x="461" y="870" on="1"/>
        <pt x="465" y="819" on="0"/>
        <pt x="423" y="765" on="0"/>
        <pt x="384" y="768" on="1"/>
        <pt x="348" y="771" on="0"/>
        <pt x="260" y="826" on="0"/>
        <pt x="238" y="828" on="1"/>
        <pt x="209" y="831" on="0"/>
        <pt x="186" y="803" on="0"/>
      </contour>
      <contour>
        <pt x="458" y="228" on="1"/>
        <pt x="157" y="228" on="1"/>
        <pt x="81" y="0" on="1"/>
        <pt x="13" y="0" on="1"/>
        <pt x="244" y="671" on="1"/>
        <pt x="250" y="690" on="0"/>
        <pt x="270" y="690" on="1"/>
        <pt x="345" y="690" on="1"/>
        <pt x="365" y="690" on="0"/>
        <pt x="371" y="671" on="1"/>
        <pt x="602" y="0" on="1"/>
        <pt x="534" y="0" on="1"/>
      </contour>
      <contour>
        <pt x="439" y="285" on="1"/>
        <pt x="340" y="582" on="1"/>
        <pt x="339" y="587" on="0"/>
        <pt x="325" y="628" on="0"/>
        <pt x="322" y="638" on="1"/>
        <pt x="294" y="638" on="1"/>
        <pt x="275" y="582" on="1"/>
        <pt x="176" y="285" on="1"/>
      </contour>
    </TTGlyph>
    <TTGlyph name="B" xMin="93" yMin="-8" xMax="554" yMax="698">
      <contour>
        <pt x="416" y="360" on="1"/>
        <pt x="416" y="356" on="1"/>
        <pt x="491" y="349" on="0"/>
        <pt x="554" y="258" on="0"/>
        <pt x="554" y="172" on="1"/>
        <pt x="554" y="68" on="0"/>
        <pt x="457" y="-8" on="0"/>
        <pt x="336" y="-8" on="1"/>
        <pt x="179" y="-8" on="0"/>
        <pt x="93" y="0" on="1"/>
        <pt x="93" y="690" on="1"/>
        <pt x="168" y="698" on="0"/>
        <pt x="306" y="698" on="1"/>
        <pt x="434" y="698" on="0"/>
        <pt x="533" y="623" on="0"/>
        <pt x="533" y="518" on="1"/>
        <pt x="533" y="443" on="0"/>
        <pt x="477" y="366" on="0"/>
      </contour>
      <contour>
        <pt x="157" y="383" on="1"/>
        <pt x="320" y="383" on="1"/>
        <pt x="405" y="384" on="0"/>
        <pt x="469" y="436" on="0"/>
        <pt x="469" y="511" on="1"/>
        <pt x="469" y="589" on="0"/>
        <pt x="398" y="642" on="0"/>
        <pt x="304" y="642" on="1"/>
        <pt x="194" y="642" on="0"/>
        <pt x="157" y="641" on="1"/>
      </contour>
      <contour>
        <pt x="157" y="332" on="1"/>
        <pt x="157" y="50" on="1"/>
        <pt x="241" y="48" on="0"/>
        <pt x="328" y="48" on="1"/>
        <pt x="419" y="48" on="0"/>
        <pt x="487" y="102" on="0"/>
        <pt x="487" y="181" on="1"/>
        <pt x="487" y="268" on="0"/>
        <pt x="415" y="330" on="0"/>
        <pt x="320" y="332" on="1"/>
      </contour>
    </TTGlyph>
    <TTGlyph name="C" xMin="67" yMin="-12" xMax="529" yMax="702">
      <contour>
        <pt x="521" y="58" on="1"/>
        <pt x="529" y="9" on="1"/>
        <pt x="451" y="-12" on="0"/>
        <pt x="331" y="-12" on="1"/>
        <pt x="185" y="-12" on="0"/>
        <pt x="67" y="148" on="0"/>
        <pt x="67" y="542" on="0"/>
        <pt x="185" y="702" on="0"/>
        <pt x="331" y="702" on="1"/>
        <pt x="440" y="702" on="0"/>
        <pt x="515" y="683" on="1"/>
        <pt x="507" y="634" on="1"/>
        <pt x="431" y="643" on="0"/>
        <pt x="331" y="643" on="1"/>
        <pt x="221" y="643" on="0"/>
        <pt x="135" y="513" on="0"/>
        <pt x="135" y="177" on="0"/>
        <pt x="221" y="47" on="0"/>
        <pt x="331" y="47" on="1"/>
        <pt x="445" y="47" on="0"/>
      </contour>
    </TTGlyph>
    <TTGlyph name="Cacute" xMin="67" yMin="-12" xMax="529" yMax="907">
      <contour>
        <pt x="464" y="859" on="1"/>
        <pt x="286" y="731" on="1"/>
        <pt x="262" y="761" on="1"/>
        <pt x="426" y="907" on="1"/>
      </contour>
      <contour>
        <pt x="521" y="58" on="1"/>
        <pt x="529" y="9" on="1"/>
        <pt x="451" y="-12" on="0"/>
        <pt x="331" y="-12" on="1"/>
        <pt x="185" y="-12" on="0"/>
        <pt x="67" y="148" on="0"/>
        <pt x="67" y="542" on="0"/>
        <pt x="185" y="702" on="0"/>
        <pt x="331" y="702" on="1"/>
        <pt x="440" y="702" on="0"/>
        <pt x="515" y="683" on="1"/>
        <pt x="507" y="634" on="1"/>
        <pt x="431" y="643" on="0"/>
        <pt x="331" y="643" on="1"/>
        <pt x="221" y="643" on="0"/>
        <pt x="135" y="513" on="0"/>
        <pt x="135" y="177" on="0"/>
        <pt x="221" y="47" on="0"/>
        <pt x="331" y="47" on="1"/>
        <pt x="445" y="47" on="0"/>
      </contour>
    </TTGlyph>
    <TTGlyph name="Ccaron" xMin="67" yMin="-12" xMax="529" yMax="898">
      <contour>
        <pt x="479" y="870" on="1"/>
        <pt x="338" y="746" on="1"/>
        <pt x="306" y="746" on="1"/>
        <pt x="165" y="870" on="1"/>
        <pt x="189" y="898" on="1"/>
        <pt x="318" y="805" on="1"/>
        <pt x="326" y="805" on="1"/>
        <pt x="456" y="898" on="1"/>
      </contour>
      <contour>
        <pt x="521" y="58" on="1"/>
        <pt x="529" y="9" on="1"/>
        <pt x="451" y="-12" on="0"/>
        <pt x="331" y="-12" on="1"/>
        <pt x="185" y="-12" on="0"/>
        <pt x="67" y="148" on="0"/>
        <pt x="67" y="542" on="0"/>
        <pt x="185" y="702" on="0"/>
        <pt x="331" y="702" on="1"/>
        <pt x="440" y="702" on="0"/>
        <pt x="515" y="683" on="1"/>
        <pt x="507" y="634" on="1"/>
        <pt x="431" y="643" on="0"/>
        <pt x="331" y="643" on="1"/>
        <pt x="221" y="643" on="0"/>
        <pt x="135" y="513" on="0"/>
        <pt x="135" y="177" on="0"/>
        <pt x="221" y="47" on="0"/>
        <pt x="331" y="47" on="1"/>
        <pt x="445" y="47" on="0"/>
      </contour>
    </TTGlyph>
    <TTGlyph name="Ccedilla" xMin="67" yMin="-238" xMax="529" yMax="702">
      <contour>
        <pt x="521" y="58" on="1"/>
        <pt x="529" y="9" on="1"/>
        <pt x="451" y="-12" on="0"/>
        <pt x="331" y="-12" on="1"/>
        <pt x="185" y="-12" on="0"/>
        <pt x="67" y="148" on="0"/>
        <pt x="67" y="542" on="0"/>
        <pt x="185" y="702" on="0"/>
        <pt x="331" y="702" on="1"/>
        <pt x="440" y="702" on="0"/>
        <pt x="515" y="683" on="1"/>
        <pt x="507" y="634" on="1"/>
        <pt x="431" y="643" on="0"/>
        <pt x="331" y="643" on="1"/>
        <pt x="221" y="643" on="0"/>
        <pt x="135" y="513" on="0"/>
        <pt x="135" y="177" on="0"/>
        <pt x="221" y="47" on="0"/>
        <pt x="331" y="47" on="1"/>
        <pt x="445" y="47" on="0"/>
      </contour>
      <contour>
        <pt x="282" y="-88" on="1"/>
        <pt x="289" y="-57" on="1"/>
        <pt x="342" y="-52" on="0"/>
        <pt x="389" y="-81" on="0"/>
        <pt x="388" y="-122" on="1"/>
        <pt x="387" y="-182" on="0"/>
        <pt x="300" y="-247" on="0"/>
        <pt x="231" y="-238" on="1"/>
        <pt x="241" y="-203" on="1"/>
        <pt x="285" y="-204" on="0"/>
        <pt x="340" y="-160" on="0"/>
        <pt x="341" y="-126" on="1"/>
        <pt x="342" y="-105" on="0"/>
        <pt x="317" y="-89" on="0"/>
      </contour>
    </TTGlyph>
    <TTGlyph name="Cdotaccent" xMin="67" yMin="-12" xMax="529" yMax="865">
      <contour>
        <pt x="310" y="865" on="1"/>
        <pt x="332" y="865" on="1"/>
        <pt x="353" y="865" on="0"/>
        <pt x="353" y="844" on="1"/>
        <pt x="353" y="785" on="1"/>
        <pt x="353" y="764" on="0"/>
        <pt x="332" y="764" on="1"/>
        <pt x="310" y="764" on="1"/>
        <pt x="289" y="764" on="0"/>
        <pt x="289" y="785" on="1"/>
        <pt x="289" y="844" on="1"/>
        <pt x="289" y="865" on="0"/>
      </contour>
      <contour>
        <pt x="521" y="58" on="1"/>
        <pt x="529" y="9" on="1"/>
        <pt x="451" y="-12" on="0"/>
        <pt x="331" y="-12" on="1"/>
        <pt x="185" y="-12" on="0"/>
        <pt x="67" y="148" on="0"/>
        <pt x="67" y="542" on="0"/>
        <pt x="185" y="702" on="0"/>
        <pt x="331" y="702" on="1"/>
        <pt x="440" y="702" on="0"/>
        <pt x="515" y="683" on="1"/>
        <pt x="507" y="634" on="1"/>
        <pt x="431" y="643" on="0"/>
        <pt x="331" y="643" on="1"/>
        <pt x="221" y="643" on="0"/>
        <pt x="135" y="513" on="0"/>
        <pt x="135" y="177" on="0"/>
        <pt x="221" y="47" on="0"/>
        <pt x="331" y="47" on="1"/>
        <pt x="445" y="47" on="0"/>
      </contour>
    </TTGlyph>
    <TTGlyph name="D" xMin="93" yMin="-9" xMax="595" yMax="699">
      <contour>
        <pt x="93" y="0" on="1"/>
        <pt x="93" y="690" on="1"/>
        <pt x="217" y="699" on="0"/>
        <pt x="332" y="699" on="1"/>
        <pt x="478" y="699" on="0"/>
        <pt x="595" y="542" on="0"/>
        <pt x="595" y="148" on="0"/>
        <pt x="478" y="-9" on="0"/>
        <pt x="332" y="-9" on="1"/>
        <pt x="219" y="-9" on="0"/>
      </contour>
      <contour>
        <pt x="158" y="639" on="1"/>
        <pt x="158" y="51" on="1"/>
        <pt x="258" y="49" on="0"/>
        <pt x="332" y="49" on="1"/>
        <pt x="441" y="49" on="0"/>
        <pt x="526" y="179" on="0"/>
        <pt x="526" y="511" on="0"/>
        <pt x="441" y="642" on="0"/>
        <pt x="332" y="642" on="1"/>
        <pt x="314" y="642" on="0"/>
      </contour>
    </TTGlyph>
    <TTGlyph name="Dcaron" xMin="93" yMin="-9" xMax="595" yMax="898">
      <contour>
        <pt x="305" y="746" on="1"/>
        <pt x="164" y="870" on="1"/>
        <pt x="188" y="898" on="1"/>
        <pt x="317" y="805" on="1"/>
        <pt x="325" y="805" on="1"/>
        <pt x="455" y="898" on="1"/>
        <pt x="478" y="870" on="1"/>
        <pt x="337" y="746" on="1"/>
      </contour>
      <contour>
        <pt x="93" y="0" on="1"/>
        <pt x="93" y="690" on="1"/>
        <pt x="217" y="699" on="0"/>
        <pt x="332" y="699" on="1"/>
        <pt x="478" y="699" on="0"/>
        <pt x="595" y="542" on="0"/>
        <pt x="595" y="148" on="0"/>
        <pt x="478" y="-9" on="0"/>
        <pt x="332" y="-9" on="1"/>
        <pt x="219" y="-9" on="0"/>
      </contour>
      <contour>
        <pt x="158" y="639" on="1"/>
        <pt x="158" y="51" on="1"/>
        <pt x="258" y="49" on="0"/>
        <pt x="332" y="49" on="1"/>
        <pt x="441" y="49" on="0"/>
        <pt x="526" y="179" on="0"/>
        <pt x="526" y="511" on="0"/>
        <pt x="441" y="642" on="0"/>
        <pt x="332" y="642" on="1"/>
        <pt x="314" y="642" on="0"/>
      </contour>
    </TTGlyph>
    <TTGlyph name="Dcroat" xMin="24" yMin="-9" xMax="599" yMax="699">
      <contour>
        <pt x="97" y="388" on="1"/>
        <pt x="97" y="690" on="1"/>
        <pt x="221" y="699" on="0"/>
        <pt x="336" y="699" on="1"/>
        <pt x="482" y="699" on="0"/>
        <pt x="599" y="542" on="0"/>
        <pt x="599" y="148" on="0"/>
        <pt x="482" y="-9" on="0"/>
        <pt x="336" y="-9" on="1"/>
        <pt x="223" y="-9" on="0"/>
        <pt x="97" y="0" on="1"/>
        <pt x="97" y="349" on="1"/>
        <pt x="24" y="349" on="1"/>
        <pt x="24" y="388" on="1"/>
      </contour>
      <contour>
        <pt x="162" y="349" on="1"/>
        <pt x="162" y="51" on="1"/>
        <pt x="262" y="49" on="0"/>
        <pt x="336" y="49" on="1"/>
        <pt x="445" y="49" on="0"/>
        <pt x="530" y="179" on="0"/>
        <pt x="530" y="511" on="0"/>
        <pt x="445" y="642" on="0"/>
        <pt x="336" y="642" on="1"/>
        <pt x="318" y="642" on="0"/>
        <pt x="162" y="639" on="1"/>
        <pt x="162" y="388" on="1"/>
        <pt x="325" y="388" on="1"/>
        <pt x="325" y="349" on="1"/>
      </contour>
    </TTGlyph>
    <TTGlyph name="Delta" xMin="29" yMin="0" xMax="593" yMax="690">
      <contour>
        <pt x="593" y="32" on="1"/>
        <pt x="593" y="0" on="1"/>
        <pt x="29" y="0" on="1"/>
        <pt x="29" y="32" on="1"/>
        <pt x="277" y="690" on="1"/>
        <pt x="345" y="690" on="1"/>
      </contour>
      <contour>
        <pt x="517" y="54" on="1"/>
        <pt x="335" y="551" on="1"/>
        <pt x="330" y="565" on="0"/>
        <pt x="313" y="618" on="0"/>
        <pt x="311" y="625" on="1"/>
        <pt x="287" y="550" on="1"/>
        <pt x="104" y="54" on="1"/>
      </contour>
    </TTGlyph>
    <TTGlyph name="E" xMin="87" yMin="-1" xMax="504" yMax="691">
      <contour>
        <pt x="500" y="55" on="1"/>
        <pt x="504" y="5" on="1"/>
        <pt x="410" y="-1" on="0"/>
        <pt x="209" y="-1" on="1"/>
        <pt x="154" y="-1" on="0"/>
        <pt x="87" y="61" on="0"/>
        <pt x="87" y="113" on="1"/>
        <pt x="87" y="577" on="1"/>
        <pt x="87" y="629" on="0"/>
        <pt x="154" y="691" on="0"/>
        <pt x="209" y="691" on="1"/>
        <pt x="410" y="691" on="0"/>
        <pt x="504" y="685" on="1"/>
        <pt x="500" y="635" on="1"/>
        <pt x="220" y="635" on="1"/>
        <pt x="153" y="635" on="0"/>
        <pt x="153" y="562" on="1"/>
        <pt x="153" y="393" on="1"/>
        <pt x="461" y="393" on="1"/>
        <pt x="461" y="340" on="1"/>
        <pt x="153" y="340" on="1"/>
        <pt x="153" y="127" on="1"/>
        <pt x="153" y="55" on="0"/>
        <pt x="220" y="55" on="1"/>
      </contour>
    </TTGlyph>
    <TTGlyph name="Eacute" xMin="87" yMin="-1" xMax="504" yMax="929">
      <contour>
        <pt x="275" y="753" on="1"/>
        <pt x="251" y="783" on="1"/>
        <pt x="415" y="929" on="1"/>
        <pt x="453" y="881" on="1"/>
      </contour>
      <contour>
        <pt x="500" y="55" on="1"/>
        <pt x="504" y="5" on="1"/>
        <pt x="410" y="-1" on="0"/>
        <pt x="209" y="-1" on="1"/>
        <pt x="154" y="-1" on="0"/>
        <pt x="87" y="61" on="0"/>
        <pt x="87" y="113" on="1"/>
        <pt x="87" y="577" on="1"/>
        <pt x="87" y="629" on="0"/>
        <pt x="154" y="691" on="0"/>
        <pt x="209" y="691" on="1"/>
        <pt x="410" y="691" on="0"/>
        <pt x="504" y="685" on="1"/>
        <pt x="500" y="635" on="1"/>
        <pt x="220" y="635" on="1"/>
        <pt x="153" y="635" on="0"/>
        <pt x="153" y="562" on="1"/>
        <pt x="153" y="393" on="1"/>
        <pt x="461" y="393" on="1"/>
        <pt x="461" y="340" on="1"/>
        <pt x="153" y="340" on="1"/>
        <pt x="153" y="127" on="1"/>
        <pt x="153" y="55" on="0"/>
        <pt x="220" y="55" on="1"/>
      </contour>
    </TTGlyph>
    <TTGlyph name="Ecaron" xMin="87" yMin="-1" xMax="504" yMax="920">
      <contour>
        <pt x="295" y="769" on="1"/>
        <pt x="154" y="892" on="1"/>
        <pt x="177" y="920" on="1"/>
        <pt x="307" y="828" on="1"/>
        <pt x="315" y="828" on="1"/>
        <pt x="444" y="920" on="1"/>
        <pt x="468" y="892" on="1"/>
        <pt x="327" y="769" on="1"/>
      </contour>
      <contour>
        <pt x="500" y="55" on="1"/>
        <pt x="504" y="5" on="1"/>
        <pt x="410" y="-1" on="0"/>
        <pt x="209" y="-1" on="1"/>
        <pt x="154" y="-1" on="0"/>
        <pt x="87" y="61" on="0"/>
        <pt x="87" y="113" on="1"/>
        <pt x="87" y="577" on="1"/>
        <pt x="87" y="629" on="0"/>
        <pt x="154" y="691" on="0"/>
        <pt x="209" y="691" on="1"/>
        <pt x="410" y="691" on="0"/>
        <pt x="504" y="685" on="1"/>
        <pt x="500" y="635" on="1"/>
        <pt x="220" y="635" on="1"/>
        <pt x="153" y="635" on="0"/>
        <pt x="153" y="562" on="1"/>
        <pt x="153" y="393" on="1"/>
        <pt x="461" y="393" on="1"/>
        <pt x="461" y="340" on="1"/>
        <pt x="153" y="340" on="1"/>
        <pt x="153" y="127" on="1"/>
        <pt x="153" y="55" on="0"/>
        <pt x="220" y="55" on="1"/>
      </contour>
    </TTGlyph>
    <TTGlyph name="Ecircumflex" xMin="87" yMin="-1" xMax="504" yMax="913">
      <contour>
        <pt x="176" y="761" on="1"/>
        <pt x="153" y="789" on="1"/>
        <pt x="286" y="913" on="1"/>
        <pt x="332" y="913" on="1"/>
        <pt x="466" y="789" on="1"/>
        <pt x="443" y="761" on="1"/>
        <pt x="313" y="860" on="1"/>
        <pt x="305" y="860" on="1"/>
      </contour>
      <contour>
        <pt x="500" y="55" on="1"/>
        <pt x="504" y="5" on="1"/>
        <pt x="410" y="-1" on="0"/>
        <pt x="209" y="-1" on="1"/>
        <pt x="154" y="-1" on="0"/>
        <pt x="87" y="61" on="0"/>
        <pt x="87" y="113" on="1"/>
        <pt x="87" y="577" on="1"/>
        <pt x="87" y="629" on="0"/>
        <pt x="154" y="691" on="0"/>
        <pt x="209" y="691" on="1"/>
        <pt x="410" y="691" on="0"/>
        <pt x="504" y="685" on="1"/>
        <pt x="500" y="635" on="1"/>
        <pt x="220" y="635" on="1"/>
        <pt x="153" y="635" on="0"/>
        <pt x="153" y="562" on="1"/>
        <pt x="153" y="393" on="1"/>
        <pt x="461" y="393" on="1"/>
        <pt x="461" y="340" on="1"/>
        <pt x="153" y="340" on="1"/>
        <pt x="153" y="127" on="1"/>
        <pt x="153" y="55" on="0"/>
        <pt x="220" y="55" on="1"/>
      </contour>
    </TTGlyph>
    <TTGlyph name="Edieresis" xMin="87" yMin="-1" xMax="504" yMax="887">
      <contour>
        <pt x="232" y="793" on="1"/>
        <pt x="210" y="793" on="1"/>
        <pt x="191" y="793" on="0"/>
        <pt x="191" y="813" on="1"/>
        <pt x="191" y="868" on="1"/>
        <pt x="191" y="887" on="0"/>
        <pt x="210" y="887" on="1"/>
        <pt x="232" y="887" on="1"/>
        <pt x="251" y="887" on="0"/>
        <pt x="251" y="868" on="1"/>
        <pt x="251" y="813" on="1"/>
        <pt x="251" y="793" on="0"/>
      </contour>
      <contour>
        <pt x="409" y="793" on="1"/>
        <pt x="387" y="793" on="1"/>
        <pt x="368" y="793" on="0"/>
        <pt x="368" y="813" on="1"/>
        <pt x="368" y="868" on="1"/>
        <pt x="368" y="887" on="0"/>
        <pt x="387" y="887" on="1"/>
        <pt x="409" y="887" on="1"/>
        <pt x="428" y="887" on="0"/>
        <pt x="428" y="868" on="1"/>
        <pt x="428" y="813" on="1"/>
        <pt x="428" y="793" on="0"/>
      </contour>
      <contour>
        <pt x="500" y="55" on="1"/>
        <pt x="504" y="5" on="1"/>
        <pt x="410" y="-1" on="0"/>
        <pt x="209" y="-1" on="1"/>
        <pt x="154" y="-1" on="0"/>
        <pt x="87" y="61" on="0"/>
        <pt x="87" y="113" on="1"/>
        <pt x="87" y="577" on="1"/>
        <pt x="87" y="629" on="0"/>
        <pt x="154" y="691" on="0"/>
        <pt x="209" y="691" on="1"/>
        <pt x="410" y="691" on="0"/>
        <pt x="504" y="685" on="1"/>
        <pt x="500" y="635" on="1"/>
        <pt x="220" y="635" on="1"/>
        <pt x="153" y="635" on="0"/>
        <pt x="153" y="562" on="1"/>
        <pt x="153" y="393" on="1"/>
        <pt x="461" y="393" on="1"/>
        <pt x="461" y="340" on="1"/>
        <pt x="153" y="340" on="1"/>
        <pt x="153" y="127" on="1"/>
        <pt x="153" y="55" on="0"/>
        <pt x="220" y="55" on="1"/>
      </contour>
    </TTGlyph>
    <TTGlyph name="Edotaccent" xMin="87" yMin="-1" xMax="504" yMax="887">
      <contour>
        <pt x="321" y="786" on="1"/>
        <pt x="299" y="786" on="1"/>
        <pt x="278" y="786" on="0"/>
        <pt x="278" y="807" on="1"/>
        <pt x="278" y="866" on="1"/>
        <pt x="278" y="887" on="0"/>
        <pt x="299" y="887" on="1"/>
        <pt x="321" y="887" on="1"/>
        <pt x="342" y="887" on="0"/>
        <pt x="342" y="866" on="1"/>
        <pt x="342" y="807" on="1"/>
        <pt x="342" y="786" on="0"/>
      </contour>
      <contour>
        <pt x="500" y="55" on="1"/>
        <pt x="504" y="5" on="1"/>
        <pt x="410" y="-1" on="0"/>
        <pt x="209" y="-1" on="1"/>
        <pt x="154" y="-1" on="0"/>
        <pt x="87" y="61" on="0"/>
        <pt x="87" y="113" on="1"/>
        <pt x="87" y="577" on="1"/>
        <pt x="87" y="629" on="0"/>
        <pt x="154" y="691" on="0"/>
        <pt x="209" y="691" on="1"/>
        <pt x="410" y="691" on="0"/>
        <pt x="504" y="685" on="1"/>
        <pt x="500" y="635" on="1"/>
        <pt x="220" y="635" on="1"/>
        <pt x="153" y="635" on="0"/>
        <pt x="153" y="562" on="1"/>
        <pt x="153" y="393" on="1"/>
        <pt x="461" y="393" on="1"/>
        <pt x="461" y="340" on="1"/>
        <pt x="153" y="340" on="1"/>
        <pt x="153" y="127" on="1"/>
        <pt x="153" y="55" on="0"/>
        <pt x="220" y="55" on="1"/>
      </contour>
    </TTGlyph>
    <TTGlyph name="Egrave" xMin="87" yMin="-1" xMax="504" yMax="929">
      <contour>
        <pt x="332" y="753" on="1"/>
        <pt x="154" y="881" on="1"/>
        <pt x="192" y="929" on="1"/>
        <pt x="356" y="783" on="1"/>
      </contour>
      <contour>
        <pt x="500" y="55" on="1"/>
        <pt x="504" y="5" on="1"/>
        <pt x="410" y="-1" on="0"/>
        <pt x="209" y="-1" on="1"/>
        <pt x="154" y="-1" on="0"/>
        <pt x="87" y="61" on="0"/>
        <pt x="87" y="113" on="1"/>
        <pt x="87" y="577" on="1"/>
        <pt x="87" y="629" on="0"/>
        <pt x="154" y="691" on="0"/>
        <pt x="209" y="691" on="1"/>
        <pt x="410" y="691" on="0"/>
        <pt x="504" y="685" on="1"/>
        <pt x="500" y="635" on="1"/>
        <pt x="220" y="635" on="1"/>
        <pt x="153" y="635" on="0"/>
        <pt x="153" y="562" on="1"/>
        <pt x="153" y="393" on="1"/>
        <pt x="461" y="393" on="1"/>
        <pt x="461" y="340" on="1"/>
        <pt x="153" y="340" on="1"/>
        <pt x="153" y="127" on="1"/>
        <pt x="153" y="55" on="0"/>
        <pt x="220" y="55" on="1"/>
      </contour>
    </TTGlyph>
    <TTGlyph name="Emacron" xMin="87" yMin="-1" xMax="504" yMax="863">
      <contour>
        <pt x="446" y="814" on="1"/>
        <pt x="174" y="814" on="1"/>
        <pt x="174" y="863" on="1"/>
        <pt x="446" y="863" on="1"/>
      </contour>
      <contour>
        <pt x="500" y="55" on="1"/>
        <pt x="504" y="5" on="1"/>
        <pt x="410" y="-1" on="0"/>
        <pt x="209" y="-1" on="1"/>
        <pt x="154" y="-1" on="0"/>
        <pt x="87" y="61" on="0"/>
        <pt x="87" y="113" on="1"/>
        <pt x="87" y="577" on="1"/>
        <pt x="87" y="629" on="0"/>
        <pt x="154" y="691" on="0"/>
        <pt x="209" y="691" on="1"/>
        <pt x="410" y="691" on="0"/>
        <pt x="504" y="685" on="1"/>
        <pt x="500" y="635" on="1"/>
        <pt x="220" y="635" on="1"/>
        <pt x="153" y="635" on="0"/>
        <pt x="153" y="562" on="1"/>
        <pt x="153" y="393" on="1"/>
        <pt x="461" y="393" on="1"/>
        <pt x="461" y="340" on="1"/>
        <pt x="153" y="340" on="1"/>
        <pt x="153" y="127" on="1"/>
        <pt x="153" y="55" on="0"/>
        <pt x="220" y="55" on="1"/>
      </contour>
    </TTGlyph>
    <TTGlyph name="Eng" xMin="93" yMin="-218" xMax="606" yMax="690">
      <contour>
        <pt x="606" y="690" on="1"/>
        <pt x="606" y="-87" on="1"/>
        <pt x="606" y="-151" on="0"/>
        <pt x="538" y="-219" on="0"/>
        <pt x="476" y="-218" on="1"/>
        <pt x="433" y="-218" on="0"/>
        <pt x="396" y="-208" on="1"/>
        <pt x="403" y="-167" on="1"/>
        <pt x="456" y="-167" on="1"/>
        <pt x="544" y="-167" on="0"/>
        <pt x="544" y="-82" on="1"/>
        <pt x="544" y="0" on="1"/>
        <pt x="510" y="0" on="1"/>
        <pt x="497" y="0" on="0"/>
        <pt x="486" y="20" on="1"/>
        <pt x="213" y="537" on="1"/>
        <pt x="194" y="575" on="0"/>
        <pt x="174" y="620" on="1"/>
        <pt x="156" y="620" on="1"/>
        <pt x="158" y="592" on="0"/>
        <pt x="158" y="535" on="1"/>
        <pt x="158" y="0" on="1"/>
        <pt x="93" y="0" on="1"/>
        <pt x="93" y="662" on="1"/>
        <pt x="93" y="690" on="0"/>
        <pt x="120" y="690" on="1"/>
        <pt x="178" y="690" on="1"/>
        <pt x="198" y="690" on="0"/>
        <pt x="210" y="668" on="1"/>
        <pt x="476" y="166" on="1"/>
        <pt x="488" y="144" on="0"/>
        <pt x="522" y="72" on="1"/>
        <pt x="543" y="72" on="1"/>
        <pt x="541" y="138" on="0"/>
        <pt x="541" y="170" on="1"/>
        <pt x="541" y="690" on="1"/>
      </contour>
    </TTGlyph>
    <TTGlyph name="Eogonek" xMin="87" yMin="-197" xMax="516" yMax="691">
      <contour>
        <pt x="509" y="-162" on="1"/>
        <pt x="516" y="-189" on="1"/>
        <pt x="430" y="-222" on="0"/>
        <pt x="359" y="-171" on="0"/>
        <pt x="379" y="-115" on="1"/>
        <pt x="398" y="-57" on="0"/>
        <pt x="468" y="3" on="1"/>
        <pt x="384" y="-1" on="0"/>
        <pt x="209" y="-1" on="1"/>
        <pt x="154" y="-1" on="0"/>
        <pt x="87" y="61" on="0"/>
        <pt x="87" y="113" on="1"/>
        <pt x="87" y="577" on="1"/>
        <pt x="87" y="629" on="0"/>
        <pt x="154" y="691" on="0"/>
        <pt x="209" y="691" on="1"/>
        <pt x="410" y="691" on="0"/>
        <pt x="504" y="685" on="1"/>
        <pt x="500" y="635" on="1"/>
        <pt x="220" y="635" on="1"/>
        <pt x="153" y="635" on="0"/>
        <pt x="153" y="562" on="1"/>
        <pt x="153" y="393" on="1"/>
        <pt x="461" y="393" on="1"/>
        <pt x="461" y="340" on="1"/>
        <pt x="153" y="340" on="1"/>
        <pt x="153" y="127" on="1"/>
        <pt x="153" y="55" on="0"/>
        <pt x="220" y="55" on="1"/>
        <pt x="500" y="55" on="1"/>
        <pt x="504" y="5" on="1"/>
        <pt x="446" y="-59" on="0"/>
        <pt x="425" y="-113" on="1"/>
        <pt x="410" y="-153" on="0"/>
        <pt x="458" y="-179" on="0"/>
      </contour>
    </TTGlyph>
    <TTGlyph name="Eth" xMin="24" yMin="-9" xMax="599" yMax="699">
      <contour>
        <pt x="97" y="388" on="1"/>
        <pt x="97" y="690" on="1"/>
        <pt x="221" y="699" on="0"/>
        <pt x="336" y="699" on="1"/>
        <pt x="482" y="699" on="0"/>
        <pt x="599" y="542" on="0"/>
        <pt x="599" y="148" on="0"/>
        <pt x="482" y="-9" on="0"/>
        <pt x="336" y="-9" on="1"/>
        <pt x="223" y="-9" on="0"/>
        <pt x="97" y="0" on="1"/>
        <pt x="97" y="349" on="1"/>
        <pt x="24" y="349" on="1"/>
        <pt x="24" y="388" on="1"/>
      </contour>
      <contour>
        <pt x="162" y="349" on="1"/>
        <pt x="162" y="51" on="1"/>
        <pt x="262" y="49" on="0"/>
        <pt x="336" y="49" on="1"/>
        <pt x="445" y="49" on="0"/>
        <pt x="530" y="179" on="0"/>
        <pt x="530" y="511" on="0"/>
        <pt x="445" y="642" on="0"/>
        <pt x="336" y="642" on="1"/>
        <pt x="318" y="642" on="0"/>
        <pt x="162" y="639" on="1"/>
        <pt x="162" y="388" on="1"/>
        <pt x="325" y="388" on="1"/>
        <pt x="325" y="349" on="1"/>
      </contour>
    </TTGlyph>
    <TTGlyph name="Euro" xMin="58" yMin="-12" xMax="587" yMax="702">
      <contour>
        <pt x="579" y="59" on="1"/>
        <pt x="587" y="9" on="1"/>
        <pt x="511" y="-12" on="0"/>
        <pt x="413" y="-12" on="1"/>
        <pt x="284" y="-12" on="0"/>
        <pt x="160" y="125" on="0"/>
        <pt x="148" y="266" on="1"/>
        <pt x="58" y="266" on="1"/>
        <pt x="58" y="308" on="1"/>
        <pt x="145" y="308" on="1"/>
        <pt x="145" y="345" on="1"/>
        <pt x="145" y="382" on="0"/>
        <pt x="146" y="400" on="1"/>
        <pt x="59" y="400" on="1"/>
        <pt x="59" y="442" on="1"/>
        <pt x="149" y="442" on="1"/>
        <pt x="164" y="574" on="0"/>
        <pt x="288" y="702" on="0"/>
        <pt x="413" y="702" on="1"/>
        <pt x="507" y="702" on="0"/>
        <pt x="577" y="683" on="1"/>
        <pt x="568" y="633" on="1"/>
        <pt x="488" y="645" on="0"/>
        <pt x="410" y="643" on="1"/>
        <pt x="322" y="641" on="0"/>
        <pt x="231" y="543" on="0"/>
        <pt x="218" y="442" on="1"/>
        <pt x="485" y="442" on="1"/>
        <pt x="478" y="400" on="1"/>
        <pt x="215" y="400" on="1"/>
        <pt x="213" y="364" on="0"/>
        <pt x="213" y="344" on="1"/>
        <pt x="214" y="308" on="1"/>
        <pt x="441" y="308" on="1"/>
        <pt x="433" y="266" on="1"/>
        <pt x="216" y="266" on="1"/>
        <pt x="226" y="156" on="0"/>
        <pt x="317" y="48" on="0"/>
        <pt x="410" y="47" on="1"/>
        <pt x="506" y="46" on="0"/>
      </contour>
    </TTGlyph>
    <TTGlyph name="F" xMin="90" yMin="0" xMax="499" yMax="691">
      <contour>
        <pt x="495" y="635" on="1"/>
        <pt x="228" y="635" on="1"/>
        <pt x="156" y="635" on="0"/>
        <pt x="156" y="562" on="1"/>
        <pt x="156" y="385" on="1"/>
        <pt x="456" y="385" on="1"/>
        <pt x="456" y="332" on="1"/>
        <pt x="156" y="332" on="1"/>
        <pt x="156" y="0" on="1"/>
        <pt x="90" y="0" on="1"/>
        <pt x="90" y="574" on="1"/>
        <pt x="90" y="628" on="0"/>
        <pt x="157" y="691" on="0"/>
        <pt x="212" y="691" on="1"/>
        <pt x="407" y="691" on="0"/>
        <pt x="499" y="685" on="1"/>
      </contour>
    </TTGlyph>
    <TTGlyph name="G" xMin="67" yMin="-12" xMax="553" yMax="702">
      <contour>
        <pt x="553" y="399" on="1"/>
        <pt x="553" y="0" on="1"/>
        <pt x="506" y="0" on="1"/>
        <pt x="497" y="78" on="1"/>
        <pt x="409" y="-12" on="0"/>
        <pt x="288" y="-12" on="1"/>
        <pt x="170" y="-12" on="0"/>
        <pt x="67" y="158" on="0"/>
        <pt x="67" y="346" on="1"/>
        <pt x="67" y="547" on="0"/>
        <pt x="189" y="702" on="0"/>
        <pt x="344" y="702" on="1"/>
        <pt x="458" y="702" on="0"/>
        <pt x="538" y="683" on="1"/>
        <pt x="530" y="634" on="1"/>
        <pt x="440" y="644" on="0"/>
        <pt x="348" y="644" on="1"/>
        <pt x="266" y="644" on="0"/>
        <pt x="178" y="594" on="0"/>
        <pt x="136" y="465" on="0"/>
        <pt x="136" y="343" on="1"/>
        <pt x="136" y="181" on="0"/>
        <pt x="212" y="45" on="0"/>
        <pt x="305" y="45" on="1"/>
        <pt x="342" y="45" on="0"/>
        <pt x="414" y="71" on="0"/>
        <pt x="457" y="99" on="0"/>
        <pt x="489" y="124" on="1"/>
        <pt x="489" y="399" on="1"/>
      </contour>
    </TTGlyph>
    <TTGlyph name="Gbreve" xMin="67" yMin="-12" xMax="553" yMax="880">
      <contour>
        <pt x="436" y="880" on="1"/>
        <pt x="470" y="874" on="1"/>
        <pt x="473" y="818" on="0"/>
        <pt x="395" y="749" on="0"/>
        <pt x="257" y="749" on="0"/>
        <pt x="178" y="818" on="0"/>
        <pt x="181" y="874" on="1"/>
        <pt x="215" y="880" on="1"/>
        <pt x="215" y="841" on="0"/>
        <pt x="274" y="798" on="0"/>
        <pt x="327" y="798" on="1"/>
        <pt x="378" y="798" on="0"/>
        <pt x="436" y="841" on="0"/>
      </contour>
      <contour>
        <pt x="553" y="399" on="1"/>
        <pt x="553" y="0" on="1"/>
        <pt x="506" y="0" on="1"/>
        <pt x="497" y="78" on="1"/>
        <pt x="409" y="-12" on="0"/>
        <pt x="288" y="-12" on="1"/>
        <pt x="170" y="-12" on="0"/>
        <pt x="67" y="158" on="0"/>
        <pt x="67" y="346" on="1"/>
        <pt x="67" y="547" on="0"/>
        <pt x="189" y="702" on="0"/>
        <pt x="344" y="702" on="1"/>
        <pt x="458" y="702" on="0"/>
        <pt x="538" y="683" on="1"/>
        <pt x="530" y="634" on="1"/>
        <pt x="440" y="644" on="0"/>
        <pt x="348" y="644" on="1"/>
        <pt x="266" y="644" on="0"/>
        <pt x="178" y="594" on="0"/>
        <pt x="136" y="465" on="0"/>
        <pt x="136" y="343" on="1"/>
        <pt x="136" y="181" on="0"/>
        <pt x="212" y="45" on="0"/>
        <pt x="305" y="45" on="1"/>
        <pt x="342" y="45" on="0"/>
        <pt x="414" y="71" on="0"/>
        <pt x="457" y="99" on="0"/>
        <pt x="489" y="124" on="1"/>
        <pt x="489" y="399" on="1"/>
      </contour>
    </TTGlyph>
    <TTGlyph name="Gcommaaccent" xMin="67" yMin="-265" xMax="553" yMax="702">
      <contour>
        <pt x="553" y="399" on="1"/>
        <pt x="553" y="0" on="1"/>
        <pt x="506" y="0" on="1"/>
        <pt x="497" y="78" on="1"/>
        <pt x="409" y="-12" on="0"/>
        <pt x="288" y="-12" on="1"/>
        <pt x="170" y="-12" on="0"/>
        <pt x="67" y="158" on="0"/>
        <pt x="67" y="346" on="1"/>
        <pt x="67" y="547" on="0"/>
        <pt x="189" y="702" on="0"/>
        <pt x="344" y="702" on="1"/>
        <pt x="458" y="702" on="0"/>
        <pt x="538" y="683" on="1"/>
        <pt x="530" y="634" on="1"/>
        <pt x="440" y="644" on="0"/>
        <pt x="348" y="644" on="1"/>
        <pt x="266" y="644" on="0"/>
        <pt x="178" y="594" on="0"/>
        <pt x="136" y="465" on="0"/>
        <pt x="136" y="343" on="1"/>
        <pt x="136" y="181" on="0"/>
        <pt x="212" y="45" on="0"/>
        <pt x="305" y="45" on="1"/>
        <pt x="342" y="45" on="0"/>
        <pt x="414" y="71" on="0"/>
        <pt x="457" y="99" on="0"/>
        <pt x="489" y="124" on="1"/>
        <pt x="489" y="399" on="1"/>
      </contour>
      <contour>
        <pt x="315" y="-60" on="1"/>
        <pt x="333" y="-60" on="1"/>
        <pt x="355" y="-60" on="0"/>
        <pt x="355" y="-82" on="1"/>
        <pt x="355" y="-138" on="1"/>
        <pt x="353" y="-207" on="0"/>
        <pt x="329" y="-265" on="1"/>
        <pt x="301" y="-256" on="1"/>
        <pt x="308" y="-207" on="0"/>
        <pt x="308" y="-154" on="1"/>
        <pt x="291" y="-154" on="0"/>
        <pt x="293" y="-135" on="1"/>
        <pt x="293" y="-82" on="1"/>
        <pt x="293" y="-60" on="0"/>
      </contour>
    </TTGlyph>
    <TTGlyph name="Gdotaccent" xMin="67" yMin="-12" xMax="553" yMax="865">
      <contour>
        <pt x="337" y="764" on="1"/>
        <pt x="316" y="764" on="1"/>
        <pt x="295" y="764" on="0"/>
        <pt x="295" y="785" on="1"/>
        <pt x="295" y="844" on="1"/>
        <pt x="295" y="865" on="0"/>
        <pt x="316" y="865" on="1"/>
        <pt x="337" y="865" on="1"/>
        <pt x="358" y="865" on="0"/>
        <pt x="358" y="844" on="1"/>
        <pt x="358" y="785" on="1"/>
        <pt x="358" y="764" on="0"/>
      </contour>
      <contour>
        <pt x="553" y="399" on="1"/>
        <pt x="553" y="0" on="1"/>
        <pt x="506" y="0" on="1"/>
        <pt x="497" y="78" on="1"/>
        <pt x="409" y="-12" on="0"/>
        <pt x="288" y="-12" on="1"/>
        <pt x="170" y="-12" on="0"/>
        <pt x="67" y="158" on="0"/>
        <pt x="67" y="346" on="1"/>
        <pt x="67" y="547" on="0"/>
        <pt x="189" y="702" on="0"/>
        <pt x="344" y="702" on="1"/>
        <pt x="458" y="702" on="0"/>
        <pt x="538" y="683" on="1"/>
        <pt x="530" y="634" on="1"/>
        <pt x="440" y="644" on="0"/>
        <pt x="348" y="644" on="1"/>
        <pt x="266" y="644" on="0"/>
        <pt x="178" y="594" on="0"/>
        <pt x="136" y="465" on="0"/>
        <pt x="136" y="343" on="1"/>
        <pt x="136" y="181" on="0"/>
        <pt x="212" y="45" on="0"/>
        <pt x="305" y="45" on="1"/>
        <pt x="342" y="45" on="0"/>
        <pt x="414" y="71" on="0"/>
        <pt x="457" y="99" on="0"/>
        <pt x="489" y="124" on="1"/>
        <pt x="489" y="399" on="1"/>
      </contour>
    </TTGlyph>
    <TTGlyph name="H" xMin="93" yMin="0" xMax="571" yMax="690">
      <contour>
        <pt x="571" y="690" on="1"/>
        <pt x="571" y="0" on="1"/>
        <pt x="506" y="0" on="1"/>
        <pt x="506" y="341" on="1"/>
        <pt x="158" y="341" on="1"/>
        <pt x="158" y="0" on="1"/>
        <pt x="93" y="0" on="1"/>
        <pt x="93" y="690" on="1"/>
        <pt x="158" y="690" on="1"/>
        <pt x="158" y="397" on="1"/>
        <pt x="506" y="397" on="1"/>
        <pt x="506" y="690" on="1"/>
      </contour>
    </TTGlyph>
    <TTGlyph name="Hbar" xMin="23" yMin="0" xMax="649" yMax="690">
      <contour>
        <pt x="649" y="521" on="1"/>
        <pt x="575" y="521" on="1"/>
        <pt x="575" y="0" on="1"/>
        <pt x="510" y="0" on="1"/>
        <pt x="510" y="341" on="1"/>
        <pt x="162" y="341" on="1"/>
        <pt x="162" y="0" on="1"/>
        <pt x="97" y="0" on="1"/>
        <pt x="97" y="521" on="1"/>
        <pt x="23" y="521" on="1"/>
        <pt x="23" y="559" on="1"/>
        <pt x="97" y="559" on="1"/>
        <pt x="97" y="690" on="1"/>
        <pt x="162" y="690" on="1"/>
        <pt x="162" y="559" on="1"/>
        <pt x="510" y="559" on="1"/>
        <pt x="510" y="690" on="1"/>
        <pt x="575" y="690" on="1"/>
        <pt x="575" y="559" on="1"/>
        <pt x="649" y="559" on="1"/>
      </contour>
      <contour>
        <pt x="510" y="521" on="1"/>
        <pt x="162" y="521" on="1"/>
        <pt x="162" y="397" on="1"/>
        <pt x="510" y="397" on="1"/>
      </contour>
    </TTGlyph>
    <TTGlyph name="I" xMin="93" yMin="0" xMax="158" yMax="690">
      <contour>
        <pt x="158" y="0" on="1"/>
        <pt x="93" y="0" on="1"/>
        <pt x="93" y="690" on="1"/>
        <pt x="158" y="690" on="1"/>
      </contour>
    </TTGlyph>
    <TTGlyph name="IJ" xMin="93" yMin="-8" xMax="495" yMax="690">
      <contour>
        <pt x="158" y="0" on="1"/>
        <pt x="93" y="0" on="1"/>
        <pt x="93" y="690" on="1"/>
        <pt x="158" y="690" on="1"/>
      </contour>
      <contour>
        <pt x="495" y="690" on="1"/>
        <pt x="495" y="134" on="1"/>
        <pt x="495" y="-8" on="0"/>
        <pt x="366" y="-8" on="1"/>
        <pt x="324" y="-8" on="0"/>
        <pt x="284" y="2" on="1"/>
        <pt x="291" y="48" on="1"/>
        <pt x="344" y="48" on="1"/>
        <pt x="430" y="48" on="0"/>
        <pt x="430" y="132" on="1"/>
        <pt x="430" y="690" on="1"/>
      </contour>
    </TTGlyph>
    <TTGlyph name="Iacute" xMin="66" yMin="0" xMax="268" yMax="907">
      <contour>
        <pt x="268" y="859" on="1"/>
        <pt x="90" y="731" on="1"/>
        <pt x="66" y="761" on="1"/>
        <pt x="230" y="907" on="1"/>
      </contour>
      <contour>
        <pt x="158" y="0" on="1"/>
        <pt x="93" y="0" on="1"/>
        <pt x="93" y="690" on="1"/>
        <pt x="158" y="690" on="1"/>
      </contour>
    </TTGlyph>
    <TTGlyph name="Icircumflex" xMin="-32" yMin="0" xMax="281" yMax="891">
      <contour>
        <pt x="281" y="767" on="1"/>
        <pt x="258" y="739" on="1"/>
        <pt x="129" y="838" on="1"/>
        <pt x="121" y="838" on="1"/>
        <pt x="-9" y="739" on="1"/>
        <pt x="-32" y="767" on="1"/>
        <pt x="102" y="891" on="1"/>
        <pt x="148" y="891" on="1"/>
      </contour>
      <contour>
        <pt x="158" y="0" on="1"/>
        <pt x="93" y="0" on="1"/>
        <pt x="93" y="690" on="1"/>
        <pt x="158" y="690" on="1"/>
      </contour>
    </TTGlyph>
    <TTGlyph name="Idieresis" xMin="7" yMin="0" xMax="243" yMax="865">
      <contour>
        <pt x="25" y="865" on="1"/>
        <pt x="47" y="865" on="1"/>
        <pt x="66" y="865" on="0"/>
        <pt x="66" y="845" on="1"/>
        <pt x="66" y="790" on="1"/>
        <pt x="66" y="771" on="0"/>
        <pt x="47" y="771" on="1"/>
        <pt x="25" y="771" on="1"/>
        <pt x="7" y="771" on="0"/>
        <pt x="7" y="790" on="1"/>
        <pt x="7" y="845" on="1"/>
        <pt x="7" y="865" on="0"/>
      </contour>
      <contour>
        <pt x="203" y="865" on="1"/>
        <pt x="224" y="865" on="1"/>
        <pt x="243" y="865" on="0"/>
        <pt x="243" y="845" on="1"/>
        <pt x="243" y="790" on="1"/>
        <pt x="243" y="771" on="0"/>
        <pt x="224" y="771" on="1"/>
        <pt x="203" y="771" on="1"/>
        <pt x="184" y="771" on="0"/>
        <pt x="184" y="790" on="1"/>
        <pt x="184" y="845" on="1"/>
        <pt x="184" y="865" on="0"/>
      </contour>
      <contour>
        <pt x="158" y="0" on="1"/>
        <pt x="93" y="0" on="1"/>
        <pt x="93" y="690" on="1"/>
        <pt x="158" y="690" on="1"/>
      </contour>
    </TTGlyph>
    <TTGlyph name="Idotaccent" xMin="93" yMin="0" xMax="158" yMax="865">
      <contour>
        <pt x="115" y="865" on="1"/>
        <pt x="136" y="865" on="1"/>
        <pt x="157" y="865" on="0"/>
        <pt x="157" y="844" on="1"/>
        <pt x="157" y="785" on="1"/>
        <pt x="157" y="764" on="0"/>
        <pt x="136" y="764" on="1"/>
        <pt x="115" y="764" on="1"/>
        <pt x="94" y="764" on="0"/>
        <pt x="94" y="785" on="1"/>
        <pt x="94" y="844" on="1"/>
        <pt x="94" y="865" on="0"/>
      </contour>
      <contour>
        <pt x="158" y="0" on="1"/>
        <pt x="93" y="0" on="1"/>
        <pt x="93" y="690" on="1"/>
        <pt x="158" y="690" on="1"/>
      </contour>
    </TTGlyph>
    <TTGlyph name="Igrave" xMin="-31" yMin="0" xMax="171" yMax="907">
      <contour>
        <pt x="171" y="761" on="1"/>
        <pt x="147" y="731" on="1"/>
        <pt x="-31" y="859" on="1"/>
        <pt x="7" y="907" on="1"/>
      </contour>
      <contour>
        <pt x="158" y="0" on="1"/>
        <pt x="93" y="0" on="1"/>
        <pt x="93" y="690" on="1"/>
        <pt x="158" y="690" on="1"/>
      </contour>
    </TTGlyph>
    <TTGlyph name="Imacron" xMin="-11" yMin="0" xMax="261" yMax="841">
      <contour>
        <pt x="261" y="792" on="1"/>
        <pt x="-11" y="792" on="1"/>
        <pt x="-11" y="841" on="1"/>
        <pt x="261" y="841" on="1"/>
      </contour>
      <contour>
        <pt x="158" y="0" on="1"/>
        <pt x="93" y="0" on="1"/>
        <pt x="93" y="690" on="1"/>
        <pt x="158" y="690" on="1"/>
      </contour>
    </TTGlyph>
    <TTGlyph name="Iogonek" xMin="27" yMin="-202" xMax="164" yMax="690">
      <contour>
        <pt x="157" y="-166" on="1"/>
        <pt x="164" y="-194" on="1"/>
        <pt x="78" y="-227" on="0"/>
        <pt x="7" y="-176" on="0"/>
        <pt x="27" y="-120" on="1"/>
        <pt x="47" y="-59" on="0"/>
        <pt x="119" y="0" on="1"/>
        <pt x="93" y="0" on="1"/>
        <pt x="93" y="690" on="1"/>
        <pt x="158" y="690" on="1"/>
        <pt x="158" y="0" on="1"/>
        <pt x="152" y="0" on="1"/>
        <pt x="94" y="-64" on="0"/>
        <pt x="73" y="-118" on="1"/>
        <pt x="58" y="-158" on="0"/>
        <pt x="106" y="-184" on="0"/>
      </contour>
    </TTGlyph>
    <TTGlyph name="J" xMin="33" yMin="-8" xMax="245" yMax="690">
      <contour>
        <pt x="245" y="690" on="1"/>
        <pt x="245" y="134" on="1"/>
        <pt x="245" y="-8" on="0"/>
        <pt x="115" y="-8" on="1"/>
        <pt x="75" y="-8" on="0"/>
        <pt x="33" y="2" on="1"/>
        <pt x="40" y="48" on="1"/>
        <pt x="93" y="48" on="1"/>
        <pt x="179" y="48" on="0"/>
        <pt x="179" y="132" on="1"/>
        <pt x="179" y="690" on="1"/>
      </contour>
    </TTGlyph>
    <TTGlyph name="K" xMin="93" yMin="0" xMax="557" yMax="690">
      <contour>
        <pt x="248" y="333" on="1"/>
        <pt x="152" y="333" on="1"/>
        <pt x="158" y="292" on="0"/>
        <pt x="158" y="255" on="1"/>
        <pt x="158" y="0" on="1"/>
        <pt x="93" y="0" on="1"/>
        <pt x="93" y="690" on="1"/>
        <pt x="158" y="690" on="1"/>
        <pt x="158" y="467" on="1"/>
        <pt x="158" y="426" on="0"/>
        <pt x="152" y="387" on="1"/>
        <pt x="248" y="387" on="1"/>
        <pt x="469" y="690" on="1"/>
        <pt x="542" y="690" on="1"/>
        <pt x="330" y="397" on="1"/>
        <pt x="319" y="380" on="0"/>
        <pt x="298" y="361" on="1"/>
        <pt x="298" y="358" on="1"/>
        <pt x="319" y="339" on="0"/>
        <pt x="333" y="319" on="1"/>
        <pt x="557" y="0" on="1"/>
        <pt x="483" y="0" on="1"/>
      </contour>
    </TTGlyph>
    <TTGlyph name="Kcommaaccent" xMin="93" yMin="-265" xMax="557" yMax="690">
      <contour>
        <pt x="557" y="0" on="1"/>
        <pt x="483" y="0" on="1"/>
        <pt x="248" y="333" on="1"/>
        <pt x="152" y="333" on="1"/>
        <pt x="158" y="292" on="0"/>
        <pt x="158" y="255" on="1"/>
        <pt x="158" y="0" on="1"/>
        <pt x="93" y="0" on="1"/>
        <pt x="93" y="690" on="1"/>
        <pt x="158" y="690" on="1"/>
        <pt x="158" y="467" on="1"/>
        <pt x="158" y="426" on="0"/>
        <pt x="152" y="387" on="1"/>
        <pt x="248" y="387" on="1"/>
        <pt x="469" y="690" on="1"/>
        <pt x="542" y="690" on="1"/>
        <pt x="330" y="397" on="1"/>
        <pt x="319" y="380" on="0"/>
        <pt x="298" y="361" on="1"/>
        <pt x="298" y="358" on="1"/>
        <pt x="319" y="339" on="0"/>
        <pt x="333" y="319" on="1"/>
      </contour>
      <contour>
        <pt x="303" y="-60" on="1"/>
        <pt x="320" y="-60" on="1"/>
        <pt x="333" y="-60" on="0"/>
        <pt x="342" y="-70" on="0"/>
        <pt x="342" y="-82" on="1"/>
        <pt x="342" y="-138" on="1"/>
        <pt x="340" y="-207" on="0"/>
        <pt x="316" y="-265" on="1"/>
        <pt x="288" y="-256" on="1"/>
        <pt x="296" y="-200" on="0"/>
        <pt x="296" y="-154" on="1"/>
        <pt x="278" y="-154" on="0"/>
        <pt x="280" y="-135" on="1"/>
        <pt x="280" y="-82" on="1"/>
        <pt x="280" y="-60" on="0"/>
      </contour>
    </TTGlyph>
    <TTGlyph name="L" xMin="90" yMin="-1" xMax="487" yMax="690">
      <contour>
        <pt x="156" y="690" on="1"/>
        <pt x="156" y="128" on="1"/>
        <pt x="156" y="55" on="0"/>
        <pt x="228" y="55" on="1"/>
        <pt x="485" y="55" on="1"/>
        <pt x="487" y="5" on="1"/>
        <pt x="381" y="-1" on="0"/>
        <pt x="217" y="-1" on="1"/>
        <pt x="154" y="-1" on="0"/>
        <pt x="90" y="65" on="0"/>
        <pt x="90" y="119" on="1"/>
        <pt x="90" y="690" on="1"/>
      </contour>
    </TTGlyph>
    <TTGlyph name="Lacute" xMin="65" yMin="-1" xMax="487" yMax="907">
      <contour>
        <pt x="267" y="859" on="1"/>
        <pt x="89" y="731" on="1"/>
        <pt x="65" y="761" on="1"/>
        <pt x="229" y="907" on="1"/>
      </contour>
      <contour>
        <pt x="156" y="690" on="1"/>
        <pt x="156" y="128" on="1"/>
        <pt x="156" y="55" on="0"/>
        <pt x="228" y="55" on="1"/>
        <pt x="485" y="55" on="1"/>
        <pt x="487" y="5" on="1"/>
        <pt x="381" y="-1" on="0"/>
        <pt x="217" y="-1" on="1"/>
        <pt x="154" y="-1" on="0"/>
        <pt x="90" y="65" on="0"/>
        <pt x="90" y="119" on="1"/>
        <pt x="90" y="690" on="1"/>
      </contour>
    </TTGlyph>
    <TTGlyph name="Lcaron" xMin="90" yMin="-1" xMax="487" yMax="691">
      <contour>
        <pt x="307" y="691" on="1"/>
        <pt x="325" y="691" on="1"/>
        <pt x="347" y="691" on="0"/>
        <pt x="347" y="670" on="1"/>
        <pt x="347" y="614" on="1"/>
        <pt x="345" y="545" on="0"/>
        <pt x="321" y="487" on="1"/>
        <pt x="293" y="495" on="1"/>
        <pt x="300" y="545" on="0"/>
        <pt x="300" y="598" on="1"/>
        <pt x="283" y="598" on="0"/>
        <pt x="285" y="617" on="1"/>
        <pt x="285" y="670" on="1"/>
        <pt x="285" y="691" on="0"/>
      </contour>
      <contour>
        <pt x="156" y="690" on="1"/>
        <pt x="156" y="128" on="1"/>
        <pt x="156" y="55" on="0"/>
        <pt x="228" y="55" on="1"/>
        <pt x="485" y="55" on="1"/>
        <pt x="487" y="5" on="1"/>
        <pt x="381" y="-1" on="0"/>
        <pt x="217" y="-1" on="1"/>
        <pt x="154" y="-1" on="0"/>
        <pt x="90" y="65" on="0"/>
        <pt x="90" y="119" on="1"/>
        <pt x="90" y="690" on="1"/>
      </contour>
    </TTGlyph>
    <TTGlyph name="Lcommaaccent" xMin="90" yMin="-270" xMax="487" yMax="690">
      <contour>
        <pt x="156" y="690" on="1"/>
        <pt x="156" y="128" on="1"/>
        <pt x="156" y="55" on="0"/>
        <pt x="228" y="55" on="1"/>
        <pt x="485" y="55" on="1"/>
        <pt x="487" y="5" on="1"/>
        <pt x="381" y="-1" on="0"/>
        <pt x="217" y="-1" on="1"/>
        <pt x="154" y="-1" on="0"/>
        <pt x="90" y="65" on="0"/>
        <pt x="90" y="119" on="1"/>
        <pt x="90" y="690" on="1"/>
      </contour>
      <contour>
        <pt x="289" y="-66" on="1"/>
        <pt x="307" y="-66" on="1"/>
        <pt x="329" y="-66" on="0"/>
        <pt x="329" y="-87" on="1"/>
        <pt x="329" y="-143" on="1"/>
        <pt x="327" y="-212" on="0"/>
        <pt x="303" y="-270" on="1"/>
        <pt x="275" y="-262" on="1"/>
        <pt x="282" y="-212" on="0"/>
        <pt x="282" y="-159" on="1"/>
        <pt x="264" y="-159" on="0"/>
        <pt x="266" y="-140" on="1"/>
        <pt x="266" y="-87" on="1"/>
        <pt x="267" y="-66" on="0"/>
      </contour>
    </TTGlyph>
    <TTGlyph name="Ldot" xMin="90" yMin="-1" xMax="487" yMax="690">
      <contour>
        <pt x="156" y="690" on="1"/>
        <pt x="156" y="128" on="1"/>
        <pt x="156" y="55" on="0"/>
        <pt x="228" y="55" on="1"/>
        <pt x="485" y="55" on="1"/>
        <pt x="487" y="5" on="1"/>
        <pt x="381" y="-1" on="0"/>
        <pt x="217" y="-1" on="1"/>
        <pt x="154" y="-1" on="0"/>
        <pt x="90" y="65" on="0"/>
        <pt x="90" y="119" on="1"/>
        <pt x="90" y="690" on="1"/>
      </contour>
      <contour>
        <pt x="392" y="336" on="1"/>
        <pt x="371" y="336" on="1"/>
        <pt x="350" y="336" on="0"/>
        <pt x="350" y="357" on="1"/>
        <pt x="350" y="415" on="1"/>
        <pt x="350" y="436" on="0"/>
        <pt x="371" y="436" on="1"/>
        <pt x="392" y="436" on="1"/>
        <pt x="413" y="436" on="0"/>
        <pt x="413" y="415" on="1"/>
        <pt x="413" y="357" on="1"/>
        <pt x="413" y="336" on="0"/>
      </contour>
    </TTGlyph>
    <TTGlyph name="Lslash" xMin="23" yMin="-1" xMax="493" yMax="690">
      <contour>
        <pt x="491" y="55" on="1"/>
        <pt x="493" y="5" on="1"/>
        <pt x="386" y="-1" on="0"/>
        <pt x="222" y="-1" on="1"/>
        <pt x="159" y="-1" on="0"/>
        <pt x="96" y="65" on="0"/>
        <pt x="96" y="119" on="1"/>
        <pt x="96" y="343" on="1"/>
        <pt x="23" y="312" on="1"/>
        <pt x="23" y="354" on="1"/>
        <pt x="96" y="385" on="1"/>
        <pt x="96" y="690" on="1"/>
        <pt x="161" y="690" on="1"/>
        <pt x="161" y="413" on="1"/>
        <pt x="282" y="464" on="1"/>
        <pt x="282" y="422" on="1"/>
        <pt x="161" y="370" on="1"/>
        <pt x="161" y="128" on="1"/>
        <pt x="161" y="55" on="0"/>
        <pt x="233" y="55" on="1"/>
      </contour>
    </TTGlyph>
    <TTGlyph name="M" xMin="79" yMin="0" xMax="790" yMax="690">
      <contour>
        <pt x="654" y="690" on="1"/>
        <pt x="732" y="690" on="1"/>
        <pt x="761" y="690" on="0"/>
        <pt x="761" y="661" on="1"/>
        <pt x="790" y="0" on="1"/>
        <pt x="725" y="0" on="1"/>
        <pt x="698" y="635" on="1"/>
        <pt x="676" y="635" on="1"/>
        <pt x="497" y="94" on="1"/>
        <pt x="490" y="72" on="0"/>
        <pt x="467" y="72" on="1"/>
        <pt x="401" y="72" on="1"/>
        <pt x="378" y="72" on="0"/>
        <pt x="371" y="94" on="1"/>
        <pt x="191" y="635" on="1"/>
        <pt x="170" y="635" on="1"/>
        <pt x="144" y="0" on="1"/>
        <pt x="79" y="0" on="1"/>
        <pt x="107" y="661" on="1"/>
        <pt x="107" y="690" on="0"/>
        <pt x="136" y="690" on="1"/>
        <pt x="215" y="690" on="1"/>
        <pt x="236" y="690" on="0"/>
        <pt x="244" y="667" on="1"/>
        <pt x="395" y="217" on="1"/>
        <pt x="411" y="167" on="0"/>
        <pt x="423" y="123" on="1"/>
        <pt x="445" y="123" on="1"/>
        <pt x="451" y="145" on="0"/>
        <pt x="474" y="218" on="1"/>
        <pt x="625" y="667" on="1"/>
        <pt x="631" y="690" on="0"/>
      </contour>
    </TTGlyph>
    <TTGlyph name="N" xMin="93" yMin="0" xMax="606" yMax="690">
      <contour>
        <pt x="606" y="690" on="1"/>
        <pt x="606" y="28" on="1"/>
        <pt x="606" y="0" on="0"/>
        <pt x="579" y="0" on="1"/>
        <pt x="509" y="0" on="1"/>
        <pt x="487" y="0" on="0"/>
        <pt x="477" y="22" on="1"/>
        <pt x="214" y="546" on="1"/>
        <pt x="177" y="623" on="0"/>
        <pt x="175" y="629" on="1"/>
        <pt x="156" y="629" on="1"/>
        <pt x="158" y="602" on="0"/>
        <pt x="158" y="546" on="1"/>
        <pt x="158" y="0" on="1"/>
        <pt x="93" y="0" on="1"/>
        <pt x="93" y="662" on="1"/>
        <pt x="93" y="690" on="0"/>
        <pt x="120" y="690" on="1"/>
        <pt x="188" y="690" on="1"/>
        <pt x="210" y="690" on="0"/>
        <pt x="220" y="668" on="1"/>
        <pt x="477" y="156" on="1"/>
        <pt x="508" y="94" on="0"/>
        <pt x="523" y="63" on="1"/>
        <pt x="544" y="63" on="1"/>
        <pt x="541" y="112" on="0"/>
        <pt x="541" y="162" on="1"/>
        <pt x="541" y="690" on="1"/>
      </contour>
    </TTGlyph>
    <TTGlyph name="Nacute" xMin="93" yMin="0" xMax="606" yMax="907">
      <contour>
        <pt x="502" y="859" on="1"/>
        <pt x="324" y="731" on="1"/>
        <pt x="301" y="761" on="1"/>
        <pt x="465" y="907" on="1"/>
      </contour>
      <contour>
        <pt x="606" y="690" on="1"/>
        <pt x="606" y="28" on="1"/>
        <pt x="606" y="0" on="0"/>
        <pt x="579" y="0" on="1"/>
        <pt x="509" y="0" on="1"/>
        <pt x="487" y="0" on="0"/>
        <pt x="477" y="22" on="1"/>
        <pt x="214" y="546" on="1"/>
        <pt x="177" y="623" on="0"/>
        <pt x="175" y="629" on="1"/>
        <pt x="156" y="629" on="1"/>
        <pt x="158" y="602" on="0"/>
        <pt x="158" y="546" on="1"/>
        <pt x="158" y="0" on="1"/>
        <pt x="93" y="0" on="1"/>
        <pt x="93" y="662" on="1"/>
        <pt x="93" y="690" on="0"/>
        <pt x="120" y="690" on="1"/>
        <pt x="188" y="690" on="1"/>
        <pt x="210" y="690" on="0"/>
        <pt x="220" y="668" on="1"/>
        <pt x="477" y="156" on="1"/>
        <pt x="508" y="94" on="0"/>
        <pt x="523" y="63" on="1"/>
        <pt x="544" y="63" on="1"/>
        <pt x="541" y="112" on="0"/>
        <pt x="541" y="162" on="1"/>
        <pt x="541" y="690" on="1"/>
      </contour>
    </TTGlyph>
    <TTGlyph name="Ncaron" xMin="93" yMin="0" xMax="606" yMax="898">
      <contour>
        <pt x="518" y="870" on="1"/>
        <pt x="377" y="746" on="1"/>
        <pt x="345" y="746" on="1"/>
        <pt x="204" y="870" on="1"/>
        <pt x="227" y="898" on="1"/>
        <pt x="357" y="805" on="1"/>
        <pt x="365" y="805" on="1"/>
        <pt x="494" y="898" on="1"/>
      </contour>
      <contour>
        <pt x="606" y="690" on="1"/>
        <pt x="606" y="28" on="1"/>
        <pt x="606" y="0" on="0"/>
        <pt x="579" y="0" on="1"/>
        <pt x="509" y="0" on="1"/>
        <pt x="487" y="0" on="0"/>
        <pt x="477" y="22" on="1"/>
        <pt x="214" y="546" on="1"/>
        <pt x="177" y="623" on="0"/>
        <pt x="175" y="629" on="1"/>
        <pt x="156" y="629" on="1"/>
        <pt x="158" y="602" on="0"/>
        <pt x="158" y="546" on="1"/>
        <pt x="158" y="0" on="1"/>
        <pt x="93" y="0" on="1"/>
        <pt x="93" y="662" on="1"/>
        <pt x="93" y="690" on="0"/>
        <pt x="120" y="690" on="1"/>
        <pt x="188" y="690" on="1"/>
        <pt x="210" y="690" on="0"/>
        <pt x="220" y="668" on="1"/>
        <pt x="477" y="156" on="1"/>
        <pt x="508" y="94" on="0"/>
        <pt x="523" y="63" on="1"/>
        <pt x="544" y="63" on="1"/>
        <pt x="541" y="112" on="0"/>
        <pt x="541" y="162" on="1"/>
        <pt x="541" y="690" on="1"/>
      </contour>
    </TTGlyph>
    <TTGlyph name="Ncommaaccent" xMin="93" yMin="-265" xMax="606" yMax="690">
      <contour>
        <pt x="606" y="690" on="1"/>
        <pt x="606" y="28" on="1"/>
        <pt x="606" y="0" on="0"/>
        <pt x="579" y="0" on="1"/>
        <pt x="509" y="0" on="1"/>
        <pt x="487" y="0" on="0"/>
        <pt x="477" y="22" on="1"/>
        <pt x="214" y="546" on="1"/>
        <pt x="177" y="623" on="0"/>
        <pt x="175" y="629" on="1"/>
        <pt x="156" y="629" on="1"/>
        <pt x="158" y="602" on="0"/>
        <pt x="158" y="546" on="1"/>
        <pt x="158" y="0" on="1"/>
        <pt x="93" y="0" on="1"/>
        <pt x="93" y="662" on="1"/>
        <pt x="93" y="690" on="0"/>
        <pt x="120" y="690" on="1"/>
        <pt x="188" y="690" on="1"/>
        <pt x="210" y="690" on="0"/>
        <pt x="220" y="668" on="1"/>
        <pt x="477" y="156" on="1"/>
        <pt x="508" y="94" on="0"/>
        <pt x="523" y="63" on="1"/>
        <pt x="544" y="63" on="1"/>
        <pt x="541" y="112" on="0"/>
        <pt x="541" y="162" on="1"/>
        <pt x="541" y="690" on="1"/>
      </contour>
      <contour>
        <pt x="328" y="-60" on="1"/>
        <pt x="345" y="-60" on="1"/>
        <pt x="358" y="-60" on="0"/>
        <pt x="367" y="-70" on="0"/>
        <pt x="367" y="-82" on="1"/>
        <pt x="367" y="-138" on="1"/>
        <pt x="365" y="-207" on="0"/>
        <pt x="341" y="-265" on="1"/>
        <pt x="313" y="-256" on="1"/>
        <pt x="321" y="-200" on="0"/>
        <pt x="321" y="-154" on="1"/>
        <pt x="303" y="-154" on="0"/>
        <pt x="305" y="-135" on="1"/>
        <pt x="305" y="-82" on="1"/>
        <pt x="305" y="-60" on="0"/>
      </contour>
    </TTGlyph>
    <TTGlyph name="Ntilde" xMin="93" yMin="0" xMax="606" yMax="875">
      <contour>
        <pt x="238" y="769" on="1"/>
        <pt x="206" y="769" on="1"/>
        <pt x="202" y="823" on="0"/>
        <pt x="245" y="878" on="0"/>
        <pt x="283" y="875" on="1"/>
        <pt x="314" y="872" on="0"/>
        <pt x="401" y="818" on="0"/>
        <pt x="429" y="815" on="1"/>
        <pt x="458" y="812" on="0"/>
        <pt x="481" y="838" on="0"/>
        <pt x="481" y="870" on="1"/>
        <pt x="513" y="870" on="1"/>
        <pt x="517" y="819" on="0"/>
        <pt x="474" y="765" on="0"/>
        <pt x="436" y="768" on="1"/>
        <pt x="400" y="771" on="0"/>
        <pt x="311" y="826" on="0"/>
        <pt x="289" y="828" on="1"/>
        <pt x="261" y="831" on="0"/>
        <pt x="238" y="803" on="0"/>
      </contour>
      <contour>
        <pt x="606" y="690" on="1"/>
        <pt x="606" y="28" on="1"/>
        <pt x="606" y="0" on="0"/>
        <pt x="579" y="0" on="1"/>
        <pt x="509" y="0" on="1"/>
        <pt x="487" y="0" on="0"/>
        <pt x="477" y="22" on="1"/>
        <pt x="214" y="546" on="1"/>
        <pt x="177" y="623" on="0"/>
        <pt x="175" y="629" on="1"/>
        <pt x="156" y="629" on="1"/>
        <pt x="158" y="602" on="0"/>
        <pt x="158" y="546" on="1"/>
        <pt x="158" y="0" on="1"/>
        <pt x="93" y="0" on="1"/>
        <pt x="93" y="662" on="1"/>
        <pt x="93" y="690" on="0"/>
        <pt x="120" y="690" on="1"/>
        <pt x="188" y="690" on="1"/>
        <pt x="210" y="690" on="0"/>
        <pt x="220" y="668" on="1"/>
        <pt x="477" y="156" on="1"/>
        <pt x="508" y="94" on="0"/>
        <pt x="523" y="63" on="1"/>
        <pt x="544" y="63" on="1"/>
        <pt x="541" y="112" on="0"/>
        <pt x="541" y="162" on="1"/>
        <pt x="541" y="690" on="1"/>
      </contour>
    </TTGlyph>
    <TTGlyph name="O" xMin="67" yMin="-12" xMax="599" yMax="702">
      <contour>
        <pt x="185" y="702" on="0"/>
        <pt x="481" y="702" on="0"/>
        <pt x="599" y="545" on="0"/>
        <pt x="599" y="145" on="0"/>
        <pt x="481" y="-12" on="0"/>
        <pt x="185" y="-12" on="0"/>
        <pt x="67" y="145" on="0"/>
        <pt x="67" y="545" on="0"/>
      </contour>
      <contour>
        <pt x="444" y="644" on="0"/>
        <pt x="222" y="644" on="0"/>
        <pt x="135" y="513" on="0"/>
        <pt x="135" y="177" on="0"/>
        <pt x="222" y="46" on="0"/>
        <pt x="444" y="46" on="0"/>
        <pt x="530" y="177" on="0"/>
        <pt x="530" y="513" on="0"/>
      </contour>
    </TTGlyph>
    <TTGlyph name="OE" xMin="67" yMin="-12" xMax="851" yMax="702">
      <contour>
        <pt x="849" y="55" on="1"/>
        <pt x="851" y="5" on="1"/>
        <pt x="759" y="-1" on="0"/>
        <pt x="563" y="-1" on="1"/>
        <pt x="525" y="-1" on="0"/>
        <pt x="495" y="21" on="1"/>
        <pt x="422" y="-12" on="0"/>
        <pt x="333" y="-12" on="1"/>
        <pt x="185" y="-12" on="0"/>
        <pt x="67" y="145" on="0"/>
        <pt x="67" y="545" on="0"/>
        <pt x="185" y="702" on="0"/>
        <pt x="333" y="702" on="1"/>
        <pt x="423" y="702" on="0"/>
        <pt x="498" y="670" on="1"/>
        <pt x="529" y="691" on="0"/>
        <pt x="567" y="691" on="1"/>
        <pt x="760" y="691" on="0"/>
        <pt x="851" y="685" on="1"/>
        <pt x="849" y="635" on="1"/>
        <pt x="588" y="635" on="1"/>
        <pt x="516" y="635" on="0"/>
        <pt x="516" y="562" on="1"/>
        <pt x="516" y="393" on="1"/>
        <pt x="808" y="393" on="1"/>
        <pt x="808" y="339" on="1"/>
        <pt x="516" y="339" on="1"/>
        <pt x="516" y="127" on="1"/>
        <pt x="516" y="55" on="0"/>
        <pt x="588" y="55" on="1"/>
      </contour>
      <contour>
        <pt x="450" y="119" on="1"/>
        <pt x="450" y="571" on="1"/>
        <pt x="450" y="600" on="0"/>
        <pt x="461" y="624" on="1"/>
        <pt x="401" y="644" on="0"/>
        <pt x="333" y="644" on="1"/>
        <pt x="222" y="644" on="0"/>
        <pt x="135" y="515" on="0"/>
        <pt x="135" y="345" on="1"/>
        <pt x="135" y="177" on="0"/>
        <pt x="222" y="46" on="0"/>
        <pt x="333" y="46" on="1"/>
        <pt x="406" y="46" on="0"/>
        <pt x="460" y="66" on="1"/>
        <pt x="450" y="93" on="0"/>
      </contour>
    </TTGlyph>
    <TTGlyph name="Oacute" xMin="67" yMin="-12" xMax="599" yMax="907">
      <contour>
        <pt x="475" y="859" on="1"/>
        <pt x="298" y="731" on="1"/>
        <pt x="274" y="761" on="1"/>
        <pt x="438" y="907" on="1"/>
      </contour>
      <contour>
        <pt x="185" y="702" on="0"/>
        <pt x="481" y="702" on="0"/>
        <pt x="599" y="545" on="0"/>
        <pt x="599" y="145" on="0"/>
        <pt x="481" y="-12" on="0"/>
        <pt x="185" y="-12" on="0"/>
        <pt x="67" y="145" on="0"/>
        <pt x="67" y="545" on="0"/>
      </contour>
      <contour>
        <pt x="444" y="644" on="0"/>
        <pt x="222" y="644" on="0"/>
        <pt x="135" y="513" on="0"/>
        <pt x="135" y="177" on="0"/>
        <pt x="222" y="46" on="0"/>
        <pt x="444" y="46" on="0"/>
        <pt x="530" y="177" on="0"/>
        <pt x="530" y="513" on="0"/>
      </contour>
    </TTGlyph>
    <TTGlyph name="Ocircumflex" xMin="67" yMin="-12" xMax="599" yMax="891">
      <contour>
        <pt x="489" y="767" on="1"/>
        <pt x="466" y="739" on="1"/>
        <pt x="336" y="838" on="1"/>
        <pt x="328" y="838" on="1"/>
        <pt x="199" y="739" on="1"/>
        <pt x="176" y="767" on="1"/>
        <pt x="309" y="891" on="1"/>
        <pt x="355" y="891" on="1"/>
      </contour>
      <contour>
        <pt x="185" y="702" on="0"/>
        <pt x="481" y="702" on="0"/>
        <pt x="599" y="545" on="0"/>
        <pt x="599" y="145" on="0"/>
        <pt x="481" y="-12" on="0"/>
        <pt x="185" y="-12" on="0"/>
        <pt x="67" y="145" on="0"/>
        <pt x="67" y="545" on="0"/>
      </contour>
      <contour>
        <pt x="444" y="644" on="0"/>
        <pt x="222" y="644" on="0"/>
        <pt x="135" y="513" on="0"/>
        <pt x="135" y="177" on="0"/>
        <pt x="222" y="46" on="0"/>
        <pt x="444" y="46" on="0"/>
        <pt x="530" y="177" on="0"/>
        <pt x="530" y="513" on="0"/>
      </contour>
    </TTGlyph>
    <TTGlyph name="Odieresis" xMin="67" yMin="-12" xMax="599" yMax="865">
      <contour>
        <pt x="233" y="865" on="1"/>
        <pt x="255" y="865" on="1"/>
        <pt x="274" y="865" on="0"/>
        <pt x="274" y="845" on="1"/>
        <pt x="274" y="790" on="1"/>
        <pt x="274" y="771" on="0"/>
        <pt x="255" y="771" on="1"/>
        <pt x="233" y="771" on="1"/>
        <pt x="214" y="771" on="0"/>
        <pt x="214" y="790" on="1"/>
        <pt x="214" y="845" on="1"/>
        <pt x="214" y="865" on="0"/>
      </contour>
      <contour>
        <pt x="410" y="865" on="1"/>
        <pt x="432" y="865" on="1"/>
        <pt x="451" y="865" on="0"/>
        <pt x="451" y="845" on="1"/>
        <pt x="451" y="790" on="1"/>
        <pt x="451" y="771" on="0"/>
        <pt x="432" y="771" on="1"/>
        <pt x="410" y="771" on="1"/>
        <pt x="391" y="771" on="0"/>
        <pt x="391" y="790" on="1"/>
        <pt x="391" y="845" on="1"/>
        <pt x="391" y="865" on="0"/>
      </contour>
      <contour>
        <pt x="185" y="702" on="0"/>
        <pt x="481" y="702" on="0"/>
        <pt x="599" y="545" on="0"/>
        <pt x="599" y="145" on="0"/>
        <pt x="481" y="-12" on="0"/>
        <pt x="185" y="-12" on="0"/>
        <pt x="67" y="145" on="0"/>
        <pt x="67" y="545" on="0"/>
      </contour>
      <contour>
        <pt x="444" y="644" on="0"/>
        <pt x="222" y="644" on="0"/>
        <pt x="135" y="513" on="0"/>
        <pt x="135" y="177" on="0"/>
        <pt x="222" y="46" on="0"/>
        <pt x="444" y="46" on="0"/>
        <pt x="530" y="177" on="0"/>
        <pt x="530" y="513" on="0"/>
      </contour>
    </TTGlyph>
    <TTGlyph name="Ograve" xMin="67" yMin="-12" xMax="599" yMax="907">
      <contour>
        <pt x="379" y="761" on="1"/>
        <pt x="355" y="731" on="1"/>
        <pt x="177" y="859" on="1"/>
        <pt x="215" y="907" on="1"/>
      </contour>
      <contour>
        <pt x="185" y="702" on="0"/>
        <pt x="481" y="702" on="0"/>
        <pt x="599" y="545" on="0"/>
        <pt x="599" y="145" on="0"/>
        <pt x="481" y="-12" on="0"/>
        <pt x="185" y="-12" on="0"/>
        <pt x="67" y="145" on="0"/>
        <pt x="67" y="545" on="0"/>
      </contour>
      <contour>
        <pt x="444" y="644" on="0"/>
        <pt x="222" y="644" on="0"/>
        <pt x="135" y="513" on="0"/>
        <pt x="135" y="177" on="0"/>
        <pt x="222" y="46" on="0"/>
        <pt x="444" y="46" on="0"/>
        <pt x="530" y="177" on="0"/>
        <pt x="530" y="513" on="0"/>
      </contour>
    </TTGlyph>
    <TTGlyph name="Ohungarumlaut" xMin="67" yMin="-12" xMax="599" yMax="916">
      <contour>
        <pt x="372" y="883" on="1"/>
        <pt x="244" y="726" on="1"/>
        <pt x="214" y="748" on="1"/>
        <pt x="324" y="916" on="1"/>
      </contour>
      <contour>
        <pt x="527" y="883" on="1"/>
        <pt x="399" y="726" on="1"/>
        <pt x="370" y="748" on="1"/>
        <pt x="480" y="916" on="1"/>
      </contour>
      <contour>
        <pt x="185" y="702" on="0"/>
        <pt x="481" y="702" on="0"/>
        <pt x="599" y="545" on="0"/>
        <pt x="599" y="145" on="0"/>
        <pt x="481" y="-12" on="0"/>
        <pt x="185" y="-12" on="0"/>
        <pt x="67" y="145" on="0"/>
        <pt x="67" y="545" on="0"/>
      </contour>
      <contour>
        <pt x="444" y="644" on="0"/>
        <pt x="222" y="644" on="0"/>
        <pt x="135" y="513" on="0"/>
        <pt x="135" y="177" on="0"/>
        <pt x="222" y="46" on="0"/>
        <pt x="444" y="46" on="0"/>
        <pt x="530" y="177" on="0"/>
        <pt x="530" y="513" on="0"/>
      </contour>
    </TTGlyph>
    <TTGlyph name="Omacron" xMin="67" yMin="-12" xMax="599" yMax="841">
      <contour>
        <pt x="469" y="792" on="1"/>
        <pt x="197" y="792" on="1"/>
        <pt x="197" y="841" on="1"/>
        <pt x="469" y="841" on="1"/>
      </contour>
      <contour>
        <pt x="185" y="702" on="0"/>
        <pt x="481" y="702" on="0"/>
        <pt x="599" y="545" on="0"/>
        <pt x="599" y="145" on="0"/>
        <pt x="481" y="-12" on="0"/>
        <pt x="185" y="-12" on="0"/>
        <pt x="67" y="145" on="0"/>
        <pt x="67" y="545" on="0"/>
      </contour>
      <contour>
        <pt x="444" y="644" on="0"/>
        <pt x="222" y="644" on="0"/>
        <pt x="135" y="513" on="0"/>
        <pt x="135" y="177" on="0"/>
        <pt x="222" y="46" on="0"/>
        <pt x="444" y="46" on="0"/>
        <pt x="530" y="177" on="0"/>
        <pt x="530" y="513" on="0"/>
      </contour>
    </TTGlyph>
    <TTGlyph name="Omega" xMin="53" yMin="0" xMax="665" yMax="702">
      <contour>
        <pt x="53" y="58" on="1"/>
        <pt x="168" y="58" on="1"/>
        <pt x="204" y="58" on="0"/>
        <pt x="233" y="54" on="1"/>
        <pt x="152" y="111" on="0"/>
        <pt x="82" y="255" on="0"/>
        <pt x="82" y="367" on="1"/>
        <pt x="82" y="537" on="0"/>
        <pt x="213" y="702" on="0"/>
        <pt x="359" y="702" on="1"/>
        <pt x="504" y="702" on="0"/>
        <pt x="636" y="536" on="0"/>
        <pt x="636" y="366" on="1"/>
        <pt x="636" y="252" on="0"/>
        <pt x="566" y="110" on="0"/>
        <pt x="485" y="54" on="1"/>
        <pt x="531" y="58" on="0"/>
        <pt x="550" y="58" on="1"/>
        <pt x="665" y="58" on="1"/>
        <pt x="665" y="0" on="1"/>
        <pt x="422" y="0" on="1"/>
        <pt x="422" y="55" on="1"/>
        <pt x="503" y="110" on="0"/>
        <pt x="568" y="249" on="0"/>
        <pt x="569" y="359" on="1"/>
        <pt x="568" y="508" on="0"/>
        <pt x="469" y="644" on="0"/>
        <pt x="359" y="644" on="1"/>
        <pt x="246" y="644" on="0"/>
        <pt x="150" y="509" on="0"/>
        <pt x="150" y="357" on="1"/>
        <pt x="150" y="243" on="0"/>
        <pt x="216" y="114" on="0"/>
        <pt x="296" y="55" on="1"/>
        <pt x="296" y="0" on="1"/>
        <pt x="53" y="0" on="1"/>
      </contour>
    </TTGlyph>
    <TTGlyph name="Oslash" xMin="67" yMin="-55" xMax="599" yMax="747">
      <contour>
        <pt x="531" y="731" on="1"/>
        <pt x="499" y="663" on="1"/>
        <pt x="552" y="627" on="0"/>
        <pt x="599" y="475" on="0"/>
        <pt x="599" y="345" on="1"/>
        <pt x="599" y="145" on="0"/>
        <pt x="481" y="-12" on="0"/>
        <pt x="333" y="-12" on="1"/>
        <pt x="245" y="-12" on="0"/>
        <pt x="194" y="12" on="1"/>
        <pt x="162" y="-55" on="1"/>
        <pt x="125" y="-39" on="1"/>
        <pt x="159" y="33" on="1"/>
        <pt x="110" y="70" on="0"/>
        <pt x="67" y="220" on="0"/>
        <pt x="67" y="345" on="1"/>
        <pt x="67" y="545" on="0"/>
        <pt x="185" y="702" on="0"/>
        <pt x="333" y="702" on="1"/>
        <pt x="413" y="702" on="0"/>
        <pt x="463" y="682" on="1"/>
        <pt x="494" y="747" on="1"/>
      </contour>
      <contour>
        <pt x="189" y="98" on="1"/>
        <pt x="436" y="624" on="1"/>
        <pt x="397" y="644" on="0"/>
        <pt x="333" y="644" on="1"/>
        <pt x="222" y="644" on="0"/>
        <pt x="135" y="513" on="0"/>
        <pt x="135" y="345" on="1"/>
        <pt x="135" y="162" on="0"/>
      </contour>
      <contour>
        <pt x="469" y="600" on="1"/>
        <pt x="221" y="71" on="1"/>
        <pt x="264" y="46" on="0"/>
        <pt x="333" y="46" on="1"/>
        <pt x="444" y="46" on="0"/>
        <pt x="530" y="177" on="0"/>
        <pt x="530" y="345" on="1"/>
        <pt x="530" y="539" on="0"/>
      </contour>
    </TTGlyph>
    <TTGlyph name="Otilde" xMin="67" yMin="-12" xMax="599" yMax="875">
      <contour>
        <pt x="211" y="769" on="1"/>
        <pt x="179" y="769" on="1"/>
        <pt x="175" y="823" on="0"/>
        <pt x="218" y="878" on="0"/>
        <pt x="256" y="875" on="1"/>
        <pt x="287" y="872" on="0"/>
        <pt x="374" y="818" on="0"/>
        <pt x="402" y="815" on="1"/>
        <pt x="431" y="812" on="0"/>
        <pt x="454" y="838" on="0"/>
        <pt x="454" y="870" on="1"/>
        <pt x="486" y="870" on="1"/>
        <pt x="490" y="819" on="0"/>
        <pt x="447" y="765" on="0"/>
        <pt x="409" y="768" on="1"/>
        <pt x="373" y="771" on="0"/>
        <pt x="284" y="826" on="0"/>
        <pt x="262" y="828" on="1"/>
        <pt x="234" y="831" on="0"/>
        <pt x="211" y="803" on="0"/>
      </contour>
      <contour>
        <pt x="185" y="702" on="0"/>
        <pt x="481" y="702" on="0"/>
        <pt x="599" y="545" on="0"/>
        <pt x="599" y="145" on="0"/>
        <pt x="481" y="-12" on="0"/>
        <pt x="185" y="-12" on="0"/>
        <pt x="67" y="145" on="0"/>
        <pt x="67" y="545" on="0"/>
      </contour>
      <contour>
        <pt x="444" y="644" on="0"/>
        <pt x="222" y="644" on="0"/>
        <pt x="135" y="513" on="0"/>
        <pt x="135" y="177" on="0"/>
        <pt x="222" y="46" on="0"/>
        <pt x="444" y="46" on="0"/>
        <pt x="530" y="177" on="0"/>
        <pt x="530" y="513" on="0"/>
      </contour>
    </TTGlyph>
    <TTGlyph name="P" xMin="93" yMin="0" xMax="538" yMax="698">
      <contour>
        <pt x="93" y="0" on="1"/>
        <pt x="93" y="690" on="1"/>
        <pt x="176" y="698" on="0"/>
        <pt x="324" y="698" on="1"/>
        <pt x="445" y="698" on="0"/>
        <pt x="538" y="609" on="0"/>
        <pt x="538" y="365" on="0"/>
        <pt x="447" y="276" on="0"/>
        <pt x="331" y="276" on="1"/>
        <pt x="244" y="276" on="0"/>
        <pt x="158" y="284" on="1"/>
        <pt x="158" y="0" on="1"/>
      </contour>
      <contour>
        <pt x="158" y="333" on="1"/>
        <pt x="323" y="333" on="1"/>
        <pt x="407" y="334" on="0"/>
        <pt x="471" y="397" on="0"/>
        <pt x="471" y="487" on="1"/>
        <pt x="471" y="578" on="0"/>
        <pt x="407" y="642" on="0"/>
        <pt x="323" y="642" on="1"/>
        <pt x="238" y="642" on="0"/>
        <pt x="158" y="640" on="1"/>
      </contour>
    </TTGlyph>
    <TTGlyph name="Q" xMin="67" yMin="-187" xMax="600" yMax="702">
      <contour>
        <pt x="185" y="702" on="0"/>
        <pt x="481" y="702" on="0"/>
        <pt x="600" y="545" on="0"/>
        <pt x="600" y="145" on="0"/>
        <pt x="481" y="-12" on="0"/>
        <pt x="185" y="-12" on="0"/>
        <pt x="67" y="145" on="0"/>
        <pt x="67" y="545" on="0"/>
      </contour>
      <contour>
        <pt x="444" y="644" on="0"/>
        <pt x="222" y="644" on="0"/>
        <pt x="136" y="513" on="0"/>
        <pt x="136" y="177" on="0"/>
        <pt x="222" y="46" on="0"/>
        <pt x="444" y="46" on="0"/>
        <pt x="531" y="177" on="0"/>
        <pt x="531" y="513" on="0"/>
      </contour>
      <contour>
        <pt x="275" y="-85" on="1"/>
        <pt x="295" y="-46" on="1"/>
        <pt x="402" y="-100" on="0"/>
        <pt x="546" y="-121" on="1"/>
        <pt x="525" y="-187" on="1"/>
        <pt x="390" y="-162" on="0"/>
      </contour>
    </TTGlyph>
    <TTGlyph name="R" xMin="93" yMin="0" xMax="564" yMax="698">
      <contour>
        <pt x="564" y="0" on="1"/>
        <pt x="494" y="0" on="1"/>
        <pt x="428" y="217" on="1"/>
        <pt x="400" y="296" on="0"/>
        <pt x="329" y="296" on="1"/>
        <pt x="238" y="296" on="0"/>
        <pt x="158" y="298" on="1"/>
        <pt x="158" y="0" on="1"/>
        <pt x="93" y="0" on="1"/>
        <pt x="93" y="690" on="1"/>
        <pt x="176" y="698" on="0"/>
        <pt x="324" y="698" on="1"/>
        <pt x="443" y="698" on="0"/>
        <pt x="539" y="615" on="0"/>
        <pt x="539" y="501" on="1"/>
        <pt x="539" y="414" on="0"/>
        <pt x="480" y="331" on="0"/>
        <pt x="412" y="321" on="1"/>
        <pt x="412" y="317" on="1"/>
        <pt x="471" y="300" on="0"/>
        <pt x="494" y="219" on="1"/>
      </contour>
      <contour>
        <pt x="158" y="353" on="1"/>
        <pt x="324" y="353" on="1"/>
        <pt x="408" y="354" on="0"/>
        <pt x="473" y="415" on="0"/>
        <pt x="473" y="498" on="1"/>
        <pt x="473" y="582" on="0"/>
        <pt x="408" y="642" on="0"/>
        <pt x="324" y="642" on="1"/>
        <pt x="238" y="642" on="0"/>
        <pt x="158" y="640" on="1"/>
      </contour>
    </TTGlyph>
    <TTGlyph name="Racute" xMin="93" yMin="0" xMax="564" yMax="907">
      <contour>
        <pt x="268" y="731" on="1"/>
        <pt x="244" y="761" on="1"/>
        <pt x="408" y="907" on="1"/>
        <pt x="446" y="859" on="1"/>
      </contour>
      <contour>
        <pt x="564" y="0" on="1"/>
        <pt x="494" y="0" on="1"/>
        <pt x="428" y="217" on="1"/>
        <pt x="400" y="296" on="0"/>
        <pt x="329" y="296" on="1"/>
        <pt x="238" y="296" on="0"/>
        <pt x="158" y="298" on="1"/>
        <pt x="158" y="0" on="1"/>
        <pt x="93" y="0" on="1"/>
        <pt x="93" y="690" on="1"/>
        <pt x="176" y="698" on="0"/>
        <pt x="324" y="698" on="1"/>
        <pt x="443" y="698" on="0"/>
        <pt x="539" y="615" on="0"/>
        <pt x="539" y="501" on="1"/>
        <pt x="539" y="414" on="0"/>
        <pt x="480" y="331" on="0"/>
        <pt x="412" y="321" on="1"/>
        <pt x="412" y="317" on="1"/>
        <pt x="471" y="300" on="0"/>
        <pt x="494" y="219" on="1"/>
      </contour>
      <contour>
        <pt x="158" y="353" on="1"/>
        <pt x="324" y="353" on="1"/>
        <pt x="408" y="354" on="0"/>
        <pt x="473" y="415" on="0"/>
        <pt x="473" y="498" on="1"/>
        <pt x="473" y="582" on="0"/>
        <pt x="408" y="642" on="0"/>
        <pt x="324" y="642" on="1"/>
        <pt x="238" y="642" on="0"/>
        <pt x="158" y="640" on="1"/>
      </contour>
    </TTGlyph>
    <TTGlyph name="Rcaron" xMin="93" yMin="0" xMax="564" yMax="898">
      <contour>
        <pt x="288" y="746" on="1"/>
        <pt x="147" y="870" on="1"/>
        <pt x="170" y="898" on="1"/>
        <pt x="300" y="805" on="1"/>
        <pt x="308" y="805" on="1"/>
        <pt x="437" y="898" on="1"/>
        <pt x="461" y="870" on="1"/>
        <pt x="320" y="746" on="1"/>
      </contour>
      <contour>
        <pt x="564" y="0" on="1"/>
        <pt x="494" y="0" on="1"/>
        <pt x="428" y="217" on="1"/>
        <pt x="400" y="296" on="0"/>
        <pt x="329" y="296" on="1"/>
        <pt x="238" y="296" on="0"/>
        <pt x="158" y="298" on="1"/>
        <pt x="158" y="0" on="1"/>
        <pt x="93" y="0" on="1"/>
        <pt x="93" y="690" on="1"/>
        <pt x="176" y="698" on="0"/>
        <pt x="324" y="698" on="1"/>
        <pt x="443" y="698" on="0"/>
        <pt x="539" y="615" on="0"/>
        <pt x="539" y="501" on="1"/>
        <pt x="539" y="414" on="0"/>
        <pt x="480" y="331" on="0"/>
        <pt x="412" y="321" on="1"/>
        <pt x="412" y="317" on="1"/>
        <pt x="471" y="300" on="0"/>
        <pt x="494" y="219" on="1"/>
      </contour>
      <contour>
        <pt x="158" y="353" on="1"/>
        <pt x="324" y="353" on="1"/>
        <pt x="408" y="354" on="0"/>
        <pt x="473" y="415" on="0"/>
        <pt x="473" y="498" on="1"/>
        <pt x="473" y="582" on="0"/>
        <pt x="408" y="642" on="0"/>
        <pt x="324" y="642" on="1"/>
        <pt x="238" y="642" on="0"/>
        <pt x="158" y="640" on="1"/>
      </contour>
    </TTGlyph>
    <TTGlyph name="Rcommaaccent" xMin="93" yMin="-265" xMax="564" yMax="698">
      <contour>
        <pt x="564" y="0" on="1"/>
        <pt x="494" y="0" on="1"/>
        <pt x="428" y="217" on="1"/>
        <pt x="400" y="296" on="0"/>
        <pt x="329" y="296" on="1"/>
        <pt x="238" y="296" on="0"/>
        <pt x="158" y="298" on="1"/>
        <pt x="158" y="0" on="1"/>
        <pt x="93" y="0" on="1"/>
        <pt x="93" y="690" on="1"/>
        <pt x="176" y="698" on="0"/>
        <pt x="324" y="698" on="1"/>
        <pt x="443" y="698" on="0"/>
        <pt x="539" y="615" on="0"/>
        <pt x="539" y="501" on="1"/>
        <pt x="539" y="414" on="0"/>
        <pt x="480" y="331" on="0"/>
        <pt x="412" y="321" on="1"/>
        <pt x="412" y="317" on="1"/>
        <pt x="471" y="300" on="0"/>
        <pt x="494" y="219" on="1"/>
      </contour>
      <contour>
        <pt x="158" y="353" on="1"/>
        <pt x="324" y="353" on="1"/>
        <pt x="408" y="354" on="0"/>
        <pt x="473" y="415" on="0"/>
        <pt x="473" y="498" on="1"/>
        <pt x="473" y="582" on="0"/>
        <pt x="408" y="642" on="0"/>
        <pt x="324" y="642" on="1"/>
        <pt x="238" y="642" on="0"/>
        <pt x="158" y="640" on="1"/>
      </contour>
      <contour>
        <pt x="320" y="-60" on="1"/>
        <pt x="337" y="-60" on="1"/>
        <pt x="359" y="-60" on="0"/>
        <pt x="359" y="-82" on="1"/>
        <pt x="359" y="-138" on="1"/>
        <pt x="357" y="-207" on="0"/>
        <pt x="333" y="-265" on="1"/>
        <pt x="305" y="-256" on="1"/>
        <pt x="312" y="-207" on="0"/>
        <pt x="312" y="-154" on="1"/>
        <pt x="295" y="-154" on="0"/>
        <pt x="297" y="-135" on="1"/>
        <pt x="297" y="-82" on="1"/>
        <pt x="297" y="-60" on="0"/>
      </contour>
    </TTGlyph>
    <TTGlyph name="S" xMin="59" yMin="-11" xMax="504" yMax="701">
      <contour>
        <pt x="341" y="304" on="1"/>
        <pt x="194" y="335" on="1"/>
        <pt x="121" y="350" on="0"/>
        <pt x="59" y="439" on="0"/>
        <pt x="59" y="522" on="1"/>
        <pt x="59" y="582" on="0"/>
        <pt x="83" y="655" on="0"/>
        <pt x="143" y="691" on="0"/>
        <pt x="215" y="702" on="0"/>
        <pt x="277" y="701" on="1"/>
        <pt x="388" y="701" on="0"/>
        <pt x="476" y="685" on="1"/>
        <pt x="471" y="637" on="1"/>
        <pt x="353" y="643" on="0"/>
        <pt x="280" y="643" on="1"/>
        <pt x="231" y="643" on="0"/>
        <pt x="185" y="638" on="0"/>
        <pt x="140" y="614" on="0"/>
        <pt x="125" y="564" on="0"/>
        <pt x="125" y="520" on="1"/>
        <pt x="125" y="458" on="0"/>
        <pt x="168" y="403" on="0"/>
        <pt x="220" y="393" on="1"/>
        <pt x="364" y="363" on="1"/>
        <pt x="441" y="348" on="0"/>
        <pt x="504" y="259" on="0"/>
        <pt x="504" y="174" on="1"/>
        <pt x="504" y="114" on="0"/>
        <pt x="478" y="40" on="0"/>
        <pt x="418" y="2" on="0"/>
        <pt x="342" y="-11" on="0"/>
        <pt x="280" y="-11" on="1"/>
        <pt x="166" y="-11" on="0"/>
        <pt x="70" y="4" on="1"/>
        <pt x="74" y="53" on="1"/>
        <pt x="198" y="47" on="0"/>
        <pt x="282" y="47" on="1"/>
        <pt x="373" y="48" on="0"/>
        <pt x="437" y="96" on="0"/>
        <pt x="437" y="175" on="1"/>
        <pt x="437" y="240" on="0"/>
        <pt x="394" y="294" on="0"/>
      </contour>
    </TTGlyph>
    <TTGlyph name="Sacute" xMin="59" yMin="-11" xMax="504" yMax="907">
      <contour>
        <pt x="422" y="859" on="1"/>
        <pt x="244" y="731" on="1"/>
        <pt x="220" y="761" on="1"/>
        <pt x="384" y="907" on="1"/>
      </contour>
      <contour>
        <pt x="341" y="304" on="1"/>
        <pt x="194" y="335" on="1"/>
        <pt x="121" y="350" on="0"/>
        <pt x="59" y="439" on="0"/>
        <pt x="59" y="522" on="1"/>
        <pt x="59" y="582" on="0"/>
        <pt x="83" y="655" on="0"/>
        <pt x="143" y="691" on="0"/>
        <pt x="215" y="702" on="0"/>
        <pt x="277" y="701" on="1"/>
        <pt x="388" y="701" on="0"/>
        <pt x="476" y="685" on="1"/>
        <pt x="471" y="637" on="1"/>
        <pt x="353" y="643" on="0"/>
        <pt x="280" y="643" on="1"/>
        <pt x="231" y="643" on="0"/>
        <pt x="185" y="638" on="0"/>
        <pt x="140" y="614" on="0"/>
        <pt x="125" y="564" on="0"/>
        <pt x="125" y="520" on="1"/>
        <pt x="125" y="458" on="0"/>
        <pt x="168" y="403" on="0"/>
        <pt x="220" y="393" on="1"/>
        <pt x="364" y="363" on="1"/>
        <pt x="441" y="348" on="0"/>
        <pt x="504" y="259" on="0"/>
        <pt x="504" y="174" on="1"/>
        <pt x="504" y="114" on="0"/>
        <pt x="478" y="40" on="0"/>
        <pt x="418" y="2" on="0"/>
        <pt x="342" y="-11" on="0"/>
        <pt x="280" y="-11" on="1"/>
        <pt x="166" y="-11" on="0"/>
        <pt x="70" y="4" on="1"/>
        <pt x="74" y="53" on="1"/>
        <pt x="198" y="47" on="0"/>
        <pt x="282" y="47" on="1"/>
        <pt x="373" y="48" on="0"/>
        <pt x="437" y="96" on="0"/>
        <pt x="437" y="175" on="1"/>
        <pt x="437" y="240" on="0"/>
        <pt x="394" y="294" on="0"/>
      </contour>
    </TTGlyph>
    <TTGlyph name="Scaron" xMin="59" yMin="-11" xMax="504" yMax="898">
      <contour>
        <pt x="437" y="870" on="1"/>
        <pt x="296" y="746" on="1"/>
        <pt x="264" y="746" on="1"/>
        <pt x="123" y="870" on="1"/>
        <pt x="147" y="898" on="1"/>
        <pt x="276" y="805" on="1"/>
        <pt x="284" y="805" on="1"/>
        <pt x="414" y="898" on="1"/>
      </contour>
      <contour>
        <pt x="341" y="304" on="1"/>
        <pt x="194" y="335" on="1"/>
        <pt x="121" y="350" on="0"/>
        <pt x="59" y="439" on="0"/>
        <pt x="59" y="522" on="1"/>
        <pt x="59" y="582" on="0"/>
        <pt x="83" y="655" on="0"/>
        <pt x="143" y="691" on="0"/>
        <pt x="215" y="702" on="0"/>
        <pt x="277" y="701" on="1"/>
        <pt x="388" y="701" on="0"/>
        <pt x="476" y="685" on="1"/>
        <pt x="471" y="637" on="1"/>
        <pt x="353" y="643" on="0"/>
        <pt x="280" y="643" on="1"/>
        <pt x="231" y="643" on="0"/>
        <pt x="185" y="638" on="0"/>
        <pt x="140" y="614" on="0"/>
        <pt x="125" y="564" on="0"/>
        <pt x="125" y="520" on="1"/>
        <pt x="125" y="458" on="0"/>
        <pt x="168" y="403" on="0"/>
        <pt x="220" y="393" on="1"/>
        <pt x="364" y="363" on="1"/>
        <pt x="441" y="348" on="0"/>
        <pt x="504" y="259" on="0"/>
        <pt x="504" y="174" on="1"/>
        <pt x="504" y="114" on="0"/>
        <pt x="478" y="40" on="0"/>
        <pt x="418" y="2" on="0"/>
        <pt x="342" y="-11" on="0"/>
        <pt x="280" y="-11" on="1"/>
        <pt x="166" y="-11" on="0"/>
        <pt x="70" y="4" on="1"/>
        <pt x="74" y="53" on="1"/>
        <pt x="198" y="47" on="0"/>
        <pt x="282" y="47" on="1"/>
        <pt x="373" y="48" on="0"/>
        <pt x="437" y="96" on="0"/>
        <pt x="437" y="175" on="1"/>
        <pt x="437" y="240" on="0"/>
        <pt x="394" y="294" on="0"/>
      </contour>
    </TTGlyph>
    <TTGlyph name="Scedilla" xMin="59" yMin="-237" xMax="504" yMax="701">
      <contour>
        <pt x="341" y="304" on="1"/>
        <pt x="194" y="335" on="1"/>
        <pt x="121" y="350" on="0"/>
        <pt x="59" y="439" on="0"/>
        <pt x="59" y="522" on="1"/>
        <pt x="59" y="582" on="0"/>
        <pt x="83" y="655" on="0"/>
        <pt x="143" y="691" on="0"/>
        <pt x="215" y="702" on="0"/>
        <pt x="277" y="701" on="1"/>
        <pt x="388" y="701" on="0"/>
        <pt x="476" y="685" on="1"/>
        <pt x="471" y="637" on="1"/>
        <pt x="353" y="643" on="0"/>
        <pt x="280" y="643" on="1"/>
        <pt x="231" y="643" on="0"/>
        <pt x="185" y="638" on="0"/>
        <pt x="140" y="614" on="0"/>
        <pt x="125" y="564" on="0"/>
        <pt x="125" y="520" on="1"/>
        <pt x="125" y="458" on="0"/>
        <pt x="168" y="403" on="0"/>
        <pt x="220" y="393" on="1"/>
        <pt x="364" y="363" on="1"/>
        <pt x="441" y="348" on="0"/>
        <pt x="504" y="259" on="0"/>
        <pt x="504" y="174" on="1"/>
        <pt x="504" y="114" on="0"/>
        <pt x="478" y="40" on="0"/>
        <pt x="418" y="2" on="0"/>
        <pt x="342" y="-11" on="0"/>
        <pt x="280" y="-11" on="1"/>
        <pt x="166" y="-11" on="0"/>
        <pt x="70" y="4" on="1"/>
        <pt x="74" y="53" on="1"/>
        <pt x="198" y="47" on="0"/>
        <pt x="282" y="47" on="1"/>
        <pt x="373" y="48" on="0"/>
        <pt x="437" y="96" on="0"/>
        <pt x="437" y="175" on="1"/>
        <pt x="437" y="240" on="0"/>
        <pt x="394" y="294" on="0"/>
      </contour>
      <contour>
        <pt x="238" y="-88" on="1"/>
        <pt x="245" y="-57" on="1"/>
        <pt x="298" y="-52" on="0"/>
        <pt x="346" y="-81" on="0"/>
        <pt x="345" y="-122" on="1"/>
        <pt x="343" y="-181" on="0"/>
        <pt x="256" y="-246" on="0"/>
        <pt x="187" y="-237" on="1"/>
        <pt x="197" y="-203" on="1"/>
        <pt x="242" y="-204" on="0"/>
        <pt x="296" y="-160" on="0"/>
        <pt x="297" y="-126" on="1"/>
        <pt x="298" y="-104" on="0"/>
        <pt x="273" y="-88" on="0"/>
      </contour>
    </TTGlyph>
    <TTGlyph name="Scommaaccent" xMin="59" yMin="-265" xMax="504" yMax="701">
      <contour>
        <pt x="341" y="304" on="1"/>
        <pt x="194" y="335" on="1"/>
        <pt x="121" y="350" on="0"/>
        <pt x="59" y="439" on="0"/>
        <pt x="59" y="522" on="1"/>
        <pt x="59" y="582" on="0"/>
        <pt x="83" y="655" on="0"/>
        <pt x="143" y="691" on="0"/>
        <pt x="215" y="702" on="0"/>
        <pt x="277" y="701" on="1"/>
        <pt x="388" y="701" on="0"/>
        <pt x="476" y="685" on="1"/>
        <pt x="471" y="637" on="1"/>
        <pt x="353" y="643" on="0"/>
        <pt x="280" y="643" on="1"/>
        <pt x="231" y="643" on="0"/>
        <pt x="185" y="638" on="0"/>
        <pt x="140" y="614" on="0"/>
        <pt x="125" y="564" on="0"/>
        <pt x="125" y="520" on="1"/>
        <pt x="125" y="458" on="0"/>
        <pt x="168" y="403" on="0"/>
        <pt x="220" y="393" on="1"/>
        <pt x="364" y="363" on="1"/>
        <pt x="441" y="348" on="0"/>
        <pt x="504" y="259" on="0"/>
        <pt x="504" y="174" on="1"/>
        <pt x="504" y="114" on="0"/>
        <pt x="478" y="40" on="0"/>
        <pt x="418" y="2" on="0"/>
        <pt x="342" y="-11" on="0"/>
        <pt x="280" y="-11" on="1"/>
        <pt x="166" y="-11" on="0"/>
        <pt x="70" y="4" on="1"/>
        <pt x="74" y="53" on="1"/>
        <pt x="198" y="47" on="0"/>
        <pt x="282" y="47" on="1"/>
        <pt x="373" y="48" on="0"/>
        <pt x="437" y="96" on="0"/>
        <pt x="437" y="175" on="1"/>
        <pt x="437" y="240" on="0"/>
        <pt x="394" y="294" on="0"/>
      </contour>
      <contour>
        <pt x="279" y="-60" on="1"/>
        <pt x="297" y="-60" on="1"/>
        <pt x="319" y="-60" on="0"/>
        <pt x="319" y="-82" on="1"/>
        <pt x="319" y="-138" on="1"/>
        <pt x="317" y="-207" on="0"/>
        <pt x="293" y="-265" on="1"/>
        <pt x="265" y="-256" on="1"/>
        <pt x="272" y="-207" on="0"/>
        <pt x="272" y="-154" on="1"/>
        <pt x="256" y="-154" on="0"/>
        <pt x="256" y="-135" on="1"/>
        <pt x="256" y="-82" on="1"/>
        <pt x="257" y="-60" on="0"/>
      </contour>
    </TTGlyph>
    <TTGlyph name="T" xMin="25" yMin="0" xMax="550" yMax="690">
      <contour>
        <pt x="550" y="632" on="1"/>
        <pt x="320" y="632" on="1"/>
        <pt x="320" y="0" on="1"/>
        <pt x="254" y="0" on="1"/>
        <pt x="254" y="632" on="1"/>
        <pt x="25" y="632" on="1"/>
        <pt x="25" y="690" on="1"/>
        <pt x="550" y="690" on="1"/>
      </contour>
    </TTGlyph>
    <TTGlyph name="Tbar" xMin="25" yMin="0" xMax="550" yMax="690">
      <contour>
        <pt x="320" y="632" on="1"/>
        <pt x="320" y="422" on="1"/>
        <pt x="463" y="422" on="1"/>
        <pt x="463" y="383" on="1"/>
        <pt x="320" y="383" on="1"/>
        <pt x="320" y="0" on="1"/>
        <pt x="254" y="0" on="1"/>
        <pt x="254" y="383" on="1"/>
        <pt x="108" y="383" on="1"/>
        <pt x="108" y="422" on="1"/>
        <pt x="254" y="422" on="1"/>
        <pt x="254" y="632" on="1"/>
        <pt x="25" y="632" on="1"/>
        <pt x="25" y="690" on="1"/>
        <pt x="550" y="690" on="1"/>
        <pt x="550" y="632" on="1"/>
      </contour>
    </TTGlyph>
    <TTGlyph name="Tcaron" xMin="25" yMin="0" xMax="550" yMax="898">
      <contour>
        <pt x="273" y="746" on="1"/>
        <pt x="132" y="870" on="1"/>
        <pt x="155" y="898" on="1"/>
        <pt x="285" y="805" on="1"/>
        <pt x="293" y="805" on="1"/>
        <pt x="422" y="898" on="1"/>
        <pt x="446" y="870" on="1"/>
        <pt x="305" y="746" on="1"/>
      </contour>
      <contour>
        <pt x="550" y="632" on="1"/>
        <pt x="320" y="632" on="1"/>
        <pt x="320" y="0" on="1"/>
        <pt x="254" y="0" on="1"/>
        <pt x="254" y="632" on="1"/>
        <pt x="25" y="632" on="1"/>
        <pt x="25" y="690" on="1"/>
        <pt x="550" y="690" on="1"/>
      </contour>
    </TTGlyph>
    <TTGlyph name="Tcedilla" xMin="25" yMin="-226" xMax="550" yMax="690">
      <contour>
        <pt x="550" y="690" on="1"/>
        <pt x="550" y="632" on="1"/>
        <pt x="320" y="632" on="1"/>
        <pt x="320" y="0" on="1"/>
        <pt x="254" y="0" on="1"/>
        <pt x="254" y="632" on="1"/>
        <pt x="25" y="632" on="1"/>
        <pt x="25" y="690" on="1"/>
      </contour>
      <contour>
        <pt x="241" y="-76" on="1"/>
        <pt x="247" y="-45" on="1"/>
        <pt x="300" y="-40" on="0"/>
        <pt x="348" y="-69" on="0"/>
        <pt x="347" y="-110" on="1"/>
        <pt x="345" y="-170" on="0"/>
        <pt x="258" y="-235" on="0"/>
        <pt x="190" y="-226" on="1"/>
        <pt x="200" y="-191" on="1"/>
        <pt x="244" y="-192" on="0"/>
        <pt x="299" y="-148" on="0"/>
        <pt x="300" y="-114" on="1"/>
        <pt x="300" y="-93" on="0"/>
        <pt x="275" y="-77" on="0"/>
      </contour>
    </TTGlyph>
    <TTGlyph name="Thorn" xMin="93" yMin="0" xMax="538" yMax="690">
      <contour>
        <pt x="158" y="690" on="1"/>
        <pt x="158" y="560" on="1"/>
        <pt x="204" y="563" on="0"/>
        <pt x="324" y="563" on="1"/>
        <pt x="445" y="563" on="0"/>
        <pt x="538" y="474" on="0"/>
        <pt x="538" y="226" on="0"/>
        <pt x="447" y="138" on="0"/>
        <pt x="331" y="138" on="1"/>
        <pt x="233" y="138" on="0"/>
        <pt x="158" y="145" on="1"/>
        <pt x="158" y="0" on="1"/>
        <pt x="93" y="0" on="1"/>
        <pt x="93" y="555" on="1"/>
        <pt x="93" y="690" on="1"/>
      </contour>
      <contour>
        <pt x="158" y="195" on="1"/>
        <pt x="323" y="195" on="1"/>
        <pt x="407" y="196" on="0"/>
        <pt x="471" y="259" on="0"/>
        <pt x="471" y="350" on="1"/>
        <pt x="471" y="442" on="0"/>
        <pt x="407" y="506" on="0"/>
        <pt x="323" y="506" on="1"/>
        <pt x="199" y="506" on="0"/>
        <pt x="158" y="505" on="1"/>
      </contour>
    </TTGlyph>
    <TTGlyph name="U" xMin="88" yMin="-12" xMax="579" yMax="690">
      <contour>
        <pt x="579" y="690" on="1"/>
        <pt x="579" y="261" on="1"/>
        <pt x="579" y="112" on="0"/>
        <pt x="469" y="-12" on="0"/>
        <pt x="336" y="-12" on="1"/>
        <pt x="200" y="-12" on="0"/>
        <pt x="88" y="112" on="0"/>
        <pt x="88" y="261" on="1"/>
        <pt x="88" y="690" on="1"/>
        <pt x="153" y="690" on="1"/>
        <pt x="153" y="261" on="1"/>
        <pt x="153" y="142" on="0"/>
        <pt x="234" y="46" on="0"/>
        <pt x="334" y="46" on="1"/>
        <pt x="433" y="46" on="0"/>
        <pt x="513" y="142" on="0"/>
        <pt x="513" y="261" on="1"/>
        <pt x="513" y="690" on="1"/>
      </contour>
    </TTGlyph>
    <TTGlyph name="Uacute" xMin="88" yMin="-12" xMax="579" yMax="907">
      <contour>
        <pt x="477" y="859" on="1"/>
        <pt x="299" y="731" on="1"/>
        <pt x="275" y="761" on="1"/>
        <pt x="439" y="907" on="1"/>
      </contour>
      <contour>
        <pt x="579" y="690" on="1"/>
        <pt x="579" y="261" on="1"/>
        <pt x="579" y="112" on="0"/>
        <pt x="469" y="-12" on="0"/>
        <pt x="336" y="-12" on="1"/>
        <pt x="200" y="-12" on="0"/>
        <pt x="88" y="112" on="0"/>
        <pt x="88" y="261" on="1"/>
        <pt x="88" y="690" on="1"/>
        <pt x="153" y="690" on="1"/>
        <pt x="153" y="261" on="1"/>
        <pt x="153" y="142" on="0"/>
        <pt x="234" y="46" on="0"/>
        <pt x="334" y="46" on="1"/>
        <pt x="433" y="46" on="0"/>
        <pt x="513" y="142" on="0"/>
        <pt x="513" y="261" on="1"/>
        <pt x="513" y="690" on="1"/>
      </contour>
    </TTGlyph>
    <TTGlyph name="Ucircumflex" xMin="88" yMin="-12" xMax="579" yMax="891">
      <contour>
        <pt x="491" y="767" on="1"/>
        <pt x="467" y="739" on="1"/>
        <pt x="338" y="838" on="1"/>
        <pt x="330" y="838" on="1"/>
        <pt x="200" y="739" on="1"/>
        <pt x="178" y="767" on="1"/>
        <pt x="311" y="891" on="1"/>
        <pt x="357" y="891" on="1"/>
      </contour>
      <contour>
        <pt x="579" y="690" on="1"/>
        <pt x="579" y="261" on="1"/>
        <pt x="579" y="112" on="0"/>
        <pt x="469" y="-12" on="0"/>
        <pt x="336" y="-12" on="1"/>
        <pt x="200" y="-12" on="0"/>
        <pt x="88" y="112" on="0"/>
        <pt x="88" y="261" on="1"/>
        <pt x="88" y="690" on="1"/>
        <pt x="153" y="690" on="1"/>
        <pt x="153" y="261" on="1"/>
        <pt x="153" y="142" on="0"/>
        <pt x="234" y="46" on="0"/>
        <pt x="334" y="46" on="1"/>
        <pt x="433" y="46" on="0"/>
        <pt x="513" y="142" on="0"/>
        <pt x="513" y="261" on="1"/>
        <pt x="513" y="690" on="1"/>
      </contour>
    </TTGlyph>
    <TTGlyph name="Udieresis" xMin="88" yMin="-12" xMax="579" yMax="865">
      <contour>
        <pt x="234" y="865" on="1"/>
        <pt x="257" y="865" on="1"/>
        <pt x="275" y="865" on="0"/>
        <pt x="275" y="845" on="1"/>
        <pt x="275" y="790" on="1"/>
        <pt x="275" y="771" on="0"/>
        <pt x="257" y="771" on="1"/>
        <pt x="234" y="771" on="1"/>
        <pt x="216" y="771" on="0"/>
        <pt x="216" y="790" on="1"/>
        <pt x="216" y="845" on="1"/>
        <pt x="216" y="865" on="0"/>
      </contour>
      <contour>
        <pt x="412" y="865" on="1"/>
        <pt x="434" y="865" on="1"/>
        <pt x="453" y="865" on="0"/>
        <pt x="453" y="845" on="1"/>
        <pt x="453" y="790" on="1"/>
        <pt x="453" y="771" on="0"/>
        <pt x="434" y="771" on="1"/>
        <pt x="412" y="771" on="1"/>
        <pt x="393" y="771" on="0"/>
        <pt x="393" y="790" on="1"/>
        <pt x="393" y="845" on="1"/>
        <pt x="393" y="865" on="0"/>
      </contour>
      <contour>
        <pt x="579" y="690" on="1"/>
        <pt x="579" y="261" on="1"/>
        <pt x="579" y="112" on="0"/>
        <pt x="469" y="-12" on="0"/>
        <pt x="336" y="-12" on="1"/>
        <pt x="200" y="-12" on="0"/>
        <pt x="88" y="112" on="0"/>
        <pt x="88" y="261" on="1"/>
        <pt x="88" y="690" on="1"/>
        <pt x="153" y="690" on="1"/>
        <pt x="153" y="261" on="1"/>
        <pt x="153" y="142" on="0"/>
        <pt x="234" y="46" on="0"/>
        <pt x="334" y="46" on="1"/>
        <pt x="433" y="46" on="0"/>
        <pt x="513" y="142" on="0"/>
        <pt x="513" y="261" on="1"/>
        <pt x="513" y="690" on="1"/>
      </contour>
    </TTGlyph>
    <TTGlyph name="Ugrave" xMin="88" yMin="-12" xMax="579" yMax="907">
      <contour>
        <pt x="380" y="761" on="1"/>
        <pt x="357" y="731" on="1"/>
        <pt x="179" y="859" on="1"/>
        <pt x="216" y="907" on="1"/>
      </contour>
      <contour>
        <pt x="579" y="690" on="1"/>
        <pt x="579" y="261" on="1"/>
        <pt x="579" y="112" on="0"/>
        <pt x="469" y="-12" on="0"/>
        <pt x="336" y="-12" on="1"/>
        <pt x="200" y="-12" on="0"/>
        <pt x="88" y="112" on="0"/>
        <pt x="88" y="261" on="1"/>
        <pt x="88" y="690" on="1"/>
        <pt x="153" y="690" on="1"/>
        <pt x="153" y="261" on="1"/>
        <pt x="153" y="142" on="0"/>
        <pt x="234" y="46" on="0"/>
        <pt x="334" y="46" on="1"/>
        <pt x="433" y="46" on="0"/>
        <pt x="513" y="142" on="0"/>
        <pt x="513" y="261" on="1"/>
        <pt x="513" y="690" on="1"/>
      </contour>
    </TTGlyph>
    <TTGlyph name="Uhungarumlaut" xMin="88" yMin="-12" xMax="579" yMax="916">
      <contour>
        <pt x="374" y="883" on="1"/>
        <pt x="245" y="726" on="1"/>
        <pt x="215" y="748" on="1"/>
        <pt x="326" y="916" on="1"/>
      </contour>
      <contour>
        <pt x="529" y="883" on="1"/>
        <pt x="401" y="726" on="1"/>
        <pt x="371" y="748" on="1"/>
        <pt x="481" y="916" on="1"/>
      </contour>
      <contour>
        <pt x="579" y="690" on="1"/>
        <pt x="579" y="261" on="1"/>
        <pt x="579" y="112" on="0"/>
        <pt x="469" y="-12" on="0"/>
        <pt x="336" y="-12" on="1"/>
        <pt x="200" y="-12" on="0"/>
        <pt x="88" y="112" on="0"/>
        <pt x="88" y="261" on="1"/>
        <pt x="88" y="690" on="1"/>
        <pt x="153" y="690" on="1"/>
        <pt x="153" y="261" on="1"/>
        <pt x="153" y="142" on="0"/>
        <pt x="234" y="46" on="0"/>
        <pt x="334" y="46" on="1"/>
        <pt x="433" y="46" on="0"/>
        <pt x="513" y="142" on="0"/>
        <pt x="513" y="261" on="1"/>
        <pt x="513" y="690" on="1"/>
      </contour>
    </TTGlyph>
    <TTGlyph name="Umacron" xMin="88" yMin="-12" xMax="579" yMax="841">
      <contour>
        <pt x="471" y="792" on="1"/>
        <pt x="198" y="792" on="1"/>
        <pt x="198" y="841" on="1"/>
        <pt x="471" y="841" on="1"/>
      </contour>
      <contour>
        <pt x="579" y="690" on="1"/>
        <pt x="579" y="261" on="1"/>
        <pt x="579" y="112" on="0"/>
        <pt x="469" y="-12" on="0"/>
        <pt x="336" y="-12" on="1"/>
        <pt x="200" y="-12" on="0"/>
        <pt x="88" y="112" on="0"/>
        <pt x="88" y="261" on="1"/>
        <pt x="88" y="690" on="1"/>
        <pt x="153" y="690" on="1"/>
        <pt x="153" y="261" on="1"/>
        <pt x="153" y="142" on="0"/>
        <pt x="234" y="46" on="0"/>
        <pt x="334" y="46" on="1"/>
        <pt x="433" y="46" on="0"/>
        <pt x="513" y="142" on="0"/>
        <pt x="513" y="261" on="1"/>
        <pt x="513" y="690" on="1"/>
      </contour>
    </TTGlyph>
    <TTGlyph name="Uogonek" xMin="88" yMin="-211" xMax="579" yMax="690">
      <contour>
        <pt x="579" y="690" on="1"/>
        <pt x="579" y="261" on="1"/>
        <pt x="579" y="122" on="0"/>
        <pt x="484" y="-4" on="0"/>
        <pt x="372" y="-11" on="1"/>
        <pt x="317" y="-72" on="0"/>
        <pt x="295" y="-127" on="1"/>
        <pt x="280" y="-167" on="0"/>
        <pt x="328" y="-193" on="0"/>
        <pt x="379" y="-175" on="1"/>
        <pt x="386" y="-203" on="1"/>
        <pt x="300" y="-236" on="0"/>
        <pt x="229" y="-185" on="0"/>
        <pt x="249" y="-129" on="1"/>
        <pt x="269" y="-70" on="0"/>
        <pt x="336" y="-12" on="1"/>
        <pt x="200" y="-12" on="0"/>
        <pt x="88" y="112" on="0"/>
        <pt x="88" y="261" on="1"/>
        <pt x="88" y="690" on="1"/>
        <pt x="153" y="690" on="1"/>
        <pt x="153" y="261" on="1"/>
        <pt x="153" y="142" on="0"/>
        <pt x="234" y="46" on="0"/>
        <pt x="334" y="46" on="1"/>
        <pt x="433" y="46" on="0"/>
        <pt x="513" y="142" on="0"/>
        <pt x="513" y="261" on="1"/>
        <pt x="513" y="690" on="1"/>
      </contour>
    </TTGlyph>
    <TTGlyph name="Uring" xMin="88" yMin="-12" xMax="579" yMax="919">
      <contour>
        <pt x="335" y="919" on="1"/>
        <pt x="377" y="919" on="0"/>
        <pt x="438" y="859" on="0"/>
        <pt x="438" y="775" on="0"/>
        <pt x="377" y="716" on="0"/>
        <pt x="335" y="716" on="1"/>
        <pt x="291" y="716" on="0"/>
        <pt x="232" y="774" on="0"/>
        <pt x="232" y="860" on="0"/>
        <pt x="292" y="919" on="0"/>
      </contour>
      <contour>
        <pt x="335" y="884" on="1"/>
        <pt x="306" y="884" on="0"/>
        <pt x="269" y="847" on="0"/>
        <pt x="269" y="817" on="1"/>
        <pt x="269" y="788" on="0"/>
        <pt x="307" y="751" on="0"/>
        <pt x="335" y="751" on="1"/>
        <pt x="362" y="751" on="0"/>
        <pt x="400" y="788" on="0"/>
        <pt x="400" y="846" on="0"/>
        <pt x="362" y="884" on="0"/>
      </contour>
      <contour>
        <pt x="579" y="690" on="1"/>
        <pt x="579" y="261" on="1"/>
        <pt x="579" y="112" on="0"/>
        <pt x="469" y="-12" on="0"/>
        <pt x="336" y="-12" on="1"/>
        <pt x="200" y="-12" on="0"/>
        <pt x="88" y="112" on="0"/>
        <pt x="88" y="261" on="1"/>
        <pt x="88" y="690" on="1"/>
        <pt x="153" y="690" on="1"/>
        <pt x="153" y="261" on="1"/>
        <pt x="153" y="142" on="0"/>
        <pt x="234" y="46" on="0"/>
        <pt x="334" y="46" on="1"/>
        <pt x="433" y="46" on="0"/>
        <pt x="513" y="142" on="0"/>
        <pt x="513" y="261" on="1"/>
        <pt x="513" y="690" on="1"/>
      </contour>
    </TTGlyph>
    <TTGlyph name="V" xMin="20" yMin="0" xMax="583" yMax="690">
      <contour>
        <pt x="583" y="690" on="1"/>
        <pt x="364" y="19" on="1"/>
        <pt x="357" y="0" on="0"/>
        <pt x="338" y="0" on="1"/>
        <pt x="265" y="0" on="1"/>
        <pt x="244" y="0" on="0"/>
        <pt x="239" y="19" on="1"/>
        <pt x="20" y="690" on="1"/>
        <pt x="88" y="690" on="1"/>
        <pt x="266" y="127" on="1"/>
        <pt x="274" y="102" on="0"/>
        <pt x="288" y="52" on="1"/>
        <pt x="315" y="52" on="1"/>
        <pt x="329" y="102" on="0"/>
        <pt x="337" y="127" on="1"/>
        <pt x="515" y="690" on="1"/>
      </contour>
    </TTGlyph>
    <TTGlyph name="W" xMin="32" yMin="0" xMax="910" yMax="690">
      <contour>
        <pt x="910" y="690" on="1"/>
        <pt x="754" y="20" on="1"/>
        <pt x="749" y="0" on="0"/>
        <pt x="727" y="0" on="1"/>
        <pt x="648" y="0" on="1"/>
        <pt x="625" y="0" on="0"/>
        <pt x="620" y="21" on="1"/>
        <pt x="499" y="562" on="1"/>
        <pt x="482" y="639" on="1"/>
        <pt x="460" y="639" on="1"/>
        <pt x="448" y="587" on="0"/>
        <pt x="442" y="562" on="1"/>
        <pt x="321" y="21" on="1"/>
        <pt x="316" y="0" on="0"/>
        <pt x="294" y="0" on="1"/>
        <pt x="214" y="0" on="1"/>
        <pt x="192" y="0" on="0"/>
        <pt x="187" y="20" on="1"/>
        <pt x="32" y="690" on="1"/>
        <pt x="101" y="690" on="1"/>
        <pt x="227" y="131" on="1"/>
        <pt x="235" y="98" on="0"/>
        <pt x="243" y="51" on="1"/>
        <pt x="268" y="51" on="1"/>
        <pt x="276" y="94" on="0"/>
        <pt x="284" y="130" on="1"/>
        <pt x="406" y="667" on="1"/>
        <pt x="411" y="690" on="0"/>
        <pt x="433" y="690" on="1"/>
        <pt x="508" y="690" on="1"/>
        <pt x="530" y="690" on="0"/>
        <pt x="535" y="667" on="1"/>
        <pt x="657" y="130" on="1"/>
        <pt x="662" y="109" on="0"/>
        <pt x="673" y="51" on="1"/>
        <pt x="699" y="51" on="1"/>
        <pt x="701" y="60" on="0"/>
        <pt x="706" y="92" on="0"/>
        <pt x="711" y="118" on="0"/>
        <pt x="714" y="129" on="1"/>
        <pt x="841" y="690" on="1"/>
      </contour>
    </TTGlyph>
    <TTGlyph name="Wacute" xMin="32" yMin="0" xMax="910" yMax="906">
      <contour>
        <pt x="614" y="858" on="1"/>
        <pt x="436" y="730" on="1"/>
        <pt x="412" y="760" on="1"/>
        <pt x="576" y="906" on="1"/>
      </contour>
      <contour>
        <pt x="910" y="690" on="1"/>
        <pt x="754" y="20" on="1"/>
        <pt x="749" y="0" on="0"/>
        <pt x="727" y="0" on="1"/>
        <pt x="648" y="0" on="1"/>
        <pt x="625" y="0" on="0"/>
        <pt x="620" y="21" on="1"/>
        <pt x="499" y="562" on="1"/>
        <pt x="482" y="639" on="1"/>
        <pt x="460" y="639" on="1"/>
        <pt x="448" y="587" on="0"/>
        <pt x="442" y="562" on="1"/>
        <pt x="321" y="21" on="1"/>
        <pt x="316" y="0" on="0"/>
        <pt x="294" y="0" on="1"/>
        <pt x="214" y="0" on="1"/>
        <pt x="192" y="0" on="0"/>
        <pt x="187" y="20" on="1"/>
        <pt x="32" y="690" on="1"/>
        <pt x="101" y="690" on="1"/>
        <pt x="227" y="131" on="1"/>
        <pt x="235" y="98" on="0"/>
        <pt x="243" y="51" on="1"/>
        <pt x="268" y="51" on="1"/>
        <pt x="276" y="94" on="0"/>
        <pt x="284" y="130" on="1"/>
        <pt x="406" y="667" on="1"/>
        <pt x="411" y="690" on="0"/>
        <pt x="433" y="690" on="1"/>
        <pt x="508" y="690" on="1"/>
        <pt x="530" y="690" on="0"/>
        <pt x="535" y="667" on="1"/>
        <pt x="657" y="130" on="1"/>
        <pt x="662" y="109" on="0"/>
        <pt x="673" y="51" on="1"/>
        <pt x="699" y="51" on="1"/>
        <pt x="701" y="60" on="0"/>
        <pt x="706" y="92" on="0"/>
        <pt x="711" y="118" on="0"/>
        <pt x="714" y="129" on="1"/>
        <pt x="841" y="690" on="1"/>
      </contour>
    </TTGlyph>
    <TTGlyph name="Wcircumflex" xMin="32" yMin="0" xMax="910" yMax="890">
      <contour>
        <pt x="628" y="766" on="1"/>
        <pt x="605" y="738" on="1"/>
        <pt x="475" y="838" on="1"/>
        <pt x="467" y="838" on="1"/>
        <pt x="338" y="738" on="1"/>
        <pt x="315" y="766" on="1"/>
        <pt x="448" y="890" on="1"/>
        <pt x="494" y="890" on="1"/>
      </contour>
      <contour>
        <pt x="910" y="690" on="1"/>
        <pt x="754" y="20" on="1"/>
        <pt x="749" y="0" on="0"/>
        <pt x="727" y="0" on="1"/>
        <pt x="648" y="0" on="1"/>
        <pt x="625" y="0" on="0"/>
        <pt x="620" y="21" on="1"/>
        <pt x="499" y="562" on="1"/>
        <pt x="482" y="639" on="1"/>
        <pt x="460" y="639" on="1"/>
        <pt x="448" y="587" on="0"/>
        <pt x="442" y="562" on="1"/>
        <pt x="321" y="21" on="1"/>
        <pt x="316" y="0" on="0"/>
        <pt x="294" y="0" on="1"/>
        <pt x="214" y="0" on="1"/>
        <pt x="192" y="0" on="0"/>
        <pt x="187" y="20" on="1"/>
        <pt x="32" y="690" on="1"/>
        <pt x="101" y="690" on="1"/>
        <pt x="227" y="131" on="1"/>
        <pt x="235" y="98" on="0"/>
        <pt x="243" y="51" on="1"/>
        <pt x="268" y="51" on="1"/>
        <pt x="276" y="94" on="0"/>
        <pt x="284" y="130" on="1"/>
        <pt x="406" y="667" on="1"/>
        <pt x="411" y="690" on="0"/>
        <pt x="433" y="690" on="1"/>
        <pt x="508" y="690" on="1"/>
        <pt x="530" y="690" on="0"/>
        <pt x="535" y="667" on="1"/>
        <pt x="657" y="130" on="1"/>
        <pt x="662" y="109" on="0"/>
        <pt x="673" y="51" on="1"/>
        <pt x="699" y="51" on="1"/>
        <pt x="701" y="60" on="0"/>
        <pt x="706" y="92" on="0"/>
        <pt x="711" y="118" on="0"/>
        <pt x="714" y="129" on="1"/>
        <pt x="841" y="690" on="1"/>
      </contour>
    </TTGlyph>
    <TTGlyph name="Wdieresis" xMin="32" yMin="0" xMax="910" yMax="864">
      <contour>
        <pt x="372" y="864" on="1"/>
        <pt x="394" y="864" on="1"/>
        <pt x="412" y="864" on="0"/>
        <pt x="412" y="845" on="1"/>
        <pt x="412" y="790" on="1"/>
        <pt x="412" y="770" on="0"/>
        <pt x="394" y="770" on="1"/>
        <pt x="372" y="770" on="1"/>
        <pt x="353" y="770" on="0"/>
        <pt x="353" y="790" on="1"/>
        <pt x="353" y="845" on="1"/>
        <pt x="353" y="864" on="0"/>
      </contour>
      <contour>
        <pt x="549" y="864" on="1"/>
        <pt x="571" y="864" on="1"/>
        <pt x="590" y="864" on="0"/>
        <pt x="590" y="845" on="1"/>
        <pt x="590" y="790" on="1"/>
        <pt x="590" y="770" on="0"/>
        <pt x="571" y="770" on="1"/>
        <pt x="549" y="770" on="1"/>
        <pt x="530" y="770" on="0"/>
        <pt x="530" y="790" on="1"/>
        <pt x="530" y="845" on="1"/>
        <pt x="530" y="864" on="0"/>
      </contour>
      <contour>
        <pt x="910" y="690" on="1"/>
        <pt x="754" y="20" on="1"/>
        <pt x="749" y="0" on="0"/>
        <pt x="727" y="0" on="1"/>
        <pt x="648" y="0" on="1"/>
        <pt x="625" y="0" on="0"/>
        <pt x="620" y="21" on="1"/>
        <pt x="499" y="562" on="1"/>
        <pt x="482" y="639" on="1"/>
        <pt x="460" y="639" on="1"/>
        <pt x="448" y="587" on="0"/>
        <pt x="442" y="562" on="1"/>
        <pt x="321" y="21" on="1"/>
        <pt x="316" y="0" on="0"/>
        <pt x="294" y="0" on="1"/>
        <pt x="214" y="0" on="1"/>
        <pt x="192" y="0" on="0"/>
        <pt x="187" y="20" on="1"/>
        <pt x="32" y="690" on="1"/>
        <pt x="101" y="690" on="1"/>
        <pt x="227" y="131" on="1"/>
        <pt x="235" y="98" on="0"/>
        <pt x="243" y="51" on="1"/>
        <pt x="268" y="51" on="1"/>
        <pt x="276" y="94" on="0"/>
        <pt x="284" y="130" on="1"/>
        <pt x="406" y="667" on="1"/>
        <pt x="411" y="690" on="0"/>
        <pt x="433" y="690" on="1"/>
        <pt x="508" y="690" on="1"/>
        <pt x="530" y="690" on="0"/>
        <pt x="535" y="667" on="1"/>
        <pt x="657" y="130" on="1"/>
        <pt x="662" y="109" on="0"/>
        <pt x="673" y="51" on="1"/>
        <pt x="699" y="51" on="1"/>
        <pt x="701" y="60" on="0"/>
        <pt x="706" y="92" on="0"/>
        <pt x="711" y="118" on="0"/>
        <pt x="714" y="129" on="1"/>
        <pt x="841" y="690" on="1"/>
      </contour>
    </TTGlyph>
    <TTGlyph name="Wgrave" xMin="32" yMin="0" xMax="910" yMax="906">
      <contour>
        <pt x="518" y="760" on="1"/>
        <pt x="494" y="730" on="1"/>
        <pt x="316" y="858" on="1"/>
        <pt x="353" y="906" on="1"/>
      </contour>
      <contour>
        <pt x="910" y="690" on="1"/>
        <pt x="754" y="20" on="1"/>
        <pt x="749" y="0" on="0"/>
        <pt x="727" y="0" on="1"/>
        <pt x="648" y="0" on="1"/>
        <pt x="625" y="0" on="0"/>
        <pt x="620" y="21" on="1"/>
        <pt x="499" y="562" on="1"/>
        <pt x="482" y="639" on="1"/>
        <pt x="460" y="639" on="1"/>
        <pt x="448" y="587" on="0"/>
        <pt x="442" y="562" on="1"/>
        <pt x="321" y="21" on="1"/>
        <pt x="316" y="0" on="0"/>
        <pt x="294" y="0" on="1"/>
        <pt x="214" y="0" on="1"/>
        <pt x="192" y="0" on="0"/>
        <pt x="187" y="20" on="1"/>
        <pt x="32" y="690" on="1"/>
        <pt x="101" y="690" on="1"/>
        <pt x="227" y="131" on="1"/>
        <pt x="235" y="98" on="0"/>
        <pt x="243" y="51" on="1"/>
        <pt x="268" y="51" on="1"/>
        <pt x="276" y="94" on="0"/>
        <pt x="284" y="130" on="1"/>
        <pt x="406" y="667" on="1"/>
        <pt x="411" y="690" on="0"/>
        <pt x="433" y="690" on="1"/>
        <pt x="508" y="690" on="1"/>
        <pt x="530" y="690" on="0"/>
        <pt x="535" y="667" on="1"/>
        <pt x="657" y="130" on="1"/>
        <pt x="662" y="109" on="0"/>
        <pt x="673" y="51" on="1"/>
        <pt x="699" y="51" on="1"/>
        <pt x="701" y="60" on="0"/>
        <pt x="706" y="92" on="0"/>
        <pt x="711" y="118" on="0"/>
        <pt x="714" y="129" on="1"/>
        <pt x="841" y="690" on="1"/>
      </contour>
    </TTGlyph>
    <TTGlyph name="X" xMin="30" yMin="0" xMax="575" yMax="690">
      <contour>
        <pt x="316" y="334" on="1"/>
        <pt x="288" y="334" on="1"/>
        <pt x="102" y="0" on="1"/>
        <pt x="30" y="0" on="1"/>
        <pt x="233" y="358" on="1"/>
        <pt x="43" y="690" on="1"/>
        <pt x="114" y="690" on="1"/>
        <pt x="286" y="385" on="1"/>
        <pt x="318" y="385" on="1"/>
        <pt x="490" y="690" on="1"/>
        <pt x="562" y="690" on="1"/>
        <pt x="372" y="358" on="1"/>
        <pt x="575" y="0" on="1"/>
        <pt x="502" y="0" on="1"/>
      </contour>
    </TTGlyph>
    <TTGlyph name="Y" xMin="15" yMin="0" xMax="543" yMax="690">
      <contour>
        <pt x="312" y="247" on="1"/>
        <pt x="312" y="0" on="1"/>
        <pt x="247" y="0" on="1"/>
        <pt x="247" y="248" on="1"/>
        <pt x="15" y="690" on="1"/>
        <pt x="85" y="690" on="1"/>
        <pt x="243" y="384" on="1"/>
        <pt x="256" y="358" on="0"/>
        <pt x="276" y="310" on="1"/>
        <pt x="283" y="310" on="1"/>
        <pt x="296" y="341" on="0"/>
        <pt x="316" y="383" on="1"/>
        <pt x="474" y="690" on="1"/>
        <pt x="543" y="690" on="1"/>
      </contour>
    </TTGlyph>
    <TTGlyph name="Yacute" xMin="15" yMin="0" xMax="543" yMax="907">
      <contour>
        <pt x="244" y="731" on="1"/>
        <pt x="220" y="761" on="1"/>
        <pt x="384" y="907" on="1"/>
        <pt x="422" y="859" on="1"/>
      </contour>
      <contour>
        <pt x="312" y="247" on="1"/>
        <pt x="312" y="0" on="1"/>
        <pt x="247" y="0" on="1"/>
        <pt x="247" y="248" on="1"/>
        <pt x="15" y="690" on="1"/>
        <pt x="85" y="690" on="1"/>
        <pt x="243" y="384" on="1"/>
        <pt x="256" y="358" on="0"/>
        <pt x="276" y="310" on="1"/>
        <pt x="283" y="310" on="1"/>
        <pt x="296" y="341" on="0"/>
        <pt x="316" y="383" on="1"/>
        <pt x="474" y="690" on="1"/>
        <pt x="543" y="690" on="1"/>
      </contour>
    </TTGlyph>
    <TTGlyph name="Ycircumflex" xMin="15" yMin="0" xMax="543" yMax="891">
      <contour>
        <pt x="145" y="739" on="1"/>
        <pt x="123" y="767" on="1"/>
        <pt x="256" y="891" on="1"/>
        <pt x="302" y="891" on="1"/>
        <pt x="436" y="767" on="1"/>
        <pt x="412" y="739" on="1"/>
        <pt x="283" y="838" on="1"/>
        <pt x="275" y="838" on="1"/>
      </contour>
      <contour>
        <pt x="312" y="247" on="1"/>
        <pt x="312" y="0" on="1"/>
        <pt x="247" y="0" on="1"/>
        <pt x="247" y="248" on="1"/>
        <pt x="15" y="690" on="1"/>
        <pt x="85" y="690" on="1"/>
        <pt x="243" y="384" on="1"/>
        <pt x="256" y="358" on="0"/>
        <pt x="276" y="310" on="1"/>
        <pt x="283" y="310" on="1"/>
        <pt x="296" y="341" on="0"/>
        <pt x="316" y="383" on="1"/>
        <pt x="474" y="690" on="1"/>
        <pt x="543" y="690" on="1"/>
      </contour>
    </TTGlyph>
    <TTGlyph name="Ydieresis" xMin="15" yMin="0" xMax="543" yMax="865">
      <contour>
        <pt x="202" y="771" on="1"/>
        <pt x="179" y="771" on="1"/>
        <pt x="161" y="771" on="0"/>
        <pt x="161" y="790" on="1"/>
        <pt x="161" y="845" on="1"/>
        <pt x="161" y="865" on="0"/>
        <pt x="179" y="865" on="1"/>
        <pt x="202" y="865" on="1"/>
        <pt x="220" y="865" on="0"/>
        <pt x="220" y="845" on="1"/>
        <pt x="220" y="790" on="1"/>
        <pt x="220" y="771" on="0"/>
      </contour>
      <contour>
        <pt x="379" y="771" on="1"/>
        <pt x="357" y="771" on="1"/>
        <pt x="338" y="771" on="0"/>
        <pt x="338" y="790" on="1"/>
        <pt x="338" y="845" on="1"/>
        <pt x="338" y="865" on="0"/>
        <pt x="357" y="865" on="1"/>
        <pt x="379" y="865" on="1"/>
        <pt x="398" y="865" on="0"/>
        <pt x="398" y="845" on="1"/>
        <pt x="398" y="790" on="1"/>
        <pt x="398" y="771" on="0"/>
      </contour>
      <contour>
        <pt x="312" y="247" on="1"/>
        <pt x="312" y="0" on="1"/>
        <pt x="247" y="0" on="1"/>
        <pt x="247" y="248" on="1"/>
        <pt x="15" y="690" on="1"/>
        <pt x="85" y="690" on="1"/>
        <pt x="243" y="384" on="1"/>
        <pt x="256" y="358" on="0"/>
        <pt x="276" y="310" on="1"/>
        <pt x="283" y="310" on="1"/>
        <pt x="296" y="341" on="0"/>
        <pt x="316" y="383" on="1"/>
        <pt x="474" y="690" on="1"/>
        <pt x="543" y="690" on="1"/>
      </contour>
    </TTGlyph>
    <TTGlyph name="Ygrave" xMin="15" yMin="0" xMax="543" yMax="907">
      <contour>
        <pt x="301" y="731" on="1"/>
        <pt x="124" y="859" on="1"/>
        <pt x="161" y="907" on="1"/>
        <pt x="325" y="761" on="1"/>
      </contour>
      <contour>
        <pt x="312" y="247" on="1"/>
        <pt x="312" y="0" on="1"/>
        <pt x="247" y="0" on="1"/>
        <pt x="247" y="248" on="1"/>
        <pt x="15" y="690" on="1"/>
        <pt x="85" y="690" on="1"/>
        <pt x="243" y="384" on="1"/>
        <pt x="256" y="358" on="0"/>
        <pt x="276" y="310" on="1"/>
        <pt x="283" y="310" on="1"/>
        <pt x="296" y="341" on="0"/>
        <pt x="316" y="383" on="1"/>
        <pt x="474" y="690" on="1"/>
        <pt x="543" y="690" on="1"/>
      </contour>
    </TTGlyph>
    <TTGlyph name="Z" xMin="50" yMin="0" xMax="515" yMax="690">
      <contour>
        <pt x="515" y="56" on="1"/>
        <pt x="515" y="0" on="1"/>
        <pt x="50" y="0" on="1"/>
        <pt x="50" y="56" on="1"/>
        <pt x="436" y="634" on="1"/>
        <pt x="54" y="634" on="1"/>
        <pt x="54" y="690" on="1"/>
        <pt x="509" y="690" on="1"/>
        <pt x="509" y="634" on="1"/>
        <pt x="123" y="56" on="1"/>
      </contour>
    </TTGlyph>
    <TTGlyph name="Zacute" xMin="50" yMin="0" xMax="515" yMax="907">
      <contour>
        <pt x="248" y="731" on="1"/>
        <pt x="224" y="761" on="1"/>
        <pt x="388" y="907" on="1"/>
        <pt x="426" y="859" on="1"/>
      </contour>
      <contour>
        <pt x="515" y="56" on="1"/>
        <pt x="515" y="0" on="1"/>
        <pt x="50" y="0" on="1"/>
        <pt x="50" y="56" on="1"/>
        <pt x="436" y="634" on="1"/>
        <pt x="54" y="634" on="1"/>
        <pt x="54" y="690" on="1"/>
        <pt x="509" y="690" on="1"/>
        <pt x="509" y="634" on="1"/>
        <pt x="123" y="56" on="1"/>
      </contour>
    </TTGlyph>
    <TTGlyph name="Zcaron" xMin="50" yMin="0" xMax="515" yMax="898">
      <contour>
        <pt x="268" y="746" on="1"/>
        <pt x="127" y="870" on="1"/>
        <pt x="151" y="898" on="1"/>
        <pt x="280" y="805" on="1"/>
        <pt x="288" y="805" on="1"/>
        <pt x="418" y="898" on="1"/>
        <pt x="441" y="870" on="1"/>
        <pt x="300" y="746" on="1"/>
      </contour>
      <contour>
        <pt x="515" y="56" on="1"/>
        <pt x="515" y="0" on="1"/>
        <pt x="50" y="0" on="1"/>
        <pt x="50" y="56" on="1"/>
        <pt x="436" y="634" on="1"/>
        <pt x="54" y="634" on="1"/>
        <pt x="54" y="690" on="1"/>
        <pt x="509" y="690" on="1"/>
        <pt x="509" y="634" on="1"/>
        <pt x="123" y="56" on="1"/>
      </contour>
    </TTGlyph>
    <TTGlyph name="Zdotaccent" xMin="50" yMin="0" xMax="515" yMax="865">
      <contour>
        <pt x="294" y="764" on="1"/>
        <pt x="273" y="764" on="1"/>
        <pt x="252" y="764" on="0"/>
        <pt x="252" y="785" on="1"/>
        <pt x="252" y="844" on="1"/>
        <pt x="252" y="865" on="0"/>
        <pt x="273" y="865" on="1"/>
        <pt x="294" y="865" on="1"/>
        <pt x="315" y="865" on="0"/>
        <pt x="315" y="844" on="1"/>
        <pt x="315" y="785" on="1"/>
        <pt x="315" y="764" on="0"/>
      </contour>
      <contour>
        <pt x="515" y="56" on="1"/>
        <pt x="515" y="0" on="1"/>
        <pt x="50" y="0" on="1"/>
        <pt x="50" y="56" on="1"/>
        <pt x="436" y="634" on="1"/>
        <pt x="54" y="634" on="1"/>
        <pt x="54" y="690" on="1"/>
        <pt x="509" y="690" on="1"/>
        <pt x="509" y="634" on="1"/>
        <pt x="123" y="56" on="1"/>
      </contour>
    </TTGlyph>
    <TTGlyph name="a" xMin="57" yMin="-8" xMax="465" yMax="497">
      <contour>
        <pt x="83" y="428" on="1"/>
        <pt x="77" y="475" on="1"/>
        <pt x="222" y="497" on="0"/>
        <pt x="310" y="497" on="1"/>
        <pt x="388" y="497" on="0"/>
        <pt x="465" y="428" on="0"/>
        <pt x="465" y="348" on="1"/>
        <pt x="465" y="0" on="1"/>
        <pt x="415" y="0" on="1"/>
        <pt x="407" y="85" on="1"/>
        <pt x="371" y="49" on="0"/>
        <pt x="256" y="-8" on="0"/>
        <pt x="195" y="-8" on="1"/>
        <pt x="131" y="-8" on="0"/>
        <pt x="57" y="60" on="0"/>
        <pt x="57" y="123" on="1"/>
        <pt x="57" y="179" on="1"/>
        <pt x="57" y="235" on="0"/>
        <pt x="123" y="297" on="0"/>
        <pt x="184" y="297" on="1"/>
        <pt x="401" y="297" on="1"/>
        <pt x="401" y="348" on="1"/>
        <pt x="401" y="396" on="0"/>
        <pt x="356" y="442" on="0"/>
        <pt x="298" y="442" on="1"/>
        <pt x="212" y="442" on="0"/>
      </contour>
      <contour>
        <pt x="121" y="171" on="1"/>
        <pt x="121" y="129" on="1"/>
        <pt x="121" y="48" on="0"/>
        <pt x="206" y="48" on="1"/>
        <pt x="250" y="47" on="0"/>
        <pt x="359" y="92" on="0"/>
        <pt x="401" y="130" on="1"/>
        <pt x="401" y="246" on="1"/>
        <pt x="194" y="246" on="1"/>
        <pt x="121" y="243" on="0"/>
      </contour>
    </TTGlyph>
    <TTGlyph name="aacute" xMin="57" yMin="-8" xMax="465" yMax="726">
      <contour>
        <pt x="233" y="550" on="1"/>
        <pt x="209" y="580" on="1"/>
        <pt x="373" y="726" on="1"/>
        <pt x="411" y="678" on="1"/>
      </contour>
      <contour>
        <pt x="83" y="428" on="1"/>
        <pt x="77" y="475" on="1"/>
        <pt x="222" y="497" on="0"/>
        <pt x="310" y="497" on="1"/>
        <pt x="388" y="497" on="0"/>
        <pt x="465" y="428" on="0"/>
        <pt x="465" y="348" on="1"/>
        <pt x="465" y="0" on="1"/>
        <pt x="415" y="0" on="1"/>
        <pt x="407" y="85" on="1"/>
        <pt x="371" y="49" on="0"/>
        <pt x="256" y="-8" on="0"/>
        <pt x="195" y="-8" on="1"/>
        <pt x="131" y="-8" on="0"/>
        <pt x="57" y="60" on="0"/>
        <pt x="57" y="123" on="1"/>
        <pt x="57" y="179" on="1"/>
        <pt x="57" y="235" on="0"/>
        <pt x="123" y="297" on="0"/>
        <pt x="184" y="297" on="1"/>
        <pt x="401" y="297" on="1"/>
        <pt x="401" y="348" on="1"/>
        <pt x="401" y="396" on="0"/>
        <pt x="356" y="442" on="0"/>
        <pt x="298" y="442" on="1"/>
        <pt x="212" y="442" on="0"/>
      </contour>
      <contour>
        <pt x="121" y="171" on="1"/>
        <pt x="121" y="129" on="1"/>
        <pt x="121" y="48" on="0"/>
        <pt x="206" y="48" on="1"/>
        <pt x="250" y="47" on="0"/>
        <pt x="359" y="92" on="0"/>
        <pt x="401" y="130" on="1"/>
        <pt x="401" y="246" on="1"/>
        <pt x="194" y="246" on="1"/>
        <pt x="121" y="243" on="0"/>
      </contour>
    </TTGlyph>
    <TTGlyph name="abreve" xMin="57" yMin="-8" xMax="465" yMax="699">
      <contour>
        <pt x="378" y="699" on="1"/>
        <pt x="413" y="694" on="1"/>
        <pt x="415" y="637" on="0"/>
        <pt x="337" y="568" on="0"/>
        <pt x="199" y="568" on="0"/>
        <pt x="120" y="637" on="0"/>
        <pt x="123" y="694" on="1"/>
        <pt x="157" y="699" on="1"/>
        <pt x="157" y="660" on="0"/>
        <pt x="216" y="618" on="0"/>
        <pt x="269" y="618" on="1"/>
        <pt x="320" y="618" on="0"/>
        <pt x="378" y="660" on="0"/>
      </contour>
      <contour>
        <pt x="83" y="428" on="1"/>
        <pt x="77" y="475" on="1"/>
        <pt x="222" y="497" on="0"/>
        <pt x="310" y="497" on="1"/>
        <pt x="388" y="497" on="0"/>
        <pt x="465" y="428" on="0"/>
        <pt x="465" y="348" on="1"/>
        <pt x="465" y="0" on="1"/>
        <pt x="415" y="0" on="1"/>
        <pt x="407" y="85" on="1"/>
        <pt x="371" y="49" on="0"/>
        <pt x="256" y="-8" on="0"/>
        <pt x="195" y="-8" on="1"/>
        <pt x="131" y="-8" on="0"/>
        <pt x="57" y="60" on="0"/>
        <pt x="57" y="123" on="1"/>
        <pt x="57" y="179" on="1"/>
        <pt x="57" y="235" on="0"/>
        <pt x="123" y="297" on="0"/>
        <pt x="184" y="297" on="1"/>
        <pt x="401" y="297" on="1"/>
        <pt x="401" y="348" on="1"/>
        <pt x="401" y="396" on="0"/>
        <pt x="356" y="442" on="0"/>
        <pt x="298" y="442" on="1"/>
        <pt x="212" y="442" on="0"/>
      </contour>
      <contour>
        <pt x="121" y="171" on="1"/>
        <pt x="121" y="129" on="1"/>
        <pt x="121" y="48" on="0"/>
        <pt x="206" y="48" on="1"/>
        <pt x="250" y="47" on="0"/>
        <pt x="359" y="92" on="0"/>
        <pt x="401" y="130" on="1"/>
        <pt x="401" y="246" on="1"/>
        <pt x="194" y="246" on="1"/>
        <pt x="121" y="243" on="0"/>
      </contour>
    </TTGlyph>
    <TTGlyph name="acircumflex" xMin="57" yMin="-8" xMax="465" yMax="710">
      <contour>
        <pt x="134" y="558" on="1"/>
        <pt x="111" y="586" on="1"/>
        <pt x="245" y="710" on="1"/>
        <pt x="291" y="710" on="1"/>
        <pt x="425" y="586" on="1"/>
        <pt x="401" y="558" on="1"/>
        <pt x="272" y="658" on="1"/>
        <pt x="264" y="658" on="1"/>
      </contour>
      <contour>
        <pt x="83" y="428" on="1"/>
        <pt x="77" y="475" on="1"/>
        <pt x="222" y="497" on="0"/>
        <pt x="310" y="497" on="1"/>
        <pt x="388" y="497" on="0"/>
        <pt x="465" y="428" on="0"/>
        <pt x="465" y="348" on="1"/>
        <pt x="465" y="0" on="1"/>
        <pt x="415" y="0" on="1"/>
        <pt x="407" y="85" on="1"/>
        <pt x="371" y="49" on="0"/>
        <pt x="256" y="-8" on="0"/>
        <pt x="195" y="-8" on="1"/>
        <pt x="131" y="-8" on="0"/>
        <pt x="57" y="60" on="0"/>
        <pt x="57" y="123" on="1"/>
        <pt x="57" y="179" on="1"/>
        <pt x="57" y="235" on="0"/>
        <pt x="123" y="297" on="0"/>
        <pt x="184" y="297" on="1"/>
        <pt x="401" y="297" on="1"/>
        <pt x="401" y="348" on="1"/>
        <pt x="401" y="396" on="0"/>
        <pt x="356" y="442" on="0"/>
        <pt x="298" y="442" on="1"/>
        <pt x="212" y="442" on="0"/>
      </contour>
      <contour>
        <pt x="121" y="171" on="1"/>
        <pt x="121" y="129" on="1"/>
        <pt x="121" y="48" on="0"/>
        <pt x="206" y="48" on="1"/>
        <pt x="250" y="47" on="0"/>
        <pt x="359" y="92" on="0"/>
        <pt x="401" y="130" on="1"/>
        <pt x="401" y="246" on="1"/>
        <pt x="194" y="246" on="1"/>
        <pt x="121" y="243" on="0"/>
      </contour>
    </TTGlyph>
    <TTGlyph name="acute" xMin="57" yMin="542" xMax="259" yMax="718">
      <contour>
        <pt x="259" y="670" on="1"/>
        <pt x="81" y="542" on="1"/>
        <pt x="57" y="572" on="1"/>
        <pt x="221" y="718" on="1"/>
      </contour>
    </TTGlyph>
    <TTGlyph name="adieresis" xMin="57" yMin="-8" xMax="465" yMax="684">
      <contour>
        <pt x="191" y="590" on="1"/>
        <pt x="168" y="590" on="1"/>
        <pt x="150" y="590" on="0"/>
        <pt x="150" y="610" on="1"/>
        <pt x="150" y="665" on="1"/>
        <pt x="150" y="684" on="0"/>
        <pt x="168" y="684" on="1"/>
        <pt x="191" y="684" on="1"/>
        <pt x="209" y="684" on="0"/>
        <pt x="209" y="665" on="1"/>
        <pt x="209" y="610" on="1"/>
        <pt x="209" y="590" on="0"/>
      </contour>
      <contour>
        <pt x="368" y="590" on="1"/>
        <pt x="346" y="590" on="1"/>
        <pt x="327" y="590" on="0"/>
        <pt x="327" y="610" on="1"/>
        <pt x="327" y="665" on="1"/>
        <pt x="327" y="684" on="0"/>
        <pt x="346" y="684" on="1"/>
        <pt x="368" y="684" on="1"/>
        <pt x="386" y="684" on="0"/>
        <pt x="386" y="665" on="1"/>
        <pt x="386" y="610" on="1"/>
        <pt x="386" y="590" on="0"/>
      </contour>
      <contour>
        <pt x="83" y="428" on="1"/>
        <pt x="77" y="475" on="1"/>
        <pt x="222" y="497" on="0"/>
        <pt x="310" y="497" on="1"/>
        <pt x="388" y="497" on="0"/>
        <pt x="465" y="428" on="0"/>
        <pt x="465" y="348" on="1"/>
        <pt x="465" y="0" on="1"/>
        <pt x="415" y="0" on="1"/>
        <pt x="407" y="85" on="1"/>
        <pt x="371" y="49" on="0"/>
        <pt x="256" y="-8" on="0"/>
        <pt x="195" y="-8" on="1"/>
        <pt x="131" y="-8" on="0"/>
        <pt x="57" y="60" on="0"/>
        <pt x="57" y="123" on="1"/>
        <pt x="57" y="179" on="1"/>
        <pt x="57" y="235" on="0"/>
        <pt x="123" y="297" on="0"/>
        <pt x="184" y="297" on="1"/>
        <pt x="401" y="297" on="1"/>
        <pt x="401" y="348" on="1"/>
        <pt x="401" y="396" on="0"/>
        <pt x="356" y="442" on="0"/>
        <pt x="298" y="442" on="1"/>
        <pt x="212" y="442" on="0"/>
      </contour>
      <contour>
        <pt x="121" y="171" on="1"/>
        <pt x="121" y="129" on="1"/>
        <pt x="121" y="48" on="0"/>
        <pt x="206" y="48" on="1"/>
        <pt x="250" y="47" on="0"/>
        <pt x="359" y="92" on="0"/>
        <pt x="401" y="130" on="1"/>
        <pt x="401" y="246" on="1"/>
        <pt x="194" y="246" on="1"/>
        <pt x="121" y="243" on="0"/>
      </contour>
    </TTGlyph>
    <TTGlyph name="ae" xMin="57" yMin="-12" xMax="820" yMax="497">
      <contour>
        <pt x="688" y="211" on="1"/>
        <pt x="468" y="211" on="1"/>
        <pt x="473" y="115" on="0"/>
        <pt x="549" y="43" on="0"/>
        <pt x="635" y="43" on="1"/>
        <pt x="712" y="43" on="0"/>
        <pt x="802" y="55" on="1"/>
        <pt x="809" y="12" on="1"/>
        <pt x="748" y="-12" on="0"/>
        <pt x="627" y="-12" on="1"/>
        <pt x="544" y="-12" on="0"/>
        <pt x="446" y="39" on="0"/>
        <pt x="423" y="96" on="1"/>
        <pt x="387" y="57" on="0"/>
        <pt x="262" y="-8" on="0"/>
        <pt x="195" y="-8" on="1"/>
        <pt x="131" y="-8" on="0"/>
        <pt x="57" y="60" on="0"/>
        <pt x="57" y="123" on="1"/>
        <pt x="57" y="179" on="1"/>
        <pt x="57" y="235" on="0"/>
        <pt x="123" y="297" on="0"/>
        <pt x="184" y="297" on="1"/>
        <pt x="401" y="297" on="1"/>
        <pt x="401" y="348" on="1"/>
        <pt x="401" y="396" on="0"/>
        <pt x="356" y="442" on="0"/>
        <pt x="298" y="442" on="1"/>
        <pt x="212" y="442" on="0"/>
        <pt x="83" y="428" on="1"/>
        <pt x="77" y="475" on="1"/>
        <pt x="222" y="497" on="0"/>
        <pt x="310" y="497" on="1"/>
        <pt x="414" y="497" on="0"/>
        <pt x="447" y="435" on="1"/>
        <pt x="496" y="497" on="0"/>
        <pt x="618" y="497" on="1"/>
        <pt x="721" y="497" on="0"/>
        <pt x="819" y="422" on="0"/>
        <pt x="820" y="346" on="1"/>
        <pt x="821" y="276" on="0"/>
        <pt x="758" y="211" on="0"/>
      </contour>
      <contour>
        <pt x="467" y="261" on="1"/>
        <pt x="674" y="261" on="1"/>
        <pt x="720" y="261" on="0"/>
        <pt x="757" y="304" on="0"/>
        <pt x="756" y="345" on="1"/>
        <pt x="755" y="395" on="0"/>
        <pt x="691" y="442" on="0"/>
        <pt x="621" y="442" on="1"/>
        <pt x="536" y="442" on="0"/>
        <pt x="468" y="363" on="0"/>
      </contour>
      <contour>
        <pt x="121" y="171" on="1"/>
        <pt x="121" y="129" on="1"/>
        <pt x="121" y="48" on="0"/>
        <pt x="206" y="48" on="1"/>
        <pt x="252" y="47" on="0"/>
        <pt x="367" y="95" on="0"/>
        <pt x="411" y="135" on="1"/>
        <pt x="401" y="178" on="0"/>
        <pt x="401" y="244" on="1"/>
        <pt x="401" y="246" on="1"/>
        <pt x="194" y="246" on="1"/>
        <pt x="121" y="243" on="0"/>
      </contour>
    </TTGlyph>
    <TTGlyph name="agrave" xMin="57" yMin="-8" xMax="465" yMax="726">
      <contour>
        <pt x="290" y="550" on="1"/>
        <pt x="112" y="678" on="1"/>
        <pt x="150" y="726" on="1"/>
        <pt x="314" y="580" on="1"/>
      </contour>
      <contour>
        <pt x="83" y="428" on="1"/>
        <pt x="77" y="475" on="1"/>
        <pt x="222" y="497" on="0"/>
        <pt x="310" y="497" on="1"/>
        <pt x="388" y="497" on="0"/>
        <pt x="465" y="428" on="0"/>
        <pt x="465" y="348" on="1"/>
        <pt x="465" y="0" on="1"/>
        <pt x="415" y="0" on="1"/>
        <pt x="407" y="85" on="1"/>
        <pt x="371" y="49" on="0"/>
        <pt x="256" y="-8" on="0"/>
        <pt x="195" y="-8" on="1"/>
        <pt x="131" y="-8" on="0"/>
        <pt x="57" y="60" on="0"/>
        <pt x="57" y="123" on="1"/>
        <pt x="57" y="179" on="1"/>
        <pt x="57" y="235" on="0"/>
        <pt x="123" y="297" on="0"/>
        <pt x="184" y="297" on="1"/>
        <pt x="401" y="297" on="1"/>
        <pt x="401" y="348" on="1"/>
        <pt x="401" y="396" on="0"/>
        <pt x="356" y="442" on="0"/>
        <pt x="298" y="442" on="1"/>
        <pt x="212" y="442" on="0"/>
      </contour>
      <contour>
        <pt x="121" y="171" on="1"/>
        <pt x="121" y="129" on="1"/>
        <pt x="121" y="48" on="0"/>
        <pt x="206" y="48" on="1"/>
        <pt x="250" y="47" on="0"/>
        <pt x="359" y="92" on="0"/>
        <pt x="401" y="130" on="1"/>
        <pt x="401" y="246" on="1"/>
        <pt x="194" y="246" on="1"/>
        <pt x="121" y="243" on="0"/>
      </contour>
    </TTGlyph>
    <TTGlyph name="amacron" xMin="57" yMin="-8" xMax="465" yMax="661">
      <contour>
        <pt x="405" y="612" on="1"/>
        <pt x="132" y="612" on="1"/>
        <pt x="132" y="661" on="1"/>
        <pt x="405" y="661" on="1"/>
      </contour>
      <contour>
        <pt x="83" y="428" on="1"/>
        <pt x="77" y="475" on="1"/>
        <pt x="222" y="497" on="0"/>
        <pt x="310" y="497" on="1"/>
        <pt x="388" y="497" on="0"/>
        <pt x="465" y="428" on="0"/>
        <pt x="465" y="348" on="1"/>
        <pt x="465" y="0" on="1"/>
        <pt x="415" y="0" on="1"/>
        <pt x="407" y="85" on="1"/>
        <pt x="371" y="49" on="0"/>
        <pt x="256" y="-8" on="0"/>
        <pt x="195" y="-8" on="1"/>
        <pt x="131" y="-8" on="0"/>
        <pt x="57" y="60" on="0"/>
        <pt x="57" y="123" on="1"/>
        <pt x="57" y="179" on="1"/>
        <pt x="57" y="235" on="0"/>
        <pt x="123" y="297" on="0"/>
        <pt x="184" y="297" on="1"/>
        <pt x="401" y="297" on="1"/>
        <pt x="401" y="348" on="1"/>
        <pt x="401" y="396" on="0"/>
        <pt x="356" y="442" on="0"/>
        <pt x="298" y="442" on="1"/>
        <pt x="212" y="442" on="0"/>
      </contour>
      <contour>
        <pt x="121" y="171" on="1"/>
        <pt x="121" y="129" on="1"/>
        <pt x="121" y="48" on="0"/>
        <pt x="206" y="48" on="1"/>
        <pt x="250" y="47" on="0"/>
        <pt x="359" y="92" on="0"/>
        <pt x="401" y="130" on="1"/>
        <pt x="401" y="246" on="1"/>
        <pt x="194" y="246" on="1"/>
        <pt x="121" y="243" on="0"/>
      </contour>
    </TTGlyph>
    <TTGlyph name="ampersand" xMin="72" yMin="-9" xMax="725" yMax="699">
      <contour>
        <pt x="718" y="48" on="1"/>
        <pt x="725" y="2" on="1"/>
        <pt x="677" y="-8" on="0"/>
        <pt x="627" y="-8" on="1"/>
        <pt x="521" y="-8" on="0"/>
        <pt x="510" y="83" on="1"/>
        <pt x="464" y="33" on="0"/>
        <pt x="354" y="-9" on="0"/>
        <pt x="272" y="-9" on="1"/>
        <pt x="162" y="-9" on="0"/>
        <pt x="72" y="71" on="0"/>
        <pt x="72" y="174" on="1"/>
        <pt x="72" y="258" on="0"/>
        <pt x="134" y="350" on="0"/>
        <pt x="208" y="356" on="1"/>
        <pt x="208" y="360" on="1"/>
        <pt x="145" y="365" on="0"/>
        <pt x="92" y="444" on="0"/>
        <pt x="92" y="521" on="1"/>
        <pt x="92" y="580" on="0"/>
        <pt x="120" y="652" on="0"/>
        <pt x="190" y="688" on="0"/>
        <pt x="276" y="699" on="0"/>
        <pt x="351" y="699" on="1"/>
        <pt x="441" y="699" on="0"/>
        <pt x="510" y="690" on="1"/>
        <pt x="502" y="641" on="1"/>
        <pt x="466" y="644" on="0"/>
        <pt x="349" y="644" on="1"/>
        <pt x="236" y="644" on="0"/>
        <pt x="158" y="596" on="0"/>
        <pt x="158" y="513" on="1"/>
        <pt x="158" y="436" on="0"/>
        <pt x="222" y="383" on="0"/>
        <pt x="307" y="383" on="1"/>
        <pt x="510" y="383" on="1"/>
        <pt x="517" y="521" on="1"/>
        <pt x="569" y="521" on="1"/>
        <pt x="569" y="383" on="1"/>
        <pt x="700" y="383" on="1"/>
        <pt x="699" y="332" on="1"/>
        <pt x="569" y="332" on="1"/>
        <pt x="569" y="119" on="1"/>
        <pt x="569" y="82" on="0"/>
        <pt x="603" y="48" on="0"/>
        <pt x="639" y="48" on="1"/>
      </contour>
      <contour>
        <pt x="509" y="332" on="1"/>
        <pt x="304" y="332" on="1"/>
        <pt x="212" y="332" on="0"/>
        <pt x="140" y="269" on="0"/>
        <pt x="140" y="184" on="1"/>
        <pt x="140" y="106" on="0"/>
        <pt x="203" y="48" on="0"/>
        <pt x="285" y="48" on="1"/>
        <pt x="428" y="48" on="0"/>
        <pt x="509" y="139" on="1"/>
      </contour>
    </TTGlyph>
    <TTGlyph name="aogonek" xMin="57" yMin="-202" xMax="477" yMax="497">
      <contour>
        <pt x="470" y="-166" on="1"/>
        <pt x="477" y="-194" on="1"/>
        <pt x="391" y="-227" on="0"/>
        <pt x="320" y="-176" on="0"/>
        <pt x="340" y="-120" on="1"/>
        <pt x="360" y="-60" on="0"/>
        <pt x="431" y="0" on="1"/>
        <pt x="415" y="0" on="1"/>
        <pt x="407" y="85" on="1"/>
        <pt x="371" y="49" on="0"/>
        <pt x="256" y="-8" on="0"/>
        <pt x="195" y="-8" on="1"/>
        <pt x="131" y="-8" on="0"/>
        <pt x="57" y="60" on="0"/>
        <pt x="57" y="123" on="1"/>
        <pt x="57" y="179" on="1"/>
        <pt x="57" y="235" on="0"/>
        <pt x="123" y="297" on="0"/>
        <pt x="184" y="297" on="1"/>
        <pt x="401" y="297" on="1"/>
        <pt x="401" y="348" on="1"/>
        <pt x="401" y="396" on="0"/>
        <pt x="356" y="442" on="0"/>
        <pt x="298" y="442" on="1"/>
        <pt x="212" y="442" on="0"/>
        <pt x="83" y="428" on="1"/>
        <pt x="77" y="475" on="1"/>
        <pt x="222" y="497" on="0"/>
        <pt x="310" y="497" on="1"/>
        <pt x="388" y="497" on="0"/>
        <pt x="465" y="428" on="0"/>
        <pt x="465" y="348" on="1"/>
        <pt x="465" y="0" on="1"/>
        <pt x="407" y="-64" on="0"/>
        <pt x="386" y="-118" on="1"/>
        <pt x="370" y="-158" on="0"/>
        <pt x="419" y="-184" on="0"/>
      </contour>
      <contour>
        <pt x="121" y="171" on="1"/>
        <pt x="121" y="129" on="1"/>
        <pt x="121" y="48" on="0"/>
        <pt x="206" y="48" on="1"/>
        <pt x="250" y="47" on="0"/>
        <pt x="359" y="92" on="0"/>
        <pt x="401" y="130" on="1"/>
        <pt x="401" y="246" on="1"/>
        <pt x="194" y="246" on="1"/>
        <pt x="121" y="243" on="0"/>
      </contour>
    </TTGlyph>
    <TTGlyph name="approxequal" xMin="80" yMin="140" xMax="510" yMax="442">
      <contour>
        <pt x="124" y="333" on="1"/>
        <pt x="80" y="333" on="1"/>
        <pt x="69" y="444" on="0"/>
        <pt x="170" y="442" on="1"/>
        <pt x="208" y="442" on="0"/>
        <pt x="378" y="382" on="0"/>
        <pt x="418" y="381" on="1"/>
        <pt x="444" y="380" on="0"/>
        <pt x="465" y="403" on="0"/>
        <pt x="465" y="437" on="1"/>
        <pt x="510" y="437" on="1"/>
        <pt x="515" y="383" on="0"/>
        <pt x="470" y="330" on="0"/>
        <pt x="418" y="331" on="1"/>
        <pt x="375" y="331" on="0"/>
        <pt x="207" y="392" on="0"/>
        <pt x="172" y="393" on="1"/>
        <pt x="146" y="393" on="0"/>
        <pt x="124" y="368" on="0"/>
      </contour>
      <contour>
        <pt x="124" y="142" on="1"/>
        <pt x="80" y="142" on="1"/>
        <pt x="74" y="201" on="0"/>
        <pt x="123" y="253" on="0"/>
        <pt x="170" y="251" on="1"/>
        <pt x="208" y="251" on="0"/>
        <pt x="378" y="191" on="0"/>
        <pt x="418" y="190" on="1"/>
        <pt x="443" y="189" on="0"/>
        <pt x="465" y="212" on="0"/>
        <pt x="465" y="246" on="1"/>
        <pt x="510" y="246" on="1"/>
        <pt x="515" y="192" on="0"/>
        <pt x="470" y="139" on="0"/>
        <pt x="418" y="140" on="1"/>
        <pt x="375" y="141" on="0"/>
        <pt x="207" y="201" on="0"/>
        <pt x="172" y="202" on="1"/>
        <pt x="146" y="202" on="0"/>
        <pt x="124" y="178" on="0"/>
      </contour>
    </TTGlyph>
    <TTGlyph name="aring" xMin="57" yMin="-8" xMax="465" yMax="738">
      <contour>
        <pt x="311" y="536" on="0"/>
        <pt x="225" y="536" on="0"/>
        <pt x="165" y="594" on="0"/>
        <pt x="165" y="637" on="1"/>
        <pt x="165" y="679" on="0"/>
        <pt x="226" y="738" on="0"/>
        <pt x="268" y="738" on="1"/>
        <pt x="311" y="738" on="0"/>
        <pt x="372" y="679" on="0"/>
        <pt x="372" y="637" on="1"/>
        <pt x="372" y="594" on="0"/>
      </contour>
      <contour>
        <pt x="296" y="703" on="0"/>
        <pt x="240" y="703" on="0"/>
        <pt x="203" y="666" on="0"/>
        <pt x="203" y="608" on="0"/>
        <pt x="240" y="571" on="0"/>
        <pt x="296" y="571" on="0"/>
        <pt x="334" y="608" on="0"/>
        <pt x="334" y="666" on="0"/>
      </contour>
      <contour>
        <pt x="83" y="428" on="1"/>
        <pt x="77" y="475" on="1"/>
        <pt x="222" y="497" on="0"/>
        <pt x="310" y="497" on="1"/>
        <pt x="388" y="497" on="0"/>
        <pt x="465" y="428" on="0"/>
        <pt x="465" y="348" on="1"/>
        <pt x="465" y="0" on="1"/>
        <pt x="415" y="0" on="1"/>
        <pt x="407" y="85" on="1"/>
        <pt x="371" y="49" on="0"/>
        <pt x="256" y="-8" on="0"/>
        <pt x="195" y="-8" on="1"/>
        <pt x="131" y="-8" on="0"/>
        <pt x="57" y="60" on="0"/>
        <pt x="57" y="123" on="1"/>
        <pt x="57" y="179" on="1"/>
        <pt x="57" y="235" on="0"/>
        <pt x="123" y="297" on="0"/>
        <pt x="184" y="297" on="1"/>
        <pt x="401" y="297" on="1"/>
        <pt x="401" y="348" on="1"/>
        <pt x="401" y="396" on="0"/>
        <pt x="356" y="442" on="0"/>
        <pt x="298" y="442" on="1"/>
        <pt x="212" y="442" on="0"/>
      </contour>
      <contour>
        <pt x="121" y="171" on="1"/>
        <pt x="121" y="129" on="1"/>
        <pt x="121" y="48" on="0"/>
        <pt x="206" y="48" on="1"/>
        <pt x="250" y="47" on="0"/>
        <pt x="359" y="92" on="0"/>
        <pt x="401" y="130" on="1"/>
        <pt x="401" y="246" on="1"/>
        <pt x="194" y="246" on="1"/>
        <pt x="121" y="243" on="0"/>
      </contour>
    </TTGlyph>
    <TTGlyph name="asciicircum" xMin="30" yMin="367" xMax="384" yMax="591">
      <contour>
        <pt x="384" y="386" on="1"/>
        <pt x="358" y="367" on="1"/>
        <pt x="211" y="544" on="1"/>
        <pt x="203" y="544" on="1"/>
        <pt x="57" y="367" on="1"/>
        <pt x="30" y="386" on="1"/>
        <pt x="184" y="591" on="1"/>
        <pt x="230" y="591" on="1"/>
      </contour>
    </TTGlyph>
    <TTGlyph name="asciitilde" xMin="80" yMin="231" xMax="448" yMax="341">
      <contour>
        <pt x="115" y="233" on="1"/>
        <pt x="80" y="233" on="1"/>
        <pt x="76" y="287" on="0"/>
        <pt x="119" y="343" on="0"/>
        <pt x="157" y="341" on="1"/>
        <pt x="196" y="339" on="0"/>
        <pt x="330" y="282" on="0"/>
        <pt x="364" y="279" on="1"/>
        <pt x="392" y="277" on="0"/>
        <pt x="414" y="303" on="0"/>
        <pt x="414" y="336" on="1"/>
        <pt x="448" y="336" on="1"/>
        <pt x="453" y="283" on="0"/>
        <pt x="411" y="228" on="0"/>
        <pt x="372" y="231" on="1"/>
        <pt x="325" y="233" on="0"/>
        <pt x="193" y="290" on="0"/>
        <pt x="164" y="292" on="1"/>
        <pt x="137" y="295" on="0"/>
        <pt x="115" y="267" on="0"/>
      </contour>
    </TTGlyph>
    <TTGlyph name="asterisk" xMin="60" yMin="379" xMax="391" yMax="690">
      <contour>
        <pt x="240" y="533" on="1"/>
        <pt x="338" y="404" on="1"/>
        <pt x="305" y="379" on="1"/>
        <pt x="225" y="504" on="1"/>
        <pt x="146" y="380" on="1"/>
        <pt x="112" y="405" on="1"/>
        <pt x="210" y="533" on="1"/>
        <pt x="205" y="690" on="1"/>
        <pt x="247" y="690" on="1"/>
      </contour>
      <contour>
        <pt x="194" y="553" on="1"/>
        <pt x="193" y="535" on="1"/>
        <pt x="185" y="523" on="1"/>
        <pt x="60" y="559" on="1"/>
        <pt x="74" y="598" on="1"/>
      </contour>
      <contour>
        <pt x="391" y="557" on="1"/>
        <pt x="266" y="523" on="1"/>
        <pt x="257" y="535" on="1"/>
        <pt x="257" y="553" on="1"/>
        <pt x="378" y="597" on="1"/>
      </contour>
    </TTGlyph>
    <TTGlyph name="at" xMin="82" yMin="-54" xMax="632" yMax="578">
      <contour>
        <pt x="346" y="578" on="1"/>
        <pt x="489" y="578" on="1"/>
        <pt x="559" y="578" on="0"/>
        <pt x="632" y="515" on="0"/>
        <pt x="632" y="445" on="1"/>
        <pt x="632" y="131" on="1"/>
        <pt x="585" y="131" on="1"/>
        <pt x="578" y="208" on="1"/>
        <pt x="545" y="176" on="0"/>
        <pt x="427" y="124" on="0"/>
        <pt x="368" y="124" on="1"/>
        <pt x="308" y="124" on="0"/>
        <pt x="239" y="183" on="0"/>
        <pt x="239" y="238" on="1"/>
        <pt x="239" y="290" on="1"/>
        <pt x="239" y="338" on="0"/>
        <pt x="299" y="391" on="0"/>
        <pt x="354" y="391" on="1"/>
        <pt x="573" y="391" on="1"/>
        <pt x="573" y="443" on="1"/>
        <pt x="573" y="485" on="0"/>
        <pt x="531" y="525" on="0"/>
        <pt x="478" y="525" on="1"/>
        <pt x="347" y="525" on="1"/>
        <pt x="309" y="525" on="0"/>
        <pt x="264" y="523" on="0"/>
        <pt x="215" y="515" on="0"/>
        <pt x="190" y="502" on="0"/>
        <pt x="164" y="473" on="0"/>
        <pt x="154" y="439" on="0"/>
        <pt x="144" y="381" on="0"/>
        <pt x="142" y="315" on="0"/>
        <pt x="142" y="266" on="1"/>
        <pt x="142" y="215" on="0"/>
        <pt x="144" y="147" on="0"/>
        <pt x="155" y="87" on="0"/>
        <pt x="166" y="52" on="0"/>
        <pt x="196" y="23" on="0"/>
        <pt x="224" y="10" on="0"/>
        <pt x="281" y="1" on="0"/>
        <pt x="332" y="0" on="0"/>
        <pt x="377" y="0" on="1"/>
        <pt x="629" y="0" on="1"/>
        <pt x="629" y="-48" on="1"/>
        <pt x="504" y="-54" on="0"/>
        <pt x="378" y="-54" on="1"/>
        <pt x="307" y="-55" on="0"/>
        <pt x="220" y="-49" on="0"/>
        <pt x="147" y="-22" on="0"/>
        <pt x="112" y="16" on="0"/>
        <pt x="88" y="95" on="0"/>
        <pt x="82" y="188" on="0"/>
        <pt x="82" y="265" on="1"/>
        <pt x="82" y="340" on="0"/>
        <pt x="87" y="429" on="0"/>
        <pt x="109" y="507" on="0"/>
        <pt x="140" y="544" on="0"/>
        <pt x="204" y="571" on="0"/>
        <pt x="282" y="578" on="0"/>
      </contour>
      <contour>
        <pt x="573" y="352" on="1"/>
        <pt x="373" y="348" on="1"/>
        <pt x="299" y="345" on="0"/>
        <pt x="299" y="283" on="1"/>
        <pt x="299" y="248" on="1"/>
        <pt x="299" y="176" on="0"/>
        <pt x="378" y="176" on="1"/>
        <pt x="425" y="175" on="0"/>
        <pt x="536" y="216" on="0"/>
        <pt x="573" y="248" on="1"/>
      </contour>
    </TTGlyph>
    <TTGlyph name="atilde" xMin="57" yMin="-8" xMax="465" yMax="694">
      <contour>
        <pt x="147" y="589" on="1"/>
        <pt x="115" y="589" on="1"/>
        <pt x="111" y="642" on="0"/>
        <pt x="154" y="697" on="0"/>
        <pt x="192" y="694" on="1"/>
        <pt x="223" y="691" on="0"/>
        <pt x="310" y="637" on="0"/>
        <pt x="338" y="634" on="1"/>
        <pt x="367" y="631" on="0"/>
        <pt x="390" y="657" on="0"/>
        <pt x="390" y="689" on="1"/>
        <pt x="421" y="689" on="1"/>
        <pt x="426" y="638" on="0"/>
        <pt x="383" y="584" on="0"/>
        <pt x="345" y="587" on="1"/>
        <pt x="308" y="590" on="0"/>
        <pt x="219" y="645" on="0"/>
        <pt x="198" y="648" on="1"/>
        <pt x="170" y="651" on="0"/>
        <pt x="147" y="622" on="0"/>
      </contour>
      <contour>
        <pt x="83" y="428" on="1"/>
        <pt x="77" y="475" on="1"/>
        <pt x="222" y="497" on="0"/>
        <pt x="310" y="497" on="1"/>
        <pt x="388" y="497" on="0"/>
        <pt x="465" y="428" on="0"/>
        <pt x="465" y="348" on="1"/>
        <pt x="465" y="0" on="1"/>
        <pt x="415" y="0" on="1"/>
        <pt x="407" y="85" on="1"/>
        <pt x="371" y="49" on="0"/>
        <pt x="256" y="-8" on="0"/>
        <pt x="195" y="-8" on="1"/>
        <pt x="131" y="-8" on="0"/>
        <pt x="57" y="60" on="0"/>
        <pt x="57" y="123" on="1"/>
        <pt x="57" y="179" on="1"/>
        <pt x="57" y="235" on="0"/>
        <pt x="123" y="297" on="0"/>
        <pt x="184" y="297" on="1"/>
        <pt x="401" y="297" on="1"/>
        <pt x="401" y="348" on="1"/>
        <pt x="401" y="396" on="0"/>
        <pt x="356" y="442" on="0"/>
        <pt x="298" y="442" on="1"/>
        <pt x="212" y="442" on="0"/>
      </contour>
      <contour>
        <pt x="121" y="171" on="1"/>
        <pt x="121" y="129" on="1"/>
        <pt x="121" y="48" on="0"/>
        <pt x="206" y="48" on="1"/>
        <pt x="250" y="47" on="0"/>
        <pt x="359" y="92" on="0"/>
        <pt x="401" y="130" on="1"/>
        <pt x="401" y="246" on="1"/>
        <pt x="194" y="246" on="1"/>
        <pt x="121" y="243" on="0"/>
      </contour>
    </TTGlyph>
    <TTGlyph name="b" xMin="82" yMin="-12" xMax="506" yMax="700">
      <contour>
        <pt x="145" y="700" on="1"/>
        <pt x="145" y="506" on="1"/>
        <pt x="145" y="436" on="0"/>
        <pt x="138" y="402" on="1"/>
        <pt x="235" y="497" on="0"/>
        <pt x="330" y="497" on="1"/>
        <pt x="423" y="497" on="0"/>
        <pt x="506" y="379" on="0"/>
        <pt x="506" y="243" on="1"/>
        <pt x="506" y="110" on="0"/>
        <pt x="413" y="-12" on="0"/>
        <pt x="298" y="-12" on="1"/>
        <pt x="187" y="-12" on="0"/>
        <pt x="82" y="21" on="1"/>
        <pt x="82" y="700" on="1"/>
      </contour>
      <contour>
        <pt x="145" y="359" on="1"/>
        <pt x="145" y="62" on="1"/>
        <pt x="219" y="41" on="0"/>
        <pt x="297" y="43" on="1"/>
        <pt x="375" y="43" on="0"/>
        <pt x="440" y="133" on="0"/>
        <pt x="440" y="243" on="1"/>
        <pt x="440" y="354" on="0"/>
        <pt x="385" y="441" on="0"/>
        <pt x="312" y="441" on="1"/>
        <pt x="273" y="441" on="0"/>
        <pt x="200" y="402" on="0"/>
      </contour>
    </TTGlyph>
    <TTGlyph name="backslash" xMin="31" yMin="-63" xMax="479" yMax="690">
      <contour>
        <pt x="479" y="-63" on="1"/>
        <pt x="424" y="-63" on="1"/>
        <pt x="31" y="690" on="1"/>
        <pt x="86" y="690" on="1"/>
      </contour>
    </TTGlyph>
    <TTGlyph name="bar" xMin="97" yMin="-169" xMax="145" yMax="781">
      <contour>
        <pt x="145" y="-169" on="1"/>
        <pt x="97" y="-169" on="1"/>
        <pt x="97" y="781" on="1"/>
        <pt x="145" y="781" on="1"/>
      </contour>
    </TTGlyph>
    <TTGlyph name="braceleft" xMin="49" yMin="-165" xMax="270" yMax="768">
      <contour>
        <pt x="266" y="768" on="1"/>
        <pt x="266" y="727" on="1"/>
        <pt x="212" y="727" on="0"/>
        <pt x="171" y="684" on="0"/>
        <pt x="171" y="634" on="1"/>
        <pt x="171" y="445" on="1"/>
        <pt x="172" y="385" on="0"/>
        <pt x="138" y="339" on="0"/>
        <pt x="87" y="328" on="1"/>
        <pt x="139" y="311" on="0"/>
        <pt x="175" y="267" on="0"/>
        <pt x="175" y="215" on="1"/>
        <pt x="175" y="-31" on="1"/>
        <pt x="175" y="-81" on="0"/>
        <pt x="216" y="-124" on="0"/>
        <pt x="270" y="-124" on="1"/>
        <pt x="270" y="-165" on="1"/>
        <pt x="188" y="-169" on="0"/>
        <pt x="114" y="-105" on="0"/>
        <pt x="114" y="-35" on="1"/>
        <pt x="114" y="227" on="1"/>
        <pt x="114" y="247" on="0"/>
        <pt x="109" y="270" on="0"/>
        <pt x="87" y="288" on="0"/>
        <pt x="73" y="294" on="0"/>
        <pt x="49" y="303" on="1"/>
        <pt x="49" y="353" on="1"/>
        <pt x="74" y="361" on="0"/>
        <pt x="87" y="366" on="0"/>
        <pt x="107" y="384" on="0"/>
        <pt x="110" y="409" on="0"/>
        <pt x="110" y="433" on="1"/>
        <pt x="110" y="638" on="1"/>
        <pt x="110" y="708" on="0"/>
        <pt x="184" y="772" on="0"/>
      </contour>
    </TTGlyph>
    <TTGlyph name="braceright" xMin="42" yMin="-165" xMax="263" yMax="768">
      <contour>
        <pt x="46" y="727" on="1"/>
        <pt x="46" y="768" on="1"/>
        <pt x="128" y="772" on="0"/>
        <pt x="202" y="708" on="0"/>
        <pt x="202" y="638" on="1"/>
        <pt x="202" y="433" on="1"/>
        <pt x="202" y="409" on="0"/>
        <pt x="205" y="384" on="0"/>
        <pt x="225" y="366" on="0"/>
        <pt x="238" y="361" on="0"/>
        <pt x="263" y="353" on="1"/>
        <pt x="263" y="303" on="1"/>
        <pt x="219" y="286" on="0"/>
        <pt x="210" y="275" on="1"/>
        <pt x="198" y="261" on="0"/>
        <pt x="198" y="227" on="1"/>
        <pt x="198" y="-35" on="1"/>
        <pt x="198" y="-105" on="0"/>
        <pt x="124" y="-169" on="0"/>
        <pt x="42" y="-165" on="1"/>
        <pt x="42" y="-124" on="1"/>
        <pt x="96" y="-124" on="0"/>
        <pt x="137" y="-81" on="0"/>
        <pt x="137" y="-31" on="1"/>
        <pt x="137" y="215" on="1"/>
        <pt x="137" y="267" on="0"/>
        <pt x="173" y="311" on="0"/>
        <pt x="225" y="328" on="1"/>
        <pt x="174" y="339" on="0"/>
        <pt x="140" y="385" on="0"/>
        <pt x="141" y="445" on="1"/>
        <pt x="141" y="634" on="1"/>
        <pt x="141" y="684" on="0"/>
        <pt x="100" y="727" on="0"/>
      </contour>
    </TTGlyph>
    <TTGlyph name="bracketleft" xMin="97" yMin="-165" xMax="278" yMax="768">
      <contour>
        <pt x="278" y="724" on="1"/>
        <pt x="171" y="724" on="1"/>
        <pt x="157" y="724" on="0"/>
        <pt x="157" y="710" on="1"/>
        <pt x="157" y="-107" on="1"/>
        <pt x="157" y="-121" on="0"/>
        <pt x="171" y="-121" on="1"/>
        <pt x="278" y="-121" on="1"/>
        <pt x="278" y="-165" on="1"/>
        <pt x="142" y="-165" on="1"/>
        <pt x="122" y="-165" on="0"/>
        <pt x="97" y="-141" on="0"/>
        <pt x="97" y="-119" on="1"/>
        <pt x="97" y="722" on="1"/>
        <pt x="97" y="742" on="0"/>
        <pt x="122" y="768" on="0"/>
        <pt x="142" y="768" on="1"/>
        <pt x="278" y="768" on="1"/>
      </contour>
    </TTGlyph>
    <TTGlyph name="bracketright" xMin="44" yMin="-165" xMax="226" yMax="768">
      <contour>
        <pt x="44" y="768" on="1"/>
        <pt x="180" y="768" on="1"/>
        <pt x="200" y="768" on="0"/>
        <pt x="226" y="742" on="0"/>
        <pt x="226" y="722" on="1"/>
        <pt x="226" y="-119" on="1"/>
        <pt x="226" y="-139" on="0"/>
        <pt x="200" y="-165" on="0"/>
        <pt x="180" y="-165" on="1"/>
        <pt x="44" y="-165" on="1"/>
        <pt x="44" y="-121" on="1"/>
        <pt x="152" y="-121" on="1"/>
        <pt x="166" y="-121" on="0"/>
        <pt x="166" y="-107" on="1"/>
        <pt x="166" y="710" on="1"/>
        <pt x="166" y="724" on="0"/>
        <pt x="152" y="724" on="1"/>
        <pt x="44" y="724" on="1"/>
      </contour>
    </TTGlyph>
    <TTGlyph name="breve" xMin="40" yMin="562" xMax="330" yMax="693">
      <contour>
        <pt x="295" y="693" on="1"/>
        <pt x="330" y="687" on="1"/>
        <pt x="332" y="630" on="0"/>
        <pt x="254" y="562" on="0"/>
        <pt x="116" y="562" on="0"/>
        <pt x="37" y="631" on="0"/>
        <pt x="40" y="687" on="1"/>
        <pt x="74" y="693" on="1"/>
        <pt x="74" y="654" on="0"/>
        <pt x="133" y="611" on="0"/>
        <pt x="186" y="611" on="1"/>
        <pt x="237" y="611" on="0"/>
        <pt x="295" y="654" on="0"/>
      </contour>
    </TTGlyph>
    <TTGlyph name="brevecy" xMin="40" yMin="562" xMax="330" yMax="694">
      <contour>
        <pt x="279" y="694" on="1"/>
        <pt x="330" y="694" on="1"/>
        <pt x="332" y="637" on="0"/>
        <pt x="253" y="562" on="0"/>
        <pt x="186" y="562" on="1"/>
        <pt x="117" y="562" on="0"/>
        <pt x="37" y="637" on="0"/>
        <pt x="40" y="694" on="1"/>
        <pt x="90" y="694" on="1"/>
        <pt x="90" y="649" on="0"/>
        <pt x="141" y="599" on="0"/>
        <pt x="186" y="599" on="1"/>
        <pt x="229" y="599" on="0"/>
        <pt x="279" y="649" on="0"/>
      </contour>
    </TTGlyph>
    <TTGlyph name="brokenbar" xMin="98" yMin="-169" xMax="146" yMax="781">
      <contour>
        <pt x="146" y="381" on="1"/>
        <pt x="98" y="381" on="1"/>
        <pt x="98" y="781" on="1"/>
        <pt x="146" y="781" on="1"/>
      </contour>
      <contour>
        <pt x="146" y="-169" on="1"/>
        <pt x="98" y="-169" on="1"/>
        <pt x="98" y="231" on="1"/>
        <pt x="146" y="231" on="1"/>
      </contour>
    </TTGlyph>
    <TTGlyph name="bullet" xMin="96" yMin="184" xMax="262" yMax="351">
      <contour>
        <pt x="175" y="351" on="1"/>
        <pt x="186" y="351" on="1"/>
        <pt x="229" y="351" on="0"/>
        <pt x="262" y="317" on="0"/>
        <pt x="262" y="274" on="1"/>
        <pt x="262" y="263" on="1"/>
        <pt x="262" y="219" on="0"/>
        <pt x="229" y="184" on="0"/>
        <pt x="186" y="184" on="1"/>
        <pt x="175" y="184" on="1"/>
        <pt x="130" y="184" on="0"/>
        <pt x="96" y="219" on="0"/>
        <pt x="96" y="263" on="1"/>
        <pt x="96" y="274" on="1"/>
        <pt x="96" y="317" on="0"/>
        <pt x="130" y="351" on="0"/>
      </contour>
    </TTGlyph>
    <TTGlyph name="c" xMin="60" yMin="-12" xMax="445" yMax="497">
      <contour>
        <pt x="438" y="54" on="1"/>
        <pt x="445" y="10" on="1"/>
        <pt x="371" y="-12" on="0"/>
        <pt x="287" y="-12" on="1"/>
        <pt x="162" y="-12" on="0"/>
        <pt x="60" y="102" on="0"/>
        <pt x="60" y="382" on="0"/>
        <pt x="162" y="497" on="0"/>
        <pt x="287" y="497" on="1"/>
        <pt x="376" y="497" on="0"/>
        <pt x="436" y="475" on="1"/>
        <pt x="426" y="434" on="1"/>
        <pt x="373" y="442" on="0"/>
        <pt x="297" y="442" on="1"/>
        <pt x="201" y="442" on="0"/>
        <pt x="126" y="357" on="0"/>
        <pt x="126" y="127" on="0"/>
        <pt x="201" y="43" on="0"/>
        <pt x="297" y="43" on="1"/>
        <pt x="381" y="43" on="0"/>
      </contour>
    </TTGlyph>
    <TTGlyph name="cacute" xMin="60" yMin="-12" xMax="445" yMax="726">
      <contour>
        <pt x="412" y="678" on="1"/>
        <pt x="234" y="550" on="1"/>
        <pt x="210" y="580" on="1"/>
        <pt x="374" y="726" on="1"/>
      </contour>
      <contour>
        <pt x="438" y="54" on="1"/>
        <pt x="445" y="10" on="1"/>
        <pt x="371" y="-12" on="0"/>
        <pt x="287" y="-12" on="1"/>
        <pt x="162" y="-12" on="0"/>
        <pt x="60" y="102" on="0"/>
        <pt x="60" y="382" on="0"/>
        <pt x="162" y="497" on="0"/>
        <pt x="287" y="497" on="1"/>
        <pt x="376" y="497" on="0"/>
        <pt x="436" y="475" on="1"/>
        <pt x="426" y="434" on="1"/>
        <pt x="373" y="442" on="0"/>
        <pt x="297" y="442" on="1"/>
        <pt x="201" y="442" on="0"/>
        <pt x="126" y="357" on="0"/>
        <pt x="126" y="127" on="0"/>
        <pt x="201" y="43" on="0"/>
        <pt x="297" y="43" on="1"/>
        <pt x="381" y="43" on="0"/>
      </contour>
    </TTGlyph>
    <TTGlyph name="caron" xMin="49" yMin="566" xMax="363" yMax="717">
      <contour>
        <pt x="363" y="689" on="1"/>
        <pt x="221" y="566" on="1"/>
        <pt x="189" y="566" on="1"/>
        <pt x="49" y="689" on="1"/>
        <pt x="72" y="717" on="1"/>
        <pt x="201" y="625" on="1"/>
        <pt x="209" y="625" on="1"/>
        <pt x="339" y="717" on="1"/>
      </contour>
    </TTGlyph>
    <TTGlyph name="ccaron" xMin="60" yMin="-12" xMax="445" yMax="717">
      <contour>
        <pt x="428" y="689" on="1"/>
        <pt x="287" y="566" on="1"/>
        <pt x="255" y="566" on="1"/>
        <pt x="114" y="689" on="1"/>
        <pt x="137" y="717" on="1"/>
        <pt x="267" y="625" on="1"/>
        <pt x="275" y="625" on="1"/>
        <pt x="404" y="717" on="1"/>
      </contour>
      <contour>
        <pt x="438" y="54" on="1"/>
        <pt x="445" y="10" on="1"/>
        <pt x="371" y="-12" on="0"/>
        <pt x="287" y="-12" on="1"/>
        <pt x="162" y="-12" on="0"/>
        <pt x="60" y="102" on="0"/>
        <pt x="60" y="382" on="0"/>
        <pt x="162" y="497" on="0"/>
        <pt x="287" y="497" on="1"/>
        <pt x="376" y="497" on="0"/>
        <pt x="436" y="475" on="1"/>
        <pt x="426" y="434" on="1"/>
        <pt x="373" y="442" on="0"/>
        <pt x="297" y="442" on="1"/>
        <pt x="201" y="442" on="0"/>
        <pt x="126" y="357" on="0"/>
        <pt x="126" y="127" on="0"/>
        <pt x="201" y="43" on="0"/>
        <pt x="297" y="43" on="1"/>
        <pt x="381" y="43" on="0"/>
      </contour>
    </TTGlyph>
    <TTGlyph name="ccedilla" xMin="60" yMin="-238" xMax="445" yMax="497">
      <contour>
        <pt x="438" y="54" on="1"/>
        <pt x="445" y="10" on="1"/>
        <pt x="371" y="-12" on="0"/>
        <pt x="287" y="-12" on="1"/>
        <pt x="162" y="-12" on="0"/>
        <pt x="60" y="102" on="0"/>
        <pt x="60" y="382" on="0"/>
        <pt x="162" y="497" on="0"/>
        <pt x="287" y="497" on="1"/>
        <pt x="376" y="497" on="0"/>
        <pt x="436" y="475" on="1"/>
        <pt x="426" y="434" on="1"/>
        <pt x="373" y="442" on="0"/>
        <pt x="297" y="442" on="1"/>
        <pt x="201" y="442" on="0"/>
        <pt x="126" y="357" on="0"/>
        <pt x="126" y="127" on="0"/>
        <pt x="201" y="43" on="0"/>
        <pt x="297" y="43" on="1"/>
        <pt x="381" y="43" on="0"/>
      </contour>
      <contour>
        <pt x="236" y="-88" on="1"/>
        <pt x="243" y="-57" on="1"/>
        <pt x="296" y="-52" on="0"/>
        <pt x="344" y="-81" on="0"/>
        <pt x="343" y="-122" on="1"/>
        <pt x="341" y="-182" on="0"/>
        <pt x="254" y="-247" on="0"/>
        <pt x="185" y="-238" on="1"/>
        <pt x="195" y="-203" on="1"/>
        <pt x="239" y="-204" on="0"/>
        <pt x="294" y="-160" on="0"/>
        <pt x="295" y="-126" on="1"/>
        <pt x="296" y="-105" on="0"/>
        <pt x="271" y="-89" on="0"/>
      </contour>
    </TTGlyph>
    <TTGlyph name="cdotaccent" xMin="60" yMin="-12" xMax="445" yMax="684">
      <contour>
        <pt x="259" y="684" on="1"/>
        <pt x="280" y="684" on="1"/>
        <pt x="301" y="684" on="0"/>
        <pt x="301" y="663" on="1"/>
        <pt x="301" y="604" on="1"/>
        <pt x="301" y="584" on="0"/>
        <pt x="280" y="584" on="1"/>
        <pt x="259" y="584" on="1"/>
        <pt x="238" y="584" on="0"/>
        <pt x="238" y="604" on="1"/>
        <pt x="238" y="663" on="1"/>
        <pt x="238" y="684" on="0"/>
      </contour>
      <contour>
        <pt x="438" y="54" on="1"/>
        <pt x="445" y="10" on="1"/>
        <pt x="371" y="-12" on="0"/>
        <pt x="287" y="-12" on="1"/>
        <pt x="162" y="-12" on="0"/>
        <pt x="60" y="102" on="0"/>
        <pt x="60" y="382" on="0"/>
        <pt x="162" y="497" on="0"/>
        <pt x="287" y="497" on="1"/>
        <pt x="376" y="497" on="0"/>
        <pt x="436" y="475" on="1"/>
        <pt x="426" y="434" on="1"/>
        <pt x="373" y="442" on="0"/>
        <pt x="297" y="442" on="1"/>
        <pt x="201" y="442" on="0"/>
        <pt x="126" y="357" on="0"/>
        <pt x="126" y="127" on="0"/>
        <pt x="201" y="43" on="0"/>
        <pt x="297" y="43" on="1"/>
        <pt x="381" y="43" on="0"/>
      </contour>
    </TTGlyph>
    <TTGlyph name="cedilla" xMin="37" yMin="-226" xMax="194" yMax="-45">
      <contour>
        <pt x="88" y="-76" on="1"/>
        <pt x="95" y="-45" on="1"/>
        <pt x="147" y="-40" on="0"/>
        <pt x="195" y="-69" on="0"/>
        <pt x="194" y="-110" on="1"/>
        <pt x="192" y="-170" on="0"/>
        <pt x="105" y="-235" on="0"/>
        <pt x="37" y="-226" on="1"/>
        <pt x="47" y="-191" on="1"/>
        <pt x="91" y="-192" on="0"/>
        <pt x="146" y="-148" on="0"/>
        <pt x="147" y="-114" on="1"/>
        <pt x="147" y="-93" on="0"/>
        <pt x="122" y="-77" on="0"/>
      </contour>
    </TTGlyph>
    <TTGlyph name="cent" xMin="59" yMin="0" xMax="445" yMax="690">
      <contour>
        <pt x="438" y="161" on="1"/>
        <pt x="445" y="117" on="1"/>
        <pt x="371" y="95" on="0"/>
        <pt x="286" y="95" on="1"/>
        <pt x="284" y="95" on="1"/>
        <pt x="276" y="0" on="1"/>
        <pt x="240" y="0" on="1"/>
        <pt x="248" y="97" on="1"/>
        <pt x="145" y="104" on="0"/>
        <pt x="59" y="221" on="0"/>
        <pt x="59" y="350" on="1"/>
        <pt x="59" y="489" on="0"/>
        <pt x="162" y="604" on="0"/>
        <pt x="286" y="604" on="1"/>
        <pt x="289" y="604" on="1"/>
        <pt x="296" y="690" on="1"/>
        <pt x="333" y="690" on="1"/>
        <pt x="325" y="603" on="1"/>
        <pt x="393" y="597" on="0"/>
        <pt x="435" y="583" on="1"/>
        <pt x="426" y="539" on="1"/>
        <pt x="383" y="547" on="0"/>
        <pt x="320" y="549" on="1"/>
        <pt x="289" y="150" on="1"/>
        <pt x="297" y="150" on="1"/>
        <pt x="379" y="150" on="0"/>
      </contour>
      <contour>
        <pt x="253" y="152" on="1"/>
        <pt x="283" y="549" on="1"/>
        <pt x="194" y="547" on="0"/>
        <pt x="123" y="460" on="0"/>
        <pt x="123" y="350" on="1"/>
        <pt x="123" y="248" on="0"/>
        <pt x="182" y="160" on="0"/>
      </contour>
    </TTGlyph>
    <TTGlyph name="circumflex" xMin="49" yMin="558" xMax="362" yMax="710">
      <contour>
        <pt x="362" y="586" on="1"/>
        <pt x="339" y="558" on="1"/>
        <pt x="209" y="657" on="1"/>
        <pt x="201" y="657" on="1"/>
        <pt x="72" y="558" on="1"/>
        <pt x="49" y="586" on="1"/>
        <pt x="182" y="710" on="1"/>
        <pt x="229" y="710" on="1"/>
      </contour>
    </TTGlyph>
    <TTGlyph name="colon" xMin="75" yMin="0" xMax="146" yMax="437">
      <contour>
        <pt x="100" y="437" on="1"/>
        <pt x="122" y="437" on="1"/>
        <pt x="146" y="437" on="0"/>
        <pt x="146" y="412" on="1"/>
        <pt x="146" y="355" on="1"/>
        <pt x="146" y="330" on="0"/>
        <pt x="122" y="330" on="1"/>
        <pt x="100" y="330" on="1"/>
        <pt x="75" y="330" on="0"/>
        <pt x="75" y="355" on="1"/>
        <pt x="75" y="412" on="1"/>
        <pt x="75" y="437" on="0"/>
      </contour>
      <contour>
        <pt x="100" y="107" on="1"/>
        <pt x="122" y="107" on="1"/>
        <pt x="146" y="107" on="0"/>
        <pt x="146" y="82" on="1"/>
        <pt x="146" y="25" on="1"/>
        <pt x="146" y="0" on="0"/>
        <pt x="122" y="0" on="1"/>
        <pt x="100" y="0" on="1"/>
        <pt x="75" y="0" on="0"/>
        <pt x="75" y="25" on="1"/>
        <pt x="75" y="82" on="1"/>
        <pt x="75" y="107" on="0"/>
      </contour>
    </TTGlyph>
    <TTGlyph name="comma" xMin="76" yMin="-126" xMax="145" yMax="107">
      <contour>
        <pt x="101" y="107" on="1"/>
        <pt x="121" y="107" on="1"/>
        <pt x="145" y="107" on="0"/>
        <pt x="145" y="82" on="1"/>
        <pt x="145" y="18" on="1"/>
        <pt x="143" y="-62" on="0"/>
        <pt x="116" y="-126" on="1"/>
        <pt x="86" y="-117" on="1"/>
        <pt x="94" y="-53" on="0"/>
        <pt x="94" y="0" on="1"/>
        <pt x="74" y="0" on="0"/>
        <pt x="76" y="21" on="1"/>
        <pt x="76" y="82" on="1"/>
        <pt x="77" y="107" on="0"/>
      </contour>
    </TTGlyph>
    <TTGlyph name="copyright" xMin="64" yMin="-12" xMax="780" yMax="702">
      <contour>
        <pt x="422" y="702" on="1"/>
        <pt x="573" y="702" on="0"/>
        <pt x="780" y="499" on="0"/>
        <pt x="780" y="191" on="0"/>
        <pt x="573" y="-12" on="0"/>
        <pt x="422" y="-12" on="1"/>
        <pt x="272" y="-12" on="0"/>
        <pt x="64" y="191" on="0"/>
        <pt x="64" y="499" on="0"/>
        <pt x="272" y="702" on="0"/>
      </contour>
      <contour>
        <pt x="556" y="665" on="0"/>
        <pt x="288" y="665" on="0"/>
        <pt x="101" y="482" on="0"/>
        <pt x="101" y="208" on="0"/>
        <pt x="288" y="25" on="0"/>
        <pt x="556" y="25" on="0"/>
        <pt x="742" y="208" on="0"/>
        <pt x="742" y="482" on="0"/>
      </contour>
      <contour>
        <pt x="566" y="174" on="1"/>
        <pt x="571" y="137" on="1"/>
        <pt x="509" y="123" on="0"/>
        <pt x="427" y="123" on="1"/>
        <pt x="319" y="123" on="0"/>
        <pt x="232" y="224" on="0"/>
        <pt x="232" y="348" on="1"/>
        <pt x="232" y="471" on="0"/>
        <pt x="319" y="572" on="0"/>
        <pt x="427" y="572" on="1"/>
        <pt x="509" y="572" on="0"/>
        <pt x="561" y="559" on="1"/>
        <pt x="554" y="522" on="1"/>
        <pt x="500" y="527" on="0"/>
        <pt x="426" y="527" on="1"/>
        <pt x="346" y="527" on="0"/>
        <pt x="283" y="448" on="0"/>
        <pt x="283" y="348" on="1"/>
        <pt x="283" y="247" on="0"/>
        <pt x="346" y="168" on="0"/>
        <pt x="426" y="168" on="1"/>
        <pt x="518" y="168" on="0"/>
      </contour>
    </TTGlyph>
    <TTGlyph name="currency" xMin="72" yMin="127" xMax="523" yMax="576">
      <contour>
        <pt x="493" y="127" on="1"/>
        <pt x="419" y="201" on="1"/>
        <pt x="366" y="158" on="0"/>
        <pt x="298" y="158" on="1"/>
        <pt x="229" y="158" on="0"/>
        <pt x="176" y="200" on="1"/>
        <pt x="103" y="127" on="1"/>
        <pt x="72" y="158" on="1"/>
        <pt x="145" y="231" on="1"/>
        <pt x="103" y="284" on="0"/>
        <pt x="103" y="352" on="1"/>
        <pt x="103" y="421" on="0"/>
        <pt x="146" y="474" on="1"/>
        <pt x="74" y="546" on="1"/>
        <pt x="103" y="576" on="1"/>
        <pt x="175" y="503" on="1"/>
        <pt x="229" y="546" on="0"/>
        <pt x="367" y="546" on="0"/>
        <pt x="420" y="503" on="1"/>
        <pt x="494" y="576" on="1"/>
        <pt x="523" y="546" on="1"/>
        <pt x="449" y="474" on="1"/>
        <pt x="491" y="421" on="0"/>
        <pt x="491" y="283" on="0"/>
        <pt x="448" y="230" on="1"/>
        <pt x="523" y="156" on="1"/>
      </contour>
      <contour>
        <pt x="298" y="198" on="1"/>
        <pt x="360" y="197" on="0"/>
        <pt x="450" y="288" on="0"/>
        <pt x="450" y="416" on="0"/>
        <pt x="360" y="506" on="0"/>
        <pt x="298" y="506" on="1"/>
        <pt x="234" y="506" on="0"/>
        <pt x="144" y="416" on="0"/>
        <pt x="144" y="288" on="0"/>
        <pt x="234" y="197" on="0"/>
      </contour>
    </TTGlyph>
    <TTGlyph name="d" xMin="61" yMin="-12" xMax="484" yMax="700">
      <contour>
        <pt x="435" y="0" on="1"/>
        <pt x="428" y="75" on="1"/>
        <pt x="329" y="-12" on="0"/>
        <pt x="234" y="-12" on="1"/>
        <pt x="142" y="-12" on="0"/>
        <pt x="61" y="110" on="0"/>
        <pt x="61" y="243" on="1"/>
        <pt x="61" y="381" on="0"/>
        <pt x="147" y="497" on="0"/>
        <pt x="242" y="497" on="1"/>
        <pt x="334" y="497" on="0"/>
        <pt x="425" y="450" on="1"/>
        <pt x="421" y="483" on="0"/>
        <pt x="421" y="545" on="1"/>
        <pt x="421" y="700" on="1"/>
        <pt x="484" y="700" on="1"/>
        <pt x="484" y="0" on="1"/>
      </contour>
      <contour>
        <pt x="421" y="121" on="1"/>
        <pt x="421" y="406" on="1"/>
        <pt x="318" y="441" on="0"/>
        <pt x="255" y="441" on="1"/>
        <pt x="184" y="441" on="0"/>
        <pt x="127" y="356" on="0"/>
        <pt x="127" y="244" on="1"/>
        <pt x="127" y="131" on="0"/>
        <pt x="183" y="44" on="0"/>
        <pt x="252" y="44" on="1"/>
        <pt x="293" y="44" on="0"/>
        <pt x="365" y="78" on="0"/>
      </contour>
    </TTGlyph>
    <TTGlyph name="dagger" xMin="47" yMin="-110" xMax="399" yMax="691">
      <contour>
        <pt x="250" y="-110" on="1"/>
        <pt x="196" y="-110" on="1"/>
        <pt x="196" y="480" on="1"/>
        <pt x="193" y="691" on="1"/>
        <pt x="253" y="691" on="1"/>
        <pt x="250" y="480" on="1"/>
      </contour>
      <contour>
        <pt x="47" y="427" on="1"/>
        <pt x="47" y="484" on="1"/>
        <pt x="179" y="484" on="1"/>
        <pt x="179" y="435" on="1"/>
      </contour>
      <contour>
        <pt x="399" y="484" on="1"/>
        <pt x="399" y="427" on="1"/>
        <pt x="267" y="435" on="1"/>
        <pt x="267" y="484" on="1"/>
      </contour>
    </TTGlyph>
    <TTGlyph name="daggerdbl" xMin="65" yMin="-110" xMax="417" yMax="691">
      <contour>
        <pt x="268" y="483" on="1"/>
        <pt x="268" y="98" on="1"/>
        <pt x="271" y="-110" on="1"/>
        <pt x="212" y="-110" on="1"/>
        <pt x="214" y="98" on="1"/>
        <pt x="214" y="483" on="1"/>
        <pt x="212" y="691" on="1"/>
        <pt x="271" y="691" on="1"/>
      </contour>
      <contour>
        <pt x="417" y="427" on="1"/>
        <pt x="285" y="435" on="1"/>
        <pt x="285" y="484" on="1"/>
        <pt x="417" y="484" on="1"/>
      </contour>
      <contour>
        <pt x="197" y="435" on="1"/>
        <pt x="65" y="427" on="1"/>
        <pt x="65" y="484" on="1"/>
        <pt x="197" y="484" on="1"/>
      </contour>
      <contour>
        <pt x="197" y="146" on="1"/>
        <pt x="197" y="97" on="1"/>
        <pt x="65" y="97" on="1"/>
        <pt x="65" y="154" on="1"/>
      </contour>
      <contour>
        <pt x="417" y="97" on="1"/>
        <pt x="285" y="97" on="1"/>
        <pt x="285" y="146" on="1"/>
        <pt x="417" y="154" on="1"/>
      </contour>
    </TTGlyph>
    <TTGlyph name="dcaron" xMin="61" yMin="-12" xMax="616" yMax="703">
      <contour>
        <pt x="578" y="703" on="1"/>
        <pt x="595" y="703" on="1"/>
        <pt x="616" y="703" on="0"/>
        <pt x="616" y="682" on="1"/>
        <pt x="616" y="629" on="1"/>
        <pt x="614" y="564" on="0"/>
        <pt x="591" y="508" on="1"/>
        <pt x="564" y="516" on="1"/>
        <pt x="571" y="564" on="0"/>
        <pt x="571" y="614" on="1"/>
        <pt x="553" y="614" on="0"/>
        <pt x="555" y="632" on="1"/>
        <pt x="555" y="682" on="1"/>
        <pt x="556" y="703" on="0"/>
      </contour>
      <contour>
        <pt x="484" y="700" on="1"/>
        <pt x="484" y="0" on="1"/>
        <pt x="435" y="0" on="1"/>
        <pt x="428" y="75" on="1"/>
        <pt x="329" y="-12" on="0"/>
        <pt x="234" y="-12" on="1"/>
        <pt x="142" y="-12" on="0"/>
        <pt x="61" y="110" on="0"/>
        <pt x="61" y="243" on="1"/>
        <pt x="61" y="381" on="0"/>
        <pt x="147" y="497" on="0"/>
        <pt x="242" y="497" on="1"/>
        <pt x="334" y="497" on="0"/>
        <pt x="425" y="450" on="1"/>
        <pt x="421" y="483" on="0"/>
        <pt x="421" y="545" on="1"/>
        <pt x="421" y="700" on="1"/>
      </contour>
      <contour>
        <pt x="421" y="121" on="1"/>
        <pt x="421" y="406" on="1"/>
        <pt x="318" y="441" on="0"/>
        <pt x="255" y="441" on="1"/>
        <pt x="184" y="441" on="0"/>
        <pt x="127" y="356" on="0"/>
        <pt x="127" y="244" on="1"/>
        <pt x="127" y="131" on="0"/>
        <pt x="183" y="44" on="0"/>
        <pt x="252" y="44" on="1"/>
        <pt x="293" y="44" on="0"/>
        <pt x="365" y="78" on="0"/>
      </contour>
    </TTGlyph>
    <TTGlyph name="dcroat" xMin="61" yMin="-12" xMax="554" yMax="700">
      <contour>
        <pt x="554" y="579" on="1"/>
        <pt x="484" y="579" on="1"/>
        <pt x="484" y="0" on="1"/>
        <pt x="435" y="0" on="1"/>
        <pt x="428" y="75" on="1"/>
        <pt x="329" y="-12" on="0"/>
        <pt x="234" y="-12" on="1"/>
        <pt x="142" y="-12" on="0"/>
        <pt x="61" y="110" on="0"/>
        <pt x="61" y="243" on="1"/>
        <pt x="61" y="381" on="0"/>
        <pt x="147" y="497" on="0"/>
        <pt x="242" y="497" on="1"/>
        <pt x="334" y="497" on="0"/>
        <pt x="425" y="450" on="1"/>
        <pt x="421" y="483" on="0"/>
        <pt x="421" y="545" on="1"/>
        <pt x="421" y="579" on="1"/>
        <pt x="259" y="579" on="1"/>
        <pt x="259" y="618" on="1"/>
        <pt x="421" y="618" on="1"/>
        <pt x="421" y="700" on="1"/>
        <pt x="484" y="700" on="1"/>
        <pt x="484" y="618" on="1"/>
        <pt x="554" y="618" on="1"/>
      </contour>
      <contour>
        <pt x="421" y="121" on="1"/>
        <pt x="421" y="406" on="1"/>
        <pt x="318" y="441" on="0"/>
        <pt x="255" y="441" on="1"/>
        <pt x="184" y="441" on="0"/>
        <pt x="127" y="356" on="0"/>
        <pt x="127" y="244" on="1"/>
        <pt x="127" y="131" on="0"/>
        <pt x="183" y="44" on="0"/>
        <pt x="252" y="44" on="1"/>
        <pt x="293" y="44" on="0"/>
        <pt x="365" y="78" on="0"/>
      </contour>
    </TTGlyph>
    <TTGlyph name="degree" xMin="58" yMin="450" xMax="313" yMax="702">
      <contour>
        <pt x="185" y="702" on="1"/>
        <pt x="237" y="702" on="0"/>
        <pt x="313" y="628" on="0"/>
        <pt x="313" y="577" on="1"/>
        <pt x="313" y="525" on="0"/>
        <pt x="237" y="450" on="0"/>
        <pt x="133" y="450" on="0"/>
        <pt x="58" y="525" on="0"/>
        <pt x="58" y="629" on="0"/>
        <pt x="132" y="702" on="0"/>
      </contour>
      <contour>
        <pt x="221" y="662" on="0"/>
        <pt x="149" y="662" on="0"/>
        <pt x="100" y="613" on="0"/>
        <pt x="100" y="577" on="1"/>
        <pt x="100" y="542" on="0"/>
        <pt x="150" y="491" on="0"/>
        <pt x="220" y="491" on="0"/>
        <pt x="271" y="542" on="0"/>
        <pt x="271" y="577" on="1"/>
        <pt x="271" y="613" on="0"/>
      </contour>
    </TTGlyph>
    <TTGlyph name="dieresis" xMin="86" yMin="592" xMax="322" yMax="686">
      <contour>
        <pt x="104" y="686" on="1"/>
        <pt x="126" y="686" on="1"/>
        <pt x="145" y="686" on="0"/>
        <pt x="145" y="666" on="1"/>
        <pt x="145" y="611" on="1"/>
        <pt x="145" y="592" on="0"/>
        <pt x="126" y="592" on="1"/>
        <pt x="104" y="592" on="1"/>
        <pt x="86" y="592" on="0"/>
        <pt x="86" y="611" on="1"/>
        <pt x="86" y="666" on="1"/>
        <pt x="86" y="686" on="0"/>
      </contour>
      <contour>
        <pt x="282" y="686" on="1"/>
        <pt x="303" y="686" on="1"/>
        <pt x="322" y="686" on="0"/>
        <pt x="322" y="666" on="1"/>
        <pt x="322" y="611" on="1"/>
        <pt x="322" y="592" on="0"/>
        <pt x="303" y="592" on="1"/>
        <pt x="282" y="592" on="1"/>
        <pt x="263" y="592" on="0"/>
        <pt x="263" y="611" on="1"/>
        <pt x="263" y="666" on="1"/>
        <pt x="263" y="686" on="0"/>
      </contour>
    </TTGlyph>
    <TTGlyph name="divide" xMin="73" yMin="74" xMax="504" yMax="517">
      <contour>
        <pt x="278" y="517" on="1"/>
        <pt x="296" y="517" on="1"/>
        <pt x="321" y="517" on="0"/>
        <pt x="321" y="492" on="1"/>
        <pt x="321" y="438" on="1"/>
        <pt x="321" y="414" on="0"/>
        <pt x="296" y="414" on="1"/>
        <pt x="278" y="414" on="1"/>
        <pt x="264" y="414" on="0"/>
        <pt x="254" y="424" on="0"/>
        <pt x="254" y="438" on="1"/>
        <pt x="254" y="492" on="1"/>
        <pt x="254" y="517" on="0"/>
      </contour>
      <contour>
        <pt x="504" y="271" on="1"/>
        <pt x="73" y="271" on="1"/>
        <pt x="73" y="320" on="1"/>
        <pt x="504" y="320" on="1"/>
      </contour>
      <contour>
        <pt x="278" y="176" on="1"/>
        <pt x="296" y="176" on="1"/>
        <pt x="321" y="176" on="0"/>
        <pt x="321" y="151" on="1"/>
        <pt x="321" y="98" on="1"/>
        <pt x="321" y="74" on="0"/>
        <pt x="296" y="74" on="1"/>
        <pt x="278" y="74" on="1"/>
        <pt x="264" y="74" on="0"/>
        <pt x="254" y="84" on="0"/>
        <pt x="254" y="98" on="1"/>
        <pt x="254" y="151" on="1"/>
        <pt x="254" y="176" on="0"/>
      </contour>
    </TTGlyph>
</ttFont>
